<?xml version="1.0" encoding="utf-8"?>
<!-- Generator: Adobe Illustrator 28.3.0, SVG Export Plug-In . SVG Version: 6.00 Build 0)  -->
<svg version="1.1" id="Layer_1" xmlns="http://www.w3.org/2000/svg" xmlns:xlink="http://www.w3.org/1999/xlink" x="0px" y="0px"
	 viewBox="0 0 841.89 595.28" style="enable-background:new 0 0 841.89 595.28;" xml:space="preserve">
<style type="text/css">
	.st0{display:none;}
	.st1{display:inline;}
	.st2{fill:#FFFFFF;}
	.st3{display:inline;fill:none;stroke:#FFFFFF;stroke-miterlimit:10;}
	.st4{display:inline;stroke:#FFFFFF;stroke-miterlimit:10;}
	.st5{fill:#513107;}
	.st6{fill:#724411;}
	.st7{opacity:0.86;}
	.st8{fill:#51310B;}
	.st9{fill:#FFFFFF;stroke:#000000;stroke-miterlimit:10;}
</style>
<g id="Layer_2_00000085238176141040102040000003010914945315639226_" class="st0">
	<g class="st1">
		<path class="st2" d="M324.21,283.62c-0.16-1.13-0.42-2.21-0.78-3.25c-0.82,4.68-1.32,9.47-1.46,14.35
			C324.04,291.43,324.78,287.71,324.21,283.62z"/>
		<path d="M321.97,294.72c0.14-4.88,0.64-9.67,1.46-14.35c0.36,1.04,0.62,2.12,0.78,3.25C324.78,287.71,324.04,291.43,321.97,294.72
			z"/>
		<path class="st2" d="M366.8,352.25c-0.02-0.38-0.05-0.76-0.09-1.14c-0.46-4.35-2.43-8.05-5.68-11.17c-0.49-0.48-1-0.94-1.54-1.38
			c-1.23-1.01-2.41-2.06-3.58-3.13c-1.16-1.06-2.3-2.14-3.46-3.2c-1.99-1.83-1.71-2.19-0.34-4.18c1.04-1.5,2.51-2.84,4.04-3.96
			c4.4-3.22,7.03-7.37,7.74-12.42c0.85-5.99-1.15-11.21-5.97-15.41c-2.36-2.05-4.88-3.95-7.18-6.05c-3.04-2.78-3.89-4.45-0.18-8.47
			c2.21-2.4,4.72-4.56,6.88-6.99c5.86-6.6,4.9-15.34-1.83-21.28c-1.86-1.64-3.9-3.11-5.91-4.6c-5.51-4.1-5.46-8.94-1.25-13.54
			c1.91-2.09,4.11-3.95,6.11-5.98c2.71-2.76,3.96-5.74,3.96-8.65c-5.71,4.64-10.89,9.91-15.44,15.7c-1.58,2.01-3.08,4.09-4.5,6.23
			c-0.05,1.82,0.28,3.66,0.99,5.44c0.49,1.23,1.25,2.3,2.13,3.3c0.79,0.9,1.67,1.74,2.53,2.59c1.86,1.84,3.82,3.61,5.43,5.61
			c2.98,3.71,2.55,7.14-1.19,10.21c-2.16,1.77-4.59,3.24-6.76,4.99h-0.01c-4.12,3.35-5.92,7.65-5.88,12.68
			c0.04,4.95,2.46,8.9,5.89,12.43c0.1,0.12,0.22,0.24,0.34,0.36c1.81,1.81,3.8,3.48,5.62,5.29c0.52,0.51,0.82,1.25,1.06,1.94
			c0.25,0.74,0.28,1.49-0.44,2.13c-2.21,1.97-4.37,3.98-6.58,5.94c-0.46,0.41-0.92,0.82-1.39,1.22c-2.57,2.24-4.91,4.6-6.05,7.76
			c-1.29,3.61-1.55,7.27-0.76,11.05c0.89,4.33,3.7,7.46,7,10.39c0.41,0.36,0.81,0.74,1.2,1.12c1.13,1.1,2.21,2.26,3.29,3.41
			c1.33,1.42,1.13,2.18-0.4,3.36c-0.95,0.73-1.92,1.44-2.9,2.15c-0.17,0.13-0.34,0.25-0.51,0.38c3.3,4.5,6.98,8.71,10.99,12.59
			c1.11,1.07,2.24,2.12,3.4,3.13c-0.22,0.19-0.42,0.37-0.6,0.53c0.2-0.18,0.4-0.35,0.61-0.52c0.87-0.73,1.78-1.42,2.68-2.12
			c0.13-0.1,0.25-0.2,0.38-0.31c0.35-0.28,0.68-0.56,1.01-0.85c0.04-0.04,0.08-0.07,0.12-0.11c0.25-0.23,0.5-0.46,0.73-0.69
			c0.12-0.11,0.23-0.22,0.34-0.34c0.23-0.22,0.44-0.44,0.64-0.67c0.07-0.07,0.13-0.13,0.18-0.2c0.18-0.19,0.35-0.39,0.51-0.59
			c0.16-0.18,0.31-0.37,0.45-0.56c0.1-0.12,0.19-0.24,0.28-0.37c0.15-0.19,0.29-0.39,0.43-0.59c0.11-0.15,0.21-0.3,0.3-0.46
			c0.12-0.16,0.22-0.33,0.32-0.49c0.13-0.2,0.24-0.4,0.35-0.6c0.1-0.16,0.18-0.32,0.27-0.48c0.08-0.15,0.16-0.3,0.23-0.46
			c0.11-0.22,0.22-0.44,0.31-0.66c0.15-0.32,0.29-0.65,0.41-0.98c0.09-0.21,0.16-0.42,0.23-0.64c0.08-0.21,0.14-0.41,0.21-0.62
			c0.1-0.35,0.2-0.7,0.29-1.06c0.04-0.16,0.07-0.32,0.1-0.48c0.07-0.27,0.12-0.53,0.16-0.8c0.13-0.76,0.22-1.54,0.27-2.34
			c0.03-0.41,0.04-0.83,0.04-1.25C366.83,353.02,366.82,352.64,366.8,352.25z"/>
		<path d="M366.83,353.39c0,0.42-0.01,0.84-0.04,1.25c-0.05,0.8-0.14,1.58-0.27,2.34c-0.04,0.27-0.09,0.53-0.16,0.8
			c-0.03,0.16-0.06,0.32-0.1,0.48c-0.09,0.36-0.19,0.71-0.29,1.06c-0.07,0.21-0.13,0.41-0.21,0.62c-0.07,0.22-0.14,0.43-0.23,0.64
			c-0.12,0.33-0.26,0.66-0.41,0.98c-0.09,0.22-0.2,0.44-0.31,0.66c-0.07,0.16-0.15,0.31-0.23,0.46c-0.09,0.16-0.17,0.32-0.27,0.48
			c-0.11,0.2-0.22,0.4-0.35,0.6c-0.1,0.16-0.2,0.33-0.32,0.49c-0.09,0.16-0.19,0.31-0.3,0.46c-0.14,0.2-0.28,0.4-0.43,0.59
			c-0.09,0.13-0.18,0.25-0.28,0.37c-0.14,0.19-0.29,0.38-0.45,0.56c-0.16,0.2-0.33,0.4-0.51,0.59c-0.05,0.07-0.11,0.13-0.18,0.2
			c-0.2,0.23-0.41,0.45-0.64,0.67c-0.11,0.12-0.22,0.23-0.34,0.34c-0.23,0.23-0.48,0.46-0.73,0.69c-0.04,0.04-0.08,0.07-0.12,0.11
			c-0.33,0.29-0.66,0.57-1.01,0.85c-0.36,0.29-0.73,0.58-1.11,0.86c-0.66,0.49-1.32,0.99-1.93,1.53c-0.01,0.01-0.02,0.02-0.03,0.03
			c-1.16-1.01-2.29-2.06-3.4-3.13c-4.01-3.88-7.69-8.09-10.99-12.59c0.17-0.13,0.34-0.25,0.51-0.38c0.98-0.71,1.95-1.42,2.9-2.15
			c1.53-1.18,1.73-1.94,0.4-3.36c-1.08-1.15-2.16-2.31-3.29-3.41c-0.39-0.38-0.79-0.76-1.2-1.12c-3.3-2.93-6.11-6.06-7-10.39
			c-0.79-3.78-0.53-7.44,0.76-11.05c1.14-3.16,3.48-5.52,6.05-7.76c0.47-0.4,0.93-0.81,1.39-1.22c2.21-1.96,4.37-3.97,6.58-5.94
			c0.72-0.64,0.69-1.39,0.44-2.13c-0.24-0.69-0.54-1.43-1.06-1.94c-1.82-1.81-3.81-3.48-5.62-5.29c-0.12-0.12-0.24-0.24-0.34-0.36
			c-3.43-3.53-5.85-7.48-5.89-12.43c-0.04-5.03,1.76-9.33,5.88-12.68h0.01c2.17-1.75,4.6-3.22,6.76-4.99
			c3.74-3.07,4.17-6.5,1.19-10.21c-1.61-2-3.57-3.77-5.43-5.61c-0.86-0.85-1.74-1.69-2.53-2.59c-0.88-1-1.64-2.07-2.13-3.3
			c-0.71-1.78-1.04-3.62-0.99-5.44c1.42-2.14,2.92-4.22,4.5-6.23c4.55-5.79,9.73-11.06,15.44-15.7c0,2.91-1.25,5.89-3.96,8.65
			c-2,2.03-4.2,3.89-6.11,5.98c-4.21,4.6-4.26,9.44,1.25,13.54c2.01,1.49,4.05,2.96,5.91,4.6c6.73,5.94,7.69,14.68,1.83,21.28
			c-2.16,2.43-4.67,4.59-6.88,6.99c-3.71,4.02-2.86,5.69,0.18,8.47c2.3,2.1,4.82,4,7.18,6.05c4.82,4.2,6.82,9.42,5.97,15.41
			c-0.71,5.05-3.34,9.2-7.74,12.42c-1.53,1.12-3,2.46-4.04,3.96c-1.37,1.99-1.65,2.35,0.34,4.18c1.16,1.06,2.3,2.14,3.46,3.2
			c1.17,1.07,2.35,2.12,3.58,3.13c0.54,0.44,1.05,0.9,1.54,1.38c3.12,3.08,5.2,6.98,5.68,11.17c0.04,0.38,0.07,0.76,0.09,1.14
			C366.82,352.64,366.83,353.02,366.83,353.39z"/>
		<path d="M349.9,335.57c-0.9,4.33-3.7,7.46-7,10.39c-0.4,0.36-0.8,0.73-1.19,1.12c-1.14,1.09-2.22,2.25-3.3,3.41
			c-0.31,0.33-0.53,0.62-0.68,0.89c-3.48-5.4-6.46-11.16-8.86-17.21c0.69-0.65,1.39-1.3,2.09-1.94c1.99-1.83,1.71-2.19,0.34-4.18
			c-1.04-1.5-2.51-2.84-4.04-3.96c-0.82-0.6-1.57-1.23-2.27-1.89l-3.03-21.96c0.93-1.41,2.1-2.74,3.53-3.98
			c2.36-2.05,4.87-3.95,7.18-6.05c3.04-2.78,3.89-4.45,0.18-8.47c-2.21-2.4-4.72-4.56-6.88-6.99c-0.38-0.43-0.74-0.87-1.06-1.32
			c2.37-9.46,6.1-18.38,10.98-26.54c0.8-0.9,1.36-1.82,1.7-2.76c0-0.01,0-0.01,0-0.01c0.33-0.5,0.65-1,0.99-1.49
			c1.42-2.14,2.92-4.22,4.5-6.23c2.06,3.56,2.31,7.76,0.76,11.67c-0.49,1.23-1.25,2.3-2.14,3.3c-0.78,0.9-1.67,1.74-2.53,2.59
			c-1.85,1.84-3.81,3.61-5.42,5.61c-2.99,3.71-2.55,7.14,1.19,10.21c2.16,1.77,4.59,3.24,6.76,4.99h0.01
			c4.12,3.35,5.91,7.65,5.88,12.68c-0.04,4.95-2.46,8.9-5.88,12.43c-0.11,0.12-0.23,0.24-0.35,0.36c-1.81,1.81-3.8,3.48-5.62,5.29
			c-0.52,0.51-0.82,1.25-1.06,1.94c-0.25,0.74-0.28,1.49,0.44,2.13c2.21,1.97,4.38,3.98,6.59,5.94c0.46,0.41,0.92,0.82,1.38,1.22
			c2.57,2.24,4.91,4.6,6.04,7.76C350.43,328.13,350.69,331.79,349.9,335.57z"/>
		<path d="M352.18,368.97c-4.01-3.88-7.69-8.09-10.99-12.59c-0.4-0.53-0.78-1.06-1.15-1.6c0.55,0.41,1.11,0.81,1.66,1.22
			c2.38,1.73,4.72,3.5,6.55,5.78C350.1,364.07,351.39,366.47,352.18,368.97z"/>
		<path class="st2" d="M397.96,225.3c-1.15-0.9-2.33-1.78-3.41-2.75c0.22,0.2,0.46,0.41,0.74,0.66c0.61,0.54,1.27,1.05,1.94,1.54
			c0.38,0.28,0.75,0.57,1.11,0.86C398.21,225.5,398.09,225.4,397.96,225.3z M400.71,255.35c3.25-3.13,5.23-6.82,5.69-11.18
			C405.92,248.36,403.84,252.26,400.71,255.35z M405.59,235.79c0.24,0.77,0.44,1.57,0.59,2.38
			C406.04,237.36,405.85,236.56,405.59,235.79z M406.33,239.09c0.08,0.61,0.14,1.23,0.17,1.87
			C406.47,240.33,406.42,239.71,406.33,239.09z M409.24,198.43c0.45,0,0.83,0.25,1,0.6c0.07,0.13,0.11,0.27,0.11,0.42
			c0.02-0.14,0.03-0.29,0.05-0.44c0.03-0.19,0.05-0.38,0.08-0.58H409.24z"/>
		<path class="st2" d="M434.55,375.49c-0.6-0.37-1.02-0.64-1.24-0.89c-0.05-0.04-0.09-0.09-0.12-0.14c-0.1-0.16-0.12-0.31-0.05-0.48
			c0.01-0.05,0.04-0.11,0.08-0.17c0.03-0.06,0.09-0.13,0.15-0.21c0.2-0.25,0.53-0.56,0.98-0.97c1.04-0.93,2.18-1.77,3.29-2.64
			c0.13-0.1,0.25-0.2,0.38-0.31c0.35-0.28,0.68-0.56,1.01-0.85c0.04-0.04,0.08-0.07,0.12-0.11c0.25-0.23,0.5-0.46,0.73-0.69
			c0.12-0.11,0.23-0.22,0.34-0.34c0.23-0.22,0.44-0.44,0.64-0.67c0.07-0.07,0.13-0.13,0.18-0.2c0.18-0.19,0.35-0.39,0.51-0.59
			c0.16-0.18,0.31-0.37,0.45-0.56c0.1-0.12,0.19-0.24,0.28-0.37c0.15-0.19,0.29-0.39,0.43-0.59c0.11-0.15,0.21-0.3,0.3-0.46
			c0.12-0.16,0.22-0.33,0.32-0.49c0.13-0.2,0.24-0.4,0.35-0.6c0.1-0.16,0.18-0.32,0.27-0.48c0.08-0.15,0.16-0.3,0.23-0.46
			c0.11-0.22,0.22-0.44,0.31-0.66c0.15-0.32,0.29-0.65,0.41-0.98c0.09-0.21,0.16-0.42,0.23-0.64c0.08-0.21,0.14-0.41,0.21-0.62
			c0.1-0.35,0.2-0.7,0.29-1.06c0.04-0.16,0.07-0.32,0.1-0.48c0.07-0.27,0.12-0.53,0.16-0.8c0.13-0.76,0.22-1.54,0.27-2.34
			c0.03-0.41,0.04-0.83,0.04-1.25c0-0.37-0.01-0.75-0.03-1.14c-0.02-0.38-0.05-0.76-0.09-1.14c-0.53-5-3.06-9.14-7.22-12.55
			c-1.23-1.01-2.41-2.06-3.58-3.13c-1.16-1.06-2.3-2.13-3.46-3.2c-1.99-1.83-1.71-2.19-0.34-4.18c1.04-1.5,2.51-2.84,4.04-3.96
			c4.4-3.22,7.03-7.37,7.74-12.42c0.85-5.99-1.15-11.21-5.97-15.41c-2.36-2.05-4.88-3.95-7.18-6.05c-3.04-2.78-3.89-4.45-0.18-8.47
			c2.21-2.4,4.72-4.56,6.88-6.99c5.86-6.6,4.9-15.34-1.83-21.28c-1.86-1.64-3.9-3.11-5.91-4.6c-5.51-4.1-5.46-8.94-1.25-13.54
			c1.91-2.09,4.11-3.95,6.11-5.98c5.95-6.07,4.87-13.15-1.08-18.3c-1.95-1.7-4.19-3.12-6.26-4.7c-2.41-1.85-4.01-4.2-4.94-6.94
			c-0.1-0.29-0.24-0.56-0.47-0.81c-0.03-0.04-0.06-0.07-0.1-0.11c-0.02-0.02-0.04-0.04-0.06-0.06c-0.02,0.06-0.04,0.11-0.05,0.17
			c-0.32,1.05-0.19,2.06,0.11,3.05c0.07,0.26,0.16,0.52,0.26,0.78c1.1,2.98,3.54,5.05,5.87,7.19c2.06,1.87,4.18,3.67,5.45,6.14
			c2,3.89,1.18,7.73-1.88,10.52c-2.27,2.07-4.74,3.97-7.22,5.83c-0.95,0.72-1.78,1.5-2.48,2.34c-3.29,3.9-3.98,8.97-2.14,13.62
			c0.49,1.23,1.25,2.3,2.14,3.3c0.78,0.9,1.67,1.74,2.52,2.59c1.86,1.84,3.82,3.61,5.43,5.61c2.98,3.71,2.55,7.14-1.19,10.21
			c-2.16,1.77-4.59,3.24-6.76,4.99h-0.01c-4.12,3.35-5.92,7.65-5.88,12.68c0.04,4.95,2.46,8.9,5.89,12.43
			c0.1,0.12,0.22,0.24,0.34,0.36c1.81,1.81,3.8,3.48,5.62,5.29c0.52,0.51,0.82,1.25,1.06,1.94c0.25,0.74,0.28,1.49-0.44,2.13
			c-2.21,1.97-4.37,3.98-6.58,5.94c-0.46,0.41-0.92,0.82-1.39,1.22c-2.57,2.24-4.91,4.6-6.05,7.76c-1.29,3.61-1.55,7.27-0.76,11.05
			c0.89,4.33,3.7,7.46,7,10.39c0.41,0.36,0.81,0.74,1.2,1.12c1.13,1.1,2.21,2.26,3.29,3.41c1.33,1.42,1.13,2.18-0.4,3.36
			c-0.95,0.73-1.93,1.44-2.9,2.15c-2.37,1.74-4.71,3.5-6.54,5.78c-4.64,5.76-5.79,12.24-4.5,19.19c0.68,3.65,2.04,7.05,4.37,10.1
			c0.03,0.04,0.07,0.08,0.12,0.14c0.49,0.64,1.02,1.27,1.55,1.89c0.11,0.15,0.28,0.35,0.43,0.36c0.08,0,0.16,0.01,0.23,0.02
			c1.05,0.1,1.57,0.64,1.74,1.66c0.03,0.18,0.7,0.28,1.22,0.47c-0.08,0.68,0.22,1.07,1.22,1.01c0.33-0.02,0.67,0.03,1,0.08
			c0.31,0.05,0.62,0.11,0.93,0.13c9.2-0.15,18.09-1.55,26.52-4.06C446.92,385.27,441.51,379.82,434.55,375.49z"/>
		<path d="M449.36,392.77c-8.43,2.51-17.32,3.91-26.52,4.06c0.09,0.01,0.18,0.01,0.26,0.01h-0.28c-0.01,0-0.02,0-0.02,0h-0.03
			c-0.04,0-0.08,0-0.13-0.01c-0.01,0.01-0.03,0-0.05,0c-0.08,0-0.15,0.01-0.23,0c-0.36,0-0.79-0.01-1.18-0.02
			c-0.14,0-0.27-0.01-0.4-0.01c-0.49-0.01-0.95-0.2-1.28-0.54c-0.64-0.66-1.75-1.76-2.77-2.78c-0.96-0.96-1.85-1.86-2.21-2.27
			c-0.05-0.06-0.09-0.1-0.12-0.14c-2.33-3.05-3.69-6.45-4.37-10.1c-1.29-6.95-0.14-13.43,4.5-19.19c1.83-2.28,4.17-4.04,6.54-5.78
			c0.97-0.71,1.95-1.42,2.9-2.15c1.53-1.18,1.73-1.94,0.4-3.36c-1.08-1.15-2.16-2.31-3.29-3.41c-0.39-0.38-0.79-0.76-1.2-1.12
			c-3.3-2.93-6.11-6.06-7-10.39c-0.79-3.78-0.53-7.44,0.76-11.05c1.14-3.16,3.48-5.52,6.05-7.76c0.47-0.4,0.93-0.81,1.39-1.22
			c2.21-1.96,4.37-3.97,6.58-5.94c0.72-0.64,0.69-1.39,0.44-2.13c-0.24-0.69-0.54-1.43-1.06-1.94c-1.82-1.81-3.81-3.48-5.62-5.29
			c-0.12-0.12-0.24-0.24-0.34-0.36c-3.43-3.53-5.85-7.48-5.89-12.43c-0.04-5.03,1.76-9.33,5.88-12.68h0.01
			c2.17-1.75,4.6-3.22,6.76-4.99c3.74-3.07,4.17-6.5,1.19-10.21c-1.61-2-3.57-3.77-5.43-5.61c-0.85-0.85-1.74-1.69-2.52-2.59
			c-0.89-1-1.65-2.07-2.14-3.3c-1.84-4.65-1.15-9.72,2.14-13.62c0.7-0.84,1.53-1.62,2.48-2.34c2.48-1.86,4.95-3.76,7.22-5.83
			c3.06-2.79,3.88-6.63,1.88-10.52c-1.27-2.47-3.39-4.27-5.45-6.14c-2.33-2.14-4.77-4.21-5.87-7.19c-0.1-0.26-0.19-0.52-0.26-0.78
			c-0.3-0.99-0.43-2-0.11-3.05c0.01-0.06,0.03-0.11,0.05-0.17c0.02,0.02,0.04,0.04,0.06,0.06c0.04,0.04,0.07,0.07,0.1,0.11
			c0.23,0.25,0.37,0.52,0.47,0.81c0.93,2.74,2.53,5.09,4.94,6.94c2.07,1.58,4.31,3,6.26,4.7c5.95,5.15,7.03,12.23,1.08,18.3
			c-2,2.03-4.2,3.89-6.11,5.98c-4.21,4.6-4.26,9.44,1.25,13.54c2.01,1.49,4.05,2.96,5.91,4.6c6.73,5.94,7.69,14.68,1.83,21.28
			c-2.16,2.43-4.67,4.59-6.88,6.99c-3.71,4.02-2.86,5.69,0.18,8.47c2.3,2.1,4.82,4,7.18,6.05c4.82,4.2,6.82,9.42,5.97,15.41
			c-0.71,5.05-3.34,9.2-7.74,12.42c-1.53,1.12-3,2.46-4.04,3.96c-1.37,1.99-1.65,2.35,0.34,4.18c1.16,1.06,2.3,2.14,3.46,3.2
			c1.17,1.07,2.35,2.12,3.58,3.13c3.98,3.26,6.66,7.71,7.22,12.55c0.04,0.38,0.07,0.76,0.09,1.14c0.02,0.39,0.03,0.77,0.03,1.14
			c0,0.42-0.01,0.84-0.04,1.25c-0.05,0.8-0.14,1.58-0.27,2.34c-0.04,0.27-0.09,0.53-0.16,0.8c-0.03,0.16-0.06,0.32-0.1,0.48
			c-0.09,0.36-0.19,0.71-0.29,1.06c-0.07,0.21-0.13,0.41-0.21,0.62c-0.07,0.22-0.14,0.43-0.23,0.64c-0.12,0.33-0.26,0.66-0.41,0.98
			c-0.09,0.22-0.2,0.44-0.31,0.66c-0.07,0.16-0.15,0.31-0.23,0.46c-0.09,0.16-0.17,0.32-0.27,0.48c-0.11,0.2-0.22,0.4-0.35,0.6
			c-0.1,0.16-0.2,0.33-0.32,0.49c-0.09,0.16-0.19,0.31-0.3,0.46c-0.14,0.2-0.28,0.4-0.43,0.59c-0.09,0.13-0.18,0.25-0.28,0.37
			c-0.14,0.19-0.29,0.38-0.45,0.56c-0.16,0.2-0.33,0.4-0.51,0.59c-0.05,0.07-0.11,0.13-0.18,0.2c-0.2,0.23-0.41,0.45-0.64,0.67
			c-0.11,0.12-0.22,0.23-0.34,0.34c-0.23,0.23-0.48,0.46-0.73,0.69c-0.04,0.04-0.08,0.07-0.12,0.11c-0.33,0.29-0.66,0.57-1.01,0.85
			c-0.36,0.29-0.73,0.58-1.11,0.86c-0.66,0.49-1.32,0.99-1.93,1.53c-0.23,0.21-0.44,0.39-0.63,0.56c-0.45,0.41-0.78,0.72-0.98,0.97
			c-0.06,0.08-0.11,0.14-0.15,0.21c-0.04,0.06-0.06,0.11-0.08,0.17c-0.07,0.17-0.05,0.32,0.05,0.48c0.03,0.04,0.07,0.09,0.12,0.14
			c0.22,0.25,0.64,0.52,1.24,0.89C441.51,379.82,446.92,385.27,449.36,392.77z"/>
		<path d="M432.12,380.97c-0.68,3.65-2.04,7.05-4.37,10.1c-0.45,0.59-3.77,3.82-5.1,5.19c-0.2,0.21-0.46,0.36-0.74,0.44
			c-0.17,0.07-0.35,0.1-0.54,0.1c-0.06,0-0.12,0-0.19,0.01h-0.11c-0.31,0-0.65,0.01-0.97,0.02c-0.07,0.01-0.15,0-0.22,0h-0.15
			c-9.35-0.12-18.38-1.54-26.93-4.09c2.44-7.48,7.85-12.93,14.8-17.25c2.06-1.28,1.93-1.32-0.43-3.42
			c-0.61-0.54-1.27-1.04-1.93-1.53c-6.44-4.74-9.61-10.83-9.26-18.29c0.24-5.28,3.01-10.18,7.31-13.69c2.45-2.01,4.72-4.2,7.04-6.33
			c1.99-1.83,1.71-2.19,0.34-4.18c-1.04-1.5-2.51-2.84-4.04-3.96c-4.4-3.22-7.03-7.37-7.74-12.42c-0.85-5.99,1.15-11.21,5.97-15.41
			c2.36-2.05,4.87-3.95,7.18-6.05c3.04-2.78,3.89-4.45,0.18-8.47c-2.21-2.4-4.72-4.56-6.88-6.99c-5.86-6.6-4.9-15.34,1.83-21.28
			c1.86-1.64,3.9-3.11,5.91-4.6c5.51-4.1,5.46-8.94,1.25-13.54c-1.91-2.09-4.12-3.95-6.11-5.98c-5.95-6.07-4.87-13.15,1.08-18.3
			c1.95-1.7,4.19-3.12,6.26-4.7c2.4-1.85,4.01-4.2,4.94-6.94c0.1-0.29,0.24-0.56,0.47-0.81c0.03-0.04,0.06-0.07,0.11-0.11
			c0.01-0.02,0.03-0.04,0.05-0.06c0.02,0.06,0.04,0.11,0.05,0.17c0.32,1.05,0.19,2.06-0.1,3.04v0.01c-0.08,0.26-0.17,0.52-0.27,0.78
			c-1.1,2.98-3.54,5.05-5.88,7.19c-2.05,1.87-4.17,3.67-5.44,6.14c-2,3.89-1.18,7.73,1.87,10.52c2.28,2.07,4.75,3.97,7.23,5.83
			c0.95,0.72,1.78,1.5,2.49,2.34c3.28,3.9,3.97,8.97,2.13,13.62c-0.49,1.23-1.25,2.3-2.13,3.3c-0.8,0.9-1.68,1.74-2.54,2.59
			c-1.85,1.84-3.81,3.61-5.42,5.61c-2.99,3.71-2.55,7.14,1.19,10.21c2.16,1.77,4.59,3.24,6.76,4.99h0.01
			c4.12,3.35,5.91,7.65,5.88,12.68c-0.04,4.95-2.46,8.9-5.88,12.43c-0.11,0.12-0.23,0.24-0.35,0.36c-1.81,1.81-3.8,3.48-5.62,5.29
			c-0.52,0.51-0.82,1.25-1.06,1.94c-0.25,0.74-0.28,1.49,0.44,2.13c2.21,1.97,4.38,3.98,6.59,5.94c0.46,0.41,0.92,0.82,1.38,1.22
			c2.57,2.24,4.91,4.6,6.04,7.76c1.3,3.61,1.56,7.27,0.77,11.05c-0.9,4.33-3.7,7.46-7,10.39c-0.4,0.36-0.8,0.73-1.19,1.12h-0.01
			c-1.13,1.1-2.21,2.26-3.29,3.41c-1.33,1.42-1.14,2.18,0.39,3.36c0.95,0.73,1.93,1.44,2.9,2.15c2.38,1.74,4.72,3.5,6.55,5.78
			C432.26,367.54,433.41,374.02,432.12,380.97z"/>
		<path class="st2" d="M485.7,239.09c-0.05-0.31-0.09-0.62-0.15-0.92c-0.14-0.81-0.33-1.61-0.59-2.38c-0.12-0.39-0.26-0.77-0.4-1.15
			c-0.15-0.38-0.31-0.75-0.48-1.12c-0.14-0.32-0.3-0.63-0.46-0.93c-0.09-0.18-0.19-0.36-0.3-0.54c-0.09-0.16-0.18-0.32-0.28-0.47
			c-0.08-0.15-0.17-0.3-0.28-0.45c-0.14-0.22-0.29-0.44-0.44-0.66c-0.07-0.11-0.15-0.21-0.23-0.32c-0.17-0.24-0.35-0.47-0.54-0.7
			c-0.06-0.08-0.12-0.16-0.19-0.24c-0.21-0.26-0.42-0.51-0.65-0.76c-0.05-0.07-0.11-0.13-0.18-0.19c-0.19-0.23-0.4-0.44-0.62-0.66
			c-0.11-0.12-0.23-0.23-0.34-0.34c-0.23-0.23-0.48-0.46-0.73-0.69c-0.04-0.04-0.08-0.07-0.12-0.11c-0.33-0.29-0.66-0.57-1.01-0.85
			c-0.13-0.11-0.25-0.21-0.38-0.31c-1.15-0.9-2.33-1.78-3.41-2.75c-0.39-0.35-0.68-0.63-0.87-0.86c-0.06-0.08-0.11-0.14-0.15-0.21
			c-0.04-0.06-0.06-0.11-0.08-0.17c-0.18-0.49,0.3-0.82,1.41-1.51c1.54-0.96,3-1.97,4.37-3.05c-2.37-1.68-4.82-3.27-7.34-4.74
			c-5.38-3.16-11.09-5.83-17.06-7.93h-0.01c-0.04,0.04-0.07,0.09-0.11,0.14c-2.33,3.04-3.68,6.45-4.36,10.1
			c-1.29,6.95-0.14,13.42,4.49,19.19c1.83,2.27,4.17,4.04,6.55,5.78c0.97,0.71,1.95,1.42,2.9,2.15c1.53,1.18,1.72,1.93,0.39,3.36
			c-1.07,1.15-2.15,2.31-3.29,3.41c-0.39,0.38-0.79,0.75-1.2,1.11c-3.3,2.93-6.1,6.06-7,10.4c-0.78,3.77-0.53,7.43,0.77,11.05
			c1.13,3.15,3.47,5.52,6.05,7.75c0.46,0.4,0.92,0.81,1.38,1.22c2.21,1.96,4.37,3.98,6.58,5.94c0.72,0.65,0.7,1.4,0.44,2.14
			c-0.24,0.68-0.54,1.43-1.05,1.94c-1.83,1.81-3.82,3.47-5.63,5.29c-0.12,0.12-0.23,0.23-0.34,0.35c-3.42,3.53-5.85,7.48-5.89,12.43
			c-0.03,5.03,1.77,9.33,5.89,12.68c2.16,1.76,4.61,3.22,6.76,4.99c3.75,3.08,4.18,6.51,1.2,10.21c-1.61,2.01-3.58,3.77-5.43,5.61
			c-0.86,0.85-1.74,1.7-2.53,2.6c-0.88,0.99-1.65,2.06-2.13,3.29c-1.85,4.65-1.15,9.73,2.13,13.63c0.71,0.84,1.54,1.62,2.48,2.33
			c2.48,1.87,4.96,3.76,7.23,5.84c3.05,2.78,3.88,6.62,1.88,10.51c-1.27,2.47-3.4,4.28-5.45,6.15c-0.01,0.01-0.01,0.01-0.02,0.02
			c3.08-1.59,6.06-3.34,8.94-5.26c0,0,0.01,0,0.01-0.01c2.78-4.53,2.36-9.8-2.22-14.48c-1.99-2.04-4.19-3.9-6.11-5.99
			c-4.2-4.59-4.25-9.43,1.26-13.53c2-1.5,4.04-2.97,5.9-4.61c6.73-5.94,7.69-14.68,1.83-21.27c-2.16-2.43-4.67-4.6-6.87-6.99
			c-3.71-4.02-2.87-5.7,0.18-8.48c2.3-2.1,4.82-4,7.18-6.05c4.82-4.19,6.81-9.41,5.97-15.4c-0.72-5.05-3.35-9.21-7.75-12.43
			c-1.53-1.12-3-2.45-4.04-3.96c-1.37-1.99-1.64-2.35,0.34-4.17c1.74-1.6,3.45-3.23,5.22-4.79c0.6-0.52,1.2-1.04,1.82-1.54
			c0.54-0.44,1.05-0.9,1.54-1.38c3.25-3.13,5.23-6.82,5.69-11.18c0.04-0.38,0.07-0.76,0.09-1.14c0.03-0.7,0.03-1.39,0.01-2.07
			C485.84,240.33,485.79,239.71,485.7,239.09z"/>
		<path d="M485.87,240.96c0.02,0.68,0.02,1.37-0.01,2.07c-0.02,0.38-0.05,0.76-0.09,1.14c-0.48,4.19-2.56,8.09-5.69,11.18
			c-0.49,0.48-1,0.94-1.54,1.38c-0.62,0.5-1.22,1.02-1.82,1.54c-1.77,1.56-3.48,3.19-5.22,4.79c-1.98,1.82-1.71,2.18-0.34,4.17
			c1.04,1.51,2.51,2.84,4.04,3.96c4.4,3.22,7.03,7.38,7.75,12.43c0.84,5.99-1.15,11.21-5.97,15.4c-2.36,2.05-4.88,3.95-7.18,6.05
			c-3.05,2.78-3.89,4.46-0.18,8.48c2.2,2.39,4.71,4.56,6.87,6.99c5.86,6.59,4.9,15.33-1.83,21.27c-1.86,1.64-3.9,3.11-5.9,4.61
			c-5.51,4.1-5.46,8.94-1.26,13.53c1.92,2.09,4.12,3.95,6.11,5.99c4.58,4.68,5,9.95,2.22,14.48c0,0.01-0.01,0.01-0.01,0.01
			c-2.88,1.92-5.86,3.67-8.94,5.26c0.01-0.01,0.01-0.01,0.02-0.02c2.05-1.87,4.18-3.68,5.45-6.15c2-3.89,1.17-7.73-1.88-10.51
			c-2.27-2.08-4.75-3.97-7.23-5.84c-0.94-0.71-1.77-1.49-2.48-2.33c-3.28-3.9-3.98-8.98-2.13-13.63c0.48-1.23,1.25-2.3,2.13-3.29
			c0.79-0.9,1.67-1.75,2.53-2.6c1.85-1.84,3.82-3.6,5.43-5.61c2.98-3.7,2.55-7.13-1.2-10.21c-2.15-1.77-4.6-3.23-6.76-4.99
			c-4.12-3.35-5.92-7.65-5.89-12.68c0.04-4.95,2.47-8.9,5.89-12.43c0.11-0.12,0.22-0.23,0.34-0.35c1.81-1.82,3.8-3.48,5.63-5.29
			c0.51-0.51,0.81-1.26,1.05-1.94c0.26-0.74,0.28-1.49-0.44-2.14c-2.21-1.96-4.37-3.98-6.58-5.94c-0.46-0.41-0.92-0.82-1.38-1.22
			c-2.58-2.23-4.92-4.6-6.05-7.75c-1.3-3.62-1.55-7.28-0.77-11.05c0.9-4.34,3.7-7.47,7-10.4c0.41-0.36,0.81-0.73,1.2-1.11
			c1.14-1.1,2.22-2.26,3.29-3.41c1.33-1.43,1.14-2.18-0.39-3.36c-0.95-0.73-1.93-1.44-2.9-2.15c-2.38-1.74-4.72-3.51-6.55-5.78
			c-4.63-5.77-5.78-12.24-4.49-19.19c0.68-3.65,2.03-7.06,4.36-10.1c0.03-0.04,0.07-0.09,0.12-0.14c5.97,2.1,11.68,4.77,17.06,7.93
			c2.52,1.47,4.97,3.06,7.34,4.74c-1.37,1.08-2.83,2.09-4.37,3.05c-1.11,0.69-1.59,1.02-1.41,1.51c0.02,0.06,0.04,0.11,0.08,0.17
			c0.04,0.07,0.09,0.13,0.15,0.21c0.19,0.23,0.48,0.51,0.87,0.86c0.22,0.2,0.46,0.41,0.74,0.66c0.61,0.54,1.27,1.05,1.94,1.54
			c0.38,0.28,0.75,0.57,1.11,0.86c0.35,0.28,0.68,0.56,1.01,0.85c0.04,0.04,0.08,0.07,0.12,0.11c0.25,0.23,0.5,0.46,0.73,0.69
			c0.11,0.11,0.23,0.22,0.34,0.34c0.22,0.22,0.43,0.43,0.62,0.66c0.07,0.06,0.13,0.12,0.18,0.19c0.23,0.25,0.44,0.5,0.65,0.76
			c0.07,0.08,0.13,0.16,0.19,0.24c0.19,0.23,0.37,0.46,0.54,0.7c0.08,0.11,0.16,0.21,0.23,0.32c0.15,0.22,0.3,0.44,0.44,0.66
			c0.11,0.15,0.2,0.3,0.28,0.45c0.1,0.15,0.19,0.31,0.28,0.47c0.11,0.18,0.21,0.36,0.3,0.54c0.16,0.3,0.32,0.61,0.46,0.93
			c0.17,0.37,0.33,0.74,0.48,1.12c0.14,0.38,0.28,0.76,0.4,1.15c0.24,0.77,0.44,1.57,0.59,2.38c0.06,0.3,0.1,0.61,0.15,0.92
			C485.78,239.7,485.84,240.32,485.87,240.96z"/>
		<path d="M468.96,259.72c0.78,3.77,0.53,7.43-0.77,11.05c-1.13,3.15-3.48,5.52-6.05,7.75c-0.46,0.4-0.92,0.81-1.38,1.22
			c-2.21,1.96-4.38,3.98-6.58,5.94c-0.73,0.65-0.7,1.4-0.44,2.14c0.24,0.68,0.54,1.43,1.05,1.94c1.83,1.81,3.82,3.47,5.62,5.29
			l0.35,0.35c3.42,3.53,5.85,7.48,5.88,12.43c0.04,5.03-1.76,9.33-5.88,12.68c-2.16,1.76-4.61,3.22-6.76,4.99
			c-3.75,3.08-4.18,6.51-1.2,10.21c1.61,2.01,3.58,3.77,5.43,5.61c0.86,0.85,1.74,1.7,2.53,2.6c0.88,0.99,1.65,2.06,2.13,3.29
			c1.85,4.65,1.15,9.73-2.13,13.63c-0.71,0.84-1.54,1.62-2.48,2.33c-2.48,1.87-4.96,3.76-7.23,5.84c-3.06,2.78-3.88,6.62-1.88,10.51
			c1.27,2.47,3.4,4.28,5.45,6.15c1.37,1.25,2.77,2.48,3.92,3.88c-0.59,0.25-1.19,0.49-1.79,0.71c-0.46-0.46-0.96-0.9-1.51-1.32
			c-2.07-1.59-4.3-3.01-6.26-4.7c-5.95-5.16-7.02-12.23-1.07-18.3c1.99-2.04,4.19-3.9,6.11-5.99c4.2-4.59,4.25-9.43-1.26-13.53
			c-2-1.5-4.05-2.97-5.9-4.61c-6.74-5.94-7.69-14.68-1.83-21.27c2.16-2.43,4.66-4.6,6.87-6.99c3.71-4.02,2.87-5.7-0.18-8.48
			c-2.3-2.1-4.82-4-7.18-6.05c-4.82-4.19-6.81-9.41-5.97-15.4c0.71-5.05,3.35-9.21,7.75-12.43c1.52-1.12,3-2.45,4.03-3.96
			c1.38-1.99,1.65-2.35-0.33-4.17c-2.33-2.14-4.59-4.33-7.04-6.33c-4.3-3.52-7.08-8.42-7.32-13.7c-0.34-7.45,2.82-13.55,9.26-18.28
			c0.67-0.49,1.33-1,1.94-1.54c2.35-2.09,2.48-2.13,0.42-3.41c-7.27-4.53-12.85-10.28-15.13-18.29c-0.17-0.63-0.26-1.28-0.34-1.95
			c-0.02-0.2,0.02-0.39,0.11-0.55c7.73,0.83,15.18,2.56,22.27,5.07h0.01c5.97,2.1,11.68,4.77,17.06,7.93
			c0.22,0.76,0.39,1.53,0.54,2.31c1.29,6.95,0.14,13.42-4.49,19.19c-1.83,2.27-4.17,4.04-6.55,5.78c-0.97,0.71-1.95,1.42-2.9,2.15
			c-1.53,1.18-1.72,1.93-0.39,3.36c1.07,1.15,2.15,2.31,3.29,3.41c0.39,0.38,0.79,0.75,1.2,1.11
			C465.26,252.25,468.06,255.38,468.96,259.72z"/>
		<path class="st2" d="M516.66,296.26c-2.36-2.05-4.88-3.95-7.18-6.05c-3.04-2.78-3.89-4.45-0.18-8.47c2.21-2.4,4.72-4.56,6.88-6.99
			c0.42-0.48,0.81-0.97,1.17-1.47c-2.33-9.23-5.96-17.95-10.68-25.95c-1.14-1.16-1.88-2.38-2.24-3.62
			c-0.28-0.44-0.57-0.88-0.86-1.32v-0.02c-1.41-2.09-2.89-4.1-4.44-6.07c-2.12,3.58-2.38,7.83-0.82,11.77
			c0.49,1.23,1.25,2.3,2.13,3.3c0.79,0.9,1.67,1.74,2.53,2.59c1.86,1.84,3.82,3.61,5.43,5.61c2.98,3.71,2.55,7.14-1.19,10.21
			c-2.16,1.77-4.59,3.24-6.76,4.99h-0.01c-4.12,3.35-5.92,7.65-5.88,12.68c0.04,4.95,2.46,8.9,5.89,12.43
			c0.1,0.12,0.22,0.24,0.34,0.36c1.81,1.81,3.8,3.48,5.62,5.29c0.52,0.51,0.82,1.25,1.06,1.94c0.25,0.74,0.28,1.49-0.44,2.13
			c-2.21,1.97-4.37,3.98-6.58,5.94c-0.46,0.41-0.92,0.82-1.39,1.22c-2.57,2.24-4.91,4.6-6.05,7.76c-1.29,3.61-1.55,7.27-0.76,11.05
			c0.89,4.33,3.7,7.46,7,10.39c0.41,0.36,0.81,0.74,1.2,1.12c1.13,1.1,2.21,2.26,3.29,3.41c0.36,0.38,0.6,0.72,0.74,1.02
			c3.5-5.41,6.49-11.18,8.9-17.25c-0.73-0.68-1.46-1.36-2.19-2.03c-1.99-1.83-1.71-2.19-0.34-4.18c1.04-1.5,2.51-2.84,4.04-3.96
			c0.89-0.65,1.71-1.34,2.45-2.07c1.75-6.93,2.78-14.15,2.98-21.58C519.37,298.95,518.15,297.56,516.66,296.26z M500.44,356
			c-2.37,1.74-4.71,3.5-6.54,5.78c-1.89,2.35-3.2,4.81-3.99,7.37c4.07-3.9,7.79-8.15,11.14-12.7c0.48-0.64,0.94-1.28,1.4-1.93
			C501.79,355.02,501.11,355.51,500.44,356z"/>
		<path d="M501.05,356.45c-3.35,4.55-7.07,8.8-11.14,12.7c0.79-2.56,2.1-5.02,3.99-7.37c1.83-2.28,4.17-4.04,6.54-5.78
			c0.67-0.49,1.35-0.98,2.01-1.48C501.99,355.17,501.53,355.81,501.05,356.45z"/>
		<path d="M520.32,300.44c-0.2,7.43-1.23,14.65-2.98,21.58c-0.74,0.73-1.56,1.42-2.45,2.07c-1.53,1.12-3,2.46-4.04,3.96
			c-1.37,1.99-1.65,2.35,0.34,4.18c0.73,0.67,1.46,1.35,2.19,2.03c-2.41,6.07-5.4,11.84-8.9,17.25c-0.14-0.3-0.38-0.64-0.74-1.02
			c-1.08-1.15-2.16-2.31-3.29-3.41c-0.39-0.38-0.79-0.76-1.2-1.12c-3.3-2.93-6.11-6.06-7-10.39c-0.79-3.78-0.53-7.44,0.76-11.05
			c1.14-3.16,3.48-5.52,6.05-7.76c0.47-0.4,0.93-0.81,1.39-1.22c2.21-1.96,4.37-3.97,6.58-5.94c0.72-0.64,0.69-1.39,0.44-2.13
			c-0.24-0.69-0.54-1.43-1.06-1.94c-1.82-1.81-3.81-3.48-5.62-5.29c-0.12-0.12-0.24-0.24-0.34-0.36c-3.43-3.53-5.85-7.48-5.89-12.43
			c-0.04-5.03,1.76-9.33,5.88-12.68h0.01c2.17-1.75,4.6-3.22,6.76-4.99c3.74-3.07,4.17-6.5,1.19-10.21c-1.61-2-3.57-3.77-5.43-5.61
			c-0.86-0.85-1.74-1.69-2.53-2.59c-0.88-1-1.64-2.07-2.13-3.3c-1.56-3.94-1.3-8.19,0.82-11.77c1.55,1.97,3.03,3.98,4.44,6.07v0.02
			c0.29,0.44,0.58,0.88,0.86,1.32c0.36,1.24,1.1,2.46,2.24,3.62c4.72,8,8.35,16.72,10.68,25.95c-0.36,0.5-0.75,0.99-1.17,1.47
			c-2.16,2.43-4.67,4.59-6.88,6.99c-3.71,4.02-2.86,5.69,0.18,8.47c2.3,2.1,4.82,4,7.18,6.05
			C518.15,297.56,519.37,298.95,520.32,300.44z"/>
		<path d="M508.64,335.57c-0.89,4.33-3.7,7.46-7,10.39c-0.4,0.36-0.8,0.73-1.19,1.12c-1.14,1.09-2.22,2.25-3.3,3.41
			c-1.33,1.42-1.14,2.18,0.39,3.36c0.95,0.73,1.93,1.44,2.9,2.15c0.2,0.15,0.41,0.3,0.61,0.45c-3.35,4.55-7.07,8.8-11.14,12.7
			l-0.01,0.01c-1.06,1.03-2.15,2.03-3.26,3c-0.03-0.03-0.07-0.06-0.1-0.09c-0.61-0.54-1.27-1.04-1.93-1.53
			c-6.44-4.74-9.61-10.83-9.26-18.29c0.24-5.28,3.01-10.18,7.31-13.69c2.45-2.01,4.72-4.2,7.04-6.33c1.99-1.83,1.71-2.19,0.34-4.18
			c-1.04-1.5-2.51-2.84-4.04-3.96c-4.4-3.22-7.03-7.37-7.74-12.42c-0.85-5.99,1.15-11.21,5.97-15.41c2.36-2.05,4.88-3.95,7.18-6.05
			c3.04-2.78,3.89-4.45,0.18-8.47c-2.21-2.4-4.72-4.56-6.88-6.99c-5.86-6.6-4.9-15.34,1.83-21.28c1.86-1.64,3.9-3.11,5.91-4.6
			c5.51-4.1,5.46-8.94,1.25-13.54c-1.91-2.09-4.12-3.95-6.11-5.98c-2.74-2.8-3.99-5.81-3.96-8.76c5.73,4.64,10.93,9.91,15.5,15.71
			c1.55,1.97,3.03,3.98,4.44,6.07v0.02c0.08,1.9-0.25,3.82-0.99,5.68c-0.49,1.23-1.25,2.3-2.14,3.3c-0.78,0.9-1.67,1.74-2.53,2.59
			c-1.85,1.84-3.81,3.61-5.42,5.61c-2.98,3.71-2.55,7.14,1.19,10.21c2.16,1.77,4.59,3.24,6.76,4.99h0.01
			c4.12,3.35,5.91,7.65,5.88,12.68c-0.04,4.95-2.46,8.9-5.88,12.43c-0.11,0.12-0.23,0.24-0.35,0.36c-1.81,1.81-3.8,3.48-5.62,5.29
			c-0.52,0.51-0.82,1.25-1.06,1.94c-0.25,0.74-0.28,1.49,0.44,2.13c2.21,1.97,4.38,3.98,6.59,5.94c0.46,0.41,0.92,0.82,1.38,1.22
			c2.57,2.24,4.91,4.6,6.05,7.76C509.17,328.13,509.43,331.79,508.64,335.57z"/>
		<path d="M520.32,294.94c-2.18-3.34-2.97-7.14-2.38-11.32c0.18-1.23,0.46-2.41,0.87-3.54
			C519.68,284.92,520.19,289.88,520.32,294.94z"/>
	</g>
	<path class="st3" d="M323.43,280.37c-0.82,4.68-1.32,9.47-1.46,14.35"/>
	<path class="st4" d="M410.24,199.03c-7.73,0.84-15.18,2.57-22.27,5.09c-5.99,2.12-11.71,4.8-17.11,7.99
		c-2.49,1.45-4.9,3.02-7.24,4.7c1.35,1.06,2.78,2.05,4.29,2.99c2.06,1.28,1.93,1.32-0.42,3.41c-0.62,0.54-1.27,1.05-1.94,1.54
		c-6.44,4.73-9.6,10.83-9.26,18.28c0.24,5.28,3.02,10.18,7.32,13.7c2.45,2,4.71,4.19,7.04,6.33c1.98,1.82,1.71,2.18,0.33,4.17
		c-1.03,1.51-2.51,2.84-4.03,3.96c-4.4,3.22-7.04,7.38-7.75,12.43c-0.84,5.99,1.15,11.21,5.97,15.4c2.36,2.05,4.88,3.95,7.18,6.05
		c3.05,2.78,3.89,4.46,0.18,8.48c-2.21,2.39-4.71,4.56-6.87,6.99c-5.86,6.59-4.91,15.33,1.83,21.27c1.85,1.64,3.89,3.11,5.9,4.61
		c5.51,4.1,5.46,8.94,1.26,13.53c-1.92,2.09-4.12,3.95-6.11,5.99c-4.54,4.63-4.99,9.84-2.31,14.34c2.86,1.91,5.83,3.67,8.89,5.27
		c-2.01-1.83-4.08-3.61-5.32-6.03c-2-3.89-1.18-7.73,1.88-10.51c2.27-2.08,4.75-3.97,7.23-5.84c0.94-0.71,1.77-1.49,2.48-2.33
		c0.71,0.84,1.54,1.62,2.48,2.33c2.48,1.87,4.96,3.76,7.23,5.84c3.05,2.78,3.88,6.62,1.88,10.51c-1.27,2.47-3.4,4.28-5.45,6.15
		c-1.36,1.24-2.75,2.46-3.89,3.84c0.59,0.25,1.19,0.49,1.8,0.72c0.45-0.46,0.94-0.89,1.47-1.29c2.07-1.59,4.3-3.01,6.26-4.7
		c5.95-5.16,7.02-12.23,1.07-18.3c-1.99-2.04-4.2-3.9-6.11-5.99c-4.2-4.59-4.25-9.43,1.26-13.53c2-1.5,4.04-2.97,5.9-4.61
		c6.73-5.94,7.69-14.68,1.83-21.27c-2.16-2.43-4.67-4.6-6.87-6.99c-2.59-2.81-2.96-4.47-1.92-6.17c0.15-0.24,0.33-0.49,0.54-0.74
		c0.07-0.08,0.14-0.16,0.22-0.25c0.07-0.09,0.15-0.17,0.24-0.25c0.08-0.09,0.17-0.18,0.25-0.26c0.26-0.27,0.54-0.53,0.84-0.81
		c0.11-0.1,0.23-0.2,0.34-0.29c0.47-0.44,0.94-0.85,1.43-1.25c0.59-0.51,1.2-1.01,1.81-1.5c1.21-1,2.43-1.99,3.61-3.01
		c4.82-4.19,6.81-9.41,5.97-15.4c-0.72-5.05-3.35-9.21-7.75-12.43c-1.53-1.12-3-2.45-4.04-3.96c-1.37-1.99-1.64-2.35,0.34-4.17
		c1.74-1.6,3.45-3.23,5.22-4.79c0.6-0.52,1.2-1.04,1.82-1.54c0.54-0.44,1.05-0.9,1.54-1.38c3.13-3.09,5.21-6.99,5.69-11.18
		c0.04-0.38,0.07-0.76,0.09-1.14c0.03-0.7,0.03-1.39,0.01-2.07c-0.03-0.64-0.09-1.26-0.17-1.87c-0.05-0.31-0.09-0.62-0.15-0.92
		c-0.15-0.81-0.35-1.61-0.59-2.38c-0.12-0.39-0.26-0.77-0.4-1.15c-0.15-0.38-0.31-0.75-0.48-1.12s-0.35-0.73-0.55-1.09
		c-0.16-0.3-0.33-0.6-0.51-0.89c-0.07-0.14-0.16-0.27-0.26-0.41c-0.14-0.22-0.29-0.44-0.44-0.66c-0.07-0.11-0.15-0.21-0.23-0.32
		c-0.17-0.24-0.35-0.47-0.54-0.7c-0.06-0.08-0.12-0.16-0.19-0.24c-0.21-0.26-0.42-0.51-0.65-0.76c-0.05-0.07-0.11-0.13-0.18-0.19
		c-0.19-0.23-0.4-0.44-0.62-0.66c-0.11-0.12-0.23-0.23-0.34-0.34c-0.23-0.23-0.48-0.46-0.73-0.69c-0.04-0.04-0.08-0.07-0.12-0.11
		c-0.33-0.29-0.66-0.57-1.01-0.85c-0.36-0.29-0.73-0.58-1.11-0.86c-0.67-0.49-1.33-1-1.94-1.54c-0.28-0.25-0.52-0.46-0.74-0.66
		c-0.42-0.37-0.72-0.66-0.9-0.9c-0.05-0.06-0.09-0.12-0.12-0.17c-0.04-0.06-0.06-0.11-0.08-0.17c-0.18-0.49,0.3-0.82,1.41-1.51
		c7.28-4.53,12.85-10.28,15.13-18.29c0.03-0.12,0.07-0.24,0.09-0.37c0.03-0.11,0.05-0.21,0.07-0.33c0.02-0.08,0.03-0.17,0.05-0.26
		c0.03-0.16,0.05-0.33,0.07-0.49c0.03-0.17,0.05-0.33,0.07-0.5c0-0.04,0.01-0.07,0.01-0.11
		C410.35,199.3,410.31,199.16,410.24,199.03z M384.29,241.44c1.53,1.18,1.72,1.93,0.39,3.36c-1.07,1.15-2.15,2.31-3.29,3.41
		c-1.14-1.1-2.22-2.26-3.29-3.41c-1.33-1.43-1.14-2.18,0.39-3.36c0.95-0.73,1.93-1.44,2.9-2.15
		C382.36,240,383.34,240.71,384.29,241.44z M388.15,325.5c3.75,3.08,4.18,6.51,1.2,10.21c-1.61,2.01-3.58,3.77-5.43,5.61
		c-0.86,0.86-1.75,1.7-2.53,2.61c-0.78-0.91-1.67-1.75-2.53-2.61c-1.85-1.84-3.82-3.6-5.43-5.61c-2.98-3.7-2.55-7.13,1.2-10.21
		c2.15-1.77,4.6-3.23,6.76-4.99C383.55,322.27,386,323.73,388.15,325.5z M388.41,287.82c-0.24,0.68-0.54,1.43-1.05,1.94
		c-1.83,1.81-3.82,3.47-5.63,5.29c-0.12,0.12-0.24,0.24-0.34,0.36c-0.11-0.12-0.23-0.24-0.35-0.36c-1.8-1.82-3.79-3.48-5.62-5.29
		c-0.51-0.51-0.81-1.26-1.05-1.94c-0.26-0.74-0.29-1.49,0.44-2.14c2.2-1.96,4.37-3.98,6.58-5.94c2.21,1.96,4.37,3.98,6.58,5.94
		C388.69,286.33,388.67,287.08,388.41,287.82z"/>
	<path class="st3" d="M374.65,359.95c-1.92,2.09-4.12,3.95-6.11,5.99c-4.54,4.63-4.99,9.84-2.31,14.34
		c-3.74-2.48-7.29-5.21-10.64-8.17l-0.01-0.01c-1.16-1.01-2.29-2.06-3.4-3.13c-4.01-3.88-7.69-8.09-10.99-12.59
		c-0.4-0.53-0.78-1.06-1.15-1.6c-0.02,0-0.01-0.01-0.01-0.01c-0.8-1.11-1.56-2.24-2.3-3.39c-3.48-5.4-6.46-11.16-8.86-17.21
		c-1.53-3.88-2.83-7.87-3.88-11.97c-1.79-7.05-2.83-14.4-3.03-21.96c-0.02-0.86-0.03-1.73-0.03-2.6c0-0.98,0.01-1.95,0.04-2.92
		c0.14-4.88,0.64-9.67,1.46-14.35c0.41-2.34,0.9-4.66,1.48-6.94c2.37-9.46,6.1-18.38,10.98-26.54c0.54-0.93,1.11-1.85,1.7-2.76
		c0-0.01,0-0.01,0-0.01c0.33-0.5,0.65-1,0.99-1.49c1.42-2.14,2.92-4.22,4.5-6.23c4.55-5.79,9.73-11.06,15.44-15.7
		c1.66-1.36,3.36-2.66,5.1-3.89c1.35,1.06,2.78,2.05,4.29,2.99c2.06,1.28,1.93,1.32-0.42,3.41c-0.62,0.54-1.27,1.05-1.94,1.54
		c-6.44,4.73-9.6,10.83-9.26,18.28c0.24,5.28,3.02,10.18,7.32,13.7c2.45,2,4.71,4.19,7.04,6.33c1.98,1.82,1.71,2.18,0.33,4.17
		c-1.03,1.51-2.51,2.84-4.03,3.96c-4.4,3.22-7.04,7.38-7.75,12.43c-0.84,5.99,1.15,11.21,5.97,15.4c2.36,2.05,4.88,3.95,7.18,6.05
		c3.05,2.78,3.89,4.46,0.18,8.48c-2.21,2.39-4.71,4.56-6.87,6.99c-5.86,6.59-4.91,15.33,1.83,21.27c1.85,1.64,3.89,3.11,5.9,4.61
		C378.9,350.52,378.85,355.36,374.65,359.95z"/>
	<path class="st3" d="M384.68,244.8c-1.07,1.15-2.15,2.31-3.29,3.41c-1.14-1.1-2.22-2.26-3.29-3.41c-1.33-1.43-1.14-2.18,0.39-3.36
		c0.95-0.73,1.93-1.44,2.9-2.15c0.97,0.71,1.95,1.42,2.9,2.15C385.82,242.62,386.01,243.37,384.68,244.8z"/>
	<path class="st3" d="M388.41,287.82c-0.24,0.68-0.54,1.43-1.05,1.94c-1.83,1.81-3.82,3.47-5.63,5.29
		c-0.12,0.12-0.24,0.24-0.34,0.36c-0.11-0.12-0.23-0.24-0.35-0.36c-1.8-1.82-3.79-3.48-5.62-5.29c-0.51-0.51-0.81-1.26-1.05-1.94
		c-0.26-0.74-0.29-1.49,0.44-2.14c2.2-1.96,4.37-3.98,6.58-5.94c2.21,1.96,4.37,3.98,6.58,5.94
		C388.69,286.33,388.67,287.08,388.41,287.82z"/>
	<path class="st3" d="M389.35,335.71c-1.61,2.01-3.58,3.77-5.43,5.61c-0.86,0.86-1.75,1.7-2.53,2.61c-0.78-0.91-1.67-1.75-2.53-2.61
		c-1.85-1.84-3.82-3.6-5.43-5.61c-2.98-3.7-2.55-7.13,1.2-10.21c2.15-1.77,4.6-3.23,6.76-4.99c2.16,1.76,4.61,3.22,6.76,4.99
		C391.9,328.58,392.33,332.01,389.35,335.71z"/>
	<path class="st3" d="M392.98,379.52c-1.27,2.47-3.4,4.28-5.45,6.15c-1.36,1.24-2.75,2.46-3.89,3.84c-2.91-1.18-5.76-2.5-8.52-3.96
		c-2.01-1.83-4.08-3.61-5.32-6.03c-2-3.89-1.18-7.73,1.88-10.51c2.27-2.08,4.75-3.97,7.23-5.84c0.94-0.71,1.77-1.49,2.48-2.33
		c0.71,0.84,1.54,1.62,2.48,2.33c2.48,1.87,4.96,3.76,7.23,5.84C394.15,371.79,394.98,375.63,392.98,379.52z"/>
	<path class="st3" d="M520.36,297.64c0,0.94-0.01,1.87-0.04,2.8c-0.2,7.43-1.23,14.65-2.98,21.58c-1.06,4.19-2.38,8.28-3.96,12.24
		c-2.41,6.07-5.4,11.84-8.9,17.25c-0.66,1.02-1.34,2.01-2.03,3v0.01c-0.46,0.65-0.92,1.29-1.4,1.93c-3.35,4.55-7.07,8.8-11.14,12.7
		l-0.01,0.01c-1.06,1.03-2.15,2.03-3.26,3c-3.41,3-7.01,5.77-10.81,8.26c0,0.01-0.01,0.01-0.01,0.01c-2.88,1.92-5.86,3.67-8.94,5.26
		c-0.01,0-0.01,0.01-0.02,0.01c0,0.01-0.01,0.01-0.01,0.01c-2.7,1.41-5.47,2.7-8.31,3.84c-0.59,0.25-1.19,0.49-1.79,0.71
		c-2.42,0.94-4.88,1.78-7.39,2.51c-8.43,2.51-17.32,3.91-26.52,4.06c0,0.01-0.01,0.01-0.02,0.01s-0.02,0-0.02,0h-0.03
		c-0.04,0-0.08,0-0.13-0.01c-0.01,0.01-0.03,0-0.05,0c-0.08,0-0.15,0.01-0.23,0c-0.4,0.02-0.82,0.02-1.22,0.02
		c-0.35,0-0.69,0-1.04-0.02c-0.07,0.01-0.15,0-0.22,0h-0.15c-9.35-0.12-18.38-1.54-26.93-4.09c-2.5-0.74-4.95-1.58-7.36-2.51
		c0.45-0.46,0.94-0.89,1.47-1.29c2.07-1.59,4.3-3.01,6.26-4.7c5.95-5.16,7.02-12.23,1.07-18.3c-1.99-2.04-4.2-3.9-6.11-5.99
		c-4.2-4.59-4.25-9.43,1.26-13.53c2-1.5,4.04-2.97,5.9-4.61c6.73-5.94,7.69-14.68,1.83-21.27c-2.16-2.43-4.67-4.6-6.87-6.99
		c-2.59-2.81-2.96-4.47-1.92-6.17c0.15-0.24,0.33-0.49,0.54-0.74c0.07-0.08,0.14-0.16,0.22-0.25c0.07-0.09,0.15-0.17,0.24-0.25
		c0.08-0.09,0.17-0.18,0.25-0.26c0.26-0.27,0.54-0.53,0.84-0.81c0.11-0.1,0.23-0.2,0.34-0.29c0.47-0.44,0.94-0.85,1.43-1.25
		c0.6-0.51,1.2-1.01,1.81-1.5c1.21-1,2.43-1.99,3.61-3.01c4.82-4.19,6.81-9.41,5.97-15.4c-0.72-5.05-3.35-9.21-7.75-12.43
		c-1.53-1.12-3-2.45-4.04-3.96c-1.37-1.99-1.64-2.35,0.34-4.17c1.74-1.6,3.45-3.23,5.22-4.79c0.6-0.52,1.2-1.04,1.82-1.54
		c0.54-0.44,1.05-0.9,1.54-1.38c3.13-3.09,5.21-6.99,5.69-11.18c0.04-0.38,0.07-0.76,0.09-1.14c0.03-0.7,0.03-1.39,0.01-2.07
		c-0.03-0.64-0.09-1.26-0.17-1.87c-0.05-0.31-0.09-0.62-0.15-0.92c-0.15-0.81-0.35-1.61-0.59-2.38c-0.12-0.39-0.26-0.77-0.4-1.15
		c-0.15-0.38-0.31-0.75-0.48-1.12s-0.35-0.73-0.55-1.09c-0.16-0.3-0.33-0.6-0.51-0.89c-0.07-0.14-0.16-0.27-0.26-0.41
		c-0.14-0.22-0.29-0.44-0.44-0.66c-0.07-0.11-0.15-0.21-0.23-0.32c-0.17-0.24-0.35-0.47-0.54-0.7c-0.06-0.08-0.12-0.16-0.19-0.24
		c-0.21-0.26-0.42-0.51-0.65-0.76c-0.05-0.07-0.11-0.13-0.18-0.19c-0.19-0.23-0.4-0.44-0.62-0.66c-0.11-0.12-0.23-0.23-0.34-0.34
		c-0.23-0.23-0.48-0.46-0.73-0.69c-0.04-0.04-0.08-0.07-0.12-0.11c-0.33-0.29-0.66-0.57-1.01-0.85c-0.36-0.29-0.73-0.58-1.11-0.86
		c-0.67-0.49-1.33-1-1.94-1.54c-0.28-0.25-0.52-0.46-0.74-0.66c-0.42-0.37-0.72-0.66-0.9-0.9c-0.05-0.06-0.09-0.12-0.12-0.17
		c-0.04-0.06-0.06-0.11-0.08-0.17c-0.18-0.49,0.3-0.82,1.41-1.51c7.28-4.53,12.85-10.28,15.13-18.29c0.03-0.12,0.07-0.24,0.09-0.37
		c0.03-0.11,0.05-0.21,0.07-0.33c0.02-0.08,0.03-0.17,0.05-0.26c0.03-0.16,0.05-0.33,0.07-0.49c0.03-0.17,0.05-0.33,0.07-0.5
		c0-0.04,0.01-0.07,0.01-0.11c0-0.15-0.04-0.29-0.11-0.42c0.05-0.01,0.1-0.02,0.16-0.02c3.49-0.38,7.03-0.58,10.62-0.58h0.12
		c3.64,0,7.24,0.2,10.78,0.58c7.73,0.83,15.18,2.56,22.27,5.07h0.01c5.97,2.1,11.68,4.77,17.06,7.93c2.52,1.47,4.97,3.06,7.34,4.74
		c1.72,1.23,3.4,2.5,5.03,3.84c5.73,4.64,10.93,9.91,15.5,15.71c1.55,1.97,3.03,3.98,4.44,6.07v0.02c0.29,0.44,0.58,0.88,0.86,1.32
		c0.78,1.19,1.53,2.4,2.24,3.62c4.72,8,8.35,16.72,10.68,25.95c0.56,2.23,1.05,4.49,1.46,6.78v0.01c0,0,0,0,0,0.01
		c0.87,4.84,1.38,9.8,1.51,14.86v0.01C520.35,295.84,520.36,296.74,520.36,297.64z"/>
</g>
<g id="Layer_1_00000092436412269471228120000017257013529951470980_" class="st0">
	<g class="st1">
		<g>
			<g>
				<path class="st5" d="M442.17,97.19c-0.78,7.89-2.5,15.4-5.33,22.47c-3.03,7.58-7.25,12.78-11.09,18.74
					c-1.44,2.25-1.87,3.84-1.16,6.13c-11.14-11.53-18.65-26.78-19.09-36.26c1.43-3.32,3.13-6.43,5.08-9.32
					c0.77-1.15,1.55-2.34,2.27-3.63c0.46-0.82,0.84-1.51,1.16-2.1c1.23-2.31,3.63-3.75,6.24-3.75h14.86
					C439.28,89.48,442.59,93.06,442.17,97.19z"/>
				<path class="st6" d="M437.88,207.74c-0.77,4.37-2.04,8.11-3.57,11.51c-4.11-8.82-10.42-18.25-16.24-26.25c0,0,0,0,0-0.01
					c-0.23-0.95-0.72-2.01-1.51-3.47c-2.72-5.05-5.39-10.22-8.26-14.96c-5.04-8.31-8.3-19.89-8.58-32.38
					c-0.3-13.07,1.67-24.36,5.79-33.9c0.44,9.49,7.95,24.74,19.09,36.26c0.16,0.56,0.4,1.16,0.71,1.82c1.7,3.67,3.4,7.35,5.28,10.7
					c3.86,6.93,7.15,14.33,8.21,24.56C439.7,190.55,439.41,199.19,437.88,207.74z"/>
				<path class="st5" d="M434.31,219.24c-1.07,2.4-2.28,4.65-3.53,6.84c-3.17,5.53-6.21,11.31-9.34,16.92
					c-0.59,1.03-0.76,2.2-0.71,3.38c-5.66-6.6-11.82-15.2-14.84-24.01v-0.01c1.53-5.12,3.65-9.66,6.32-13.61
					c1.8-2.64,3.53-5.8,4.74-9.35c1.07-3.11,1.57-4.54,1.11-6.4C423.89,200.99,430.2,210.42,434.31,219.24z"/>
				<path class="st6" d="M436.07,295.37c0.02,5.48-0.42,10.61-1.38,15.31c-4.56-9.26-10.59-14.49-14.94-19.53
					c-0.35-0.74-0.75-1.5-1.18-2.31c-2.7-4.97-5.65-9.46-8.43-14.31c-5.65-9.93-8-22.26-7-36.42c0.4-5.75,1.33-11,2.76-15.75
					c3.02,8.81,9.18,17.42,14.84,24.01c0.02,0.56,0.09,1.11,0.19,1.67c0.28,1.62,0.63,3.38,1.23,4.59c2.15,4.27,4.48,8.21,6.6,12.5
					C432.99,273.69,436.02,283.27,436.07,295.37z"/>
				<path class="st5" d="M434.69,310.68L434.69,310.68c-1.11,5.49-2.92,10.39-5.52,14.65c-2.53,4.15-5.4,7.62-7.93,11.79
					c-4.4,7.27-4.91,15.38-1.41,24.13c1.13,2.82,2.4,5.45,3.71,8.03c-4.7-6.31-12.32-17.47-16.72-30.05
					c0.71-4.84,1.99-9.55,3.89-13.86c2.53-5.74,5.47-10.86,8.07-16.51c3.82-8.35,3.52-12.42,0.97-17.73
					C424.1,296.19,430.13,301.42,434.69,310.68z"/>
				<path class="st6" d="M431.82,411.62c-2.39-5.54-5.28-11.2-8.04-16.27c0-0.02-0.01-0.04-0.02-0.06
					c-0.82-3.01-2.12-5.95-3.98-8.72c-2.34-3.53-4.74-7-6.93-10.88c-5.71-10.15-7.88-23.78-6.04-36.44
					c4.4,12.58,12.02,23.74,16.72,30.05c0.01,0.01,0.02,0.02,0.02,0.03c0.88,1.75,1.77,3.46,2.64,5.21
					c2.13,4.24,4.38,8.42,5.47,13.93C433.18,396.11,433.24,404.26,431.82,411.62z"/>
				<path class="st5" d="M428.86,496.33c0.56,3.04,0.93,6.16,0.38,9.46c-0.4-0.71-0.61-1.49-0.75-2.32
					c-1.09-6.48-2.97-12.02-5.79-16.38c-2.43-3.76-5.06-7.1-7.35-11.12c-6.97-12.18-8.24-28.91-1.26-43.26
					c2.33-4.8,4.93-9.2,7.17-14.15c3.51-7.72,4.55-15.74,2.52-23.21c2.76,5.08,5.64,10.73,8.04,16.27
					c-1.03,5.46-2.89,10.49-5.56,14.55c-2.91,4.42-5.81,8.89-8.48,13.79c-3.58,6.59-4.55,15.68-2.2,24.87
					c1.49,5.83,3.98,10.1,6.39,14.53C424.7,484.4,427.55,489.3,428.86,496.33z"/>
			</g>
		</g>
		<g class="st7">
			<g>
				<path class="st8" d="M442.17,97.19c-0.78,7.89-2.5,15.4-5.33,22.47c-3.03,7.58-7.25,12.78-11.09,18.74
					c-1.44,2.25-1.87,3.84-1.16,6.13c-11.14-11.53-18.65-26.78-19.09-36.26c1.43-3.32,3.13-6.43,5.08-9.32
					c0.77-1.15,1.55-2.34,2.27-3.63c0.46-0.82,0.84-1.51,1.16-2.1c1.23-2.31,3.63-3.75,6.24-3.75h14.86
					C439.28,89.48,442.59,93.06,442.17,97.19z"/>
				<path class="st8" d="M437.88,207.74c-0.77,4.37-2.04,8.11-3.57,11.51c-4.11-8.82-10.42-18.25-16.24-26.25c0,0,0,0,0-0.01
					c-0.23-0.95-0.72-2.01-1.51-3.47c-2.72-5.05-5.39-10.22-8.26-14.96c-5.04-8.31-8.3-19.89-8.58-32.38
					c-0.3-13.07,1.67-24.36,5.79-33.9c0.44,9.49,7.95,24.74,19.09,36.26c0.16,0.56,0.4,1.16,0.71,1.82c1.7,3.67,3.4,7.35,5.28,10.7
					c3.86,6.93,7.15,14.33,8.21,24.56C439.7,190.55,439.41,199.19,437.88,207.74z"/>
				<path class="st8" d="M434.31,219.24c-1.07,2.4-2.28,4.65-3.53,6.84c-3.17,5.53-6.21,11.31-9.34,16.92
					c-0.59,1.03-0.76,2.2-0.71,3.38c-5.66-6.6-11.82-15.2-14.84-24.01v-0.01c1.53-5.12,3.65-9.66,6.32-13.61
					c1.8-2.64,3.53-5.8,4.74-9.35c1.07-3.11,1.57-4.54,1.11-6.4C423.89,200.99,430.2,210.42,434.31,219.24z"/>
				<path class="st8" d="M436.07,295.37c0.02,5.48-0.42,10.61-1.38,15.31c-4.56-9.26-10.59-14.49-14.94-19.53
					c-0.35-0.74-0.75-1.5-1.18-2.31c-2.7-4.97-5.65-9.46-8.43-14.31c-5.65-9.93-8-22.26-7-36.42c0.4-5.75,1.33-11,2.76-15.75
					c3.02,8.81,9.18,17.42,14.84,24.01c0.02,0.56,0.09,1.11,0.19,1.67c0.28,1.62,0.63,3.38,1.23,4.59c2.15,4.27,4.48,8.21,6.6,12.5
					C432.99,273.69,436.02,283.27,436.07,295.37z"/>
				<path class="st8" d="M434.69,310.68L434.69,310.68c-1.11,5.49-2.92,10.39-5.52,14.65c-2.53,4.15-5.4,7.62-7.93,11.79
					c-4.4,7.27-4.91,15.38-1.41,24.13c1.13,2.82,2.4,5.45,3.71,8.03c-4.7-6.31-12.32-17.47-16.72-30.05
					c0.71-4.84,1.99-9.55,3.89-13.86c2.53-5.74,5.47-10.86,8.07-16.51c3.82-8.35,3.52-12.42,0.97-17.73
					C424.1,296.19,430.13,301.42,434.69,310.68z"/>
				<path class="st8" d="M431.82,411.62c-2.39-5.54-5.28-11.2-8.04-16.27c0-0.02-0.01-0.04-0.02-0.06
					c-0.82-3.01-2.12-5.95-3.98-8.72c-2.34-3.53-4.74-7-6.93-10.88c-5.71-10.15-7.88-23.78-6.04-36.44
					c4.4,12.58,12.02,23.74,16.72,30.05c0.01,0.01,0.02,0.02,0.02,0.03c0.88,1.75,1.77,3.46,2.64,5.21
					c2.13,4.24,4.38,8.42,5.47,13.93C433.18,396.11,433.24,404.26,431.82,411.62z"/>
				<path class="st8" d="M428.86,496.33c0.56,3.04,0.93,6.16,0.38,9.46c-0.4-0.71-0.61-1.49-0.75-2.32
					c-1.09-6.48-2.97-12.02-5.79-16.38c-2.43-3.76-5.06-7.1-7.35-11.12c-6.97-12.18-8.24-28.91-1.26-43.26
					c2.33-4.8,4.93-9.2,7.17-14.15c3.51-7.72,4.55-15.74,2.52-23.21c2.76,5.08,5.64,10.73,8.04,16.27
					c-1.03,5.46-2.89,10.49-5.56,14.55c-2.91,4.42-5.81,8.89-8.48,13.79c-3.58,6.59-4.55,15.68-2.2,24.87
					c1.49,5.83,3.98,10.1,6.39,14.53C424.7,484.4,427.55,489.3,428.86,496.33z"/>
			</g>
		</g>
	</g>
	<g class="st1">
		<g>
			<g>
				<path class="st5" d="M484.69,97.19c-0.78,7.89-2.5,15.4-5.33,22.47c-3.03,7.58-7.25,12.78-11.09,18.74
					c-1.44,2.25-1.87,3.84-1.16,6.13c-11.14-11.53-18.65-26.78-19.09-36.26c1.43-3.32,3.13-6.43,5.08-9.32
					c0.77-1.15,1.55-2.34,2.27-3.63c0.46-0.82,0.84-1.51,1.16-2.1c1.23-2.31,3.63-3.75,6.24-3.75h14.86
					C481.8,89.48,485.11,93.06,484.69,97.19z"/>
				<path class="st6" d="M480.4,207.74c-0.77,4.37-2.04,8.11-3.57,11.51c-4.11-8.82-10.42-18.25-16.24-26.25c0,0,0,0,0-0.01
					c-0.23-0.95-0.72-2.01-1.51-3.47c-2.72-5.05-5.39-10.22-8.26-14.96c-5.04-8.31-8.3-19.89-8.58-32.38
					c-0.3-13.07,1.67-24.36,5.79-33.9c0.44,9.49,7.95,24.74,19.09,36.26c0.16,0.56,0.4,1.16,0.71,1.82c1.7,3.67,3.4,7.35,5.28,10.7
					c3.86,6.93,7.15,14.33,8.21,24.56C482.21,190.55,481.93,199.19,480.4,207.74z"/>
				<path class="st5" d="M476.83,219.24c-1.07,2.4-2.28,4.65-3.53,6.84c-3.17,5.53-6.21,11.31-9.34,16.92
					c-0.59,1.03-0.76,2.2-0.71,3.38c-5.66-6.6-11.82-15.2-14.84-24.01v-0.01c1.53-5.12,3.65-9.66,6.32-13.61
					c1.8-2.64,3.53-5.8,4.74-9.35c1.07-3.11,1.57-4.54,1.11-6.4C466.41,200.99,472.72,210.42,476.83,219.24z"/>
				<path class="st6" d="M478.59,295.37c0.02,5.48-0.42,10.61-1.38,15.31c-4.56-9.26-10.59-14.49-14.94-19.53
					c-0.35-0.74-0.75-1.5-1.18-2.31c-2.7-4.97-5.65-9.46-8.43-14.31c-5.65-9.93-8-22.26-7-36.42c0.4-5.75,1.33-11,2.76-15.75
					c3.02,8.81,9.18,17.42,14.84,24.01c0.02,0.56,0.09,1.11,0.19,1.67c0.28,1.62,0.63,3.38,1.23,4.59c2.15,4.27,4.48,8.21,6.6,12.5
					C475.51,273.69,478.54,283.27,478.59,295.37z"/>
				<path class="st5" d="M477.21,310.68L477.21,310.68c-1.11,5.49-2.92,10.39-5.52,14.65c-2.53,4.15-5.4,7.62-7.93,11.79
					c-4.4,7.27-4.91,15.38-1.41,24.13c1.13,2.82,2.4,5.45,3.71,8.03c-4.7-6.31-12.32-17.47-16.72-30.05
					c0.71-4.84,1.99-9.55,3.89-13.86c2.53-5.74,5.47-10.86,8.07-16.51c3.82-8.35,3.52-12.42,0.97-17.73
					C466.62,296.19,472.65,301.42,477.21,310.68z"/>
				<path class="st6" d="M474.34,411.62c-2.39-5.54-5.28-11.2-8.04-16.27c0-0.02-0.01-0.04-0.02-0.06
					c-0.82-3.01-2.12-5.95-3.98-8.72c-2.34-3.53-4.74-7-6.93-10.88c-5.71-10.15-7.88-23.78-6.04-36.44
					c4.4,12.58,12.02,23.74,16.72,30.05c0.01,0.01,0.02,0.02,0.02,0.03c0.88,1.75,1.77,3.46,2.64,5.21
					c2.13,4.24,4.38,8.42,5.47,13.93C475.7,396.11,475.76,404.26,474.34,411.62z"/>
				<path class="st5" d="M471.38,496.33c0.56,3.04,0.93,6.16,0.38,9.46c-0.4-0.71-0.61-1.49-0.75-2.32
					c-1.09-6.48-2.97-12.02-5.79-16.38c-2.43-3.76-5.06-7.1-7.35-11.12c-6.97-12.18-8.24-28.91-1.26-43.26
					c2.33-4.8,4.93-9.2,7.17-14.15c3.51-7.72,4.55-15.74,2.52-23.21c2.76,5.08,5.64,10.73,8.04,16.27
					c-1.03,5.46-2.89,10.49-5.56,14.55c-2.91,4.42-5.81,8.89-8.48,13.79c-3.58,6.59-4.55,15.68-2.2,24.87
					c1.49,5.83,3.98,10.1,6.39,14.53C467.22,484.4,470.07,489.3,471.38,496.33z"/>
			</g>
		</g>
		<g class="st7">
			<g>
				<path class="st8" d="M484.69,97.19c-0.78,7.89-2.5,15.4-5.33,22.47c-3.03,7.58-7.25,12.78-11.09,18.74
					c-1.44,2.25-1.87,3.84-1.16,6.13c-11.14-11.53-18.65-26.78-19.09-36.26c1.43-3.32,3.13-6.43,5.08-9.32
					c0.77-1.15,1.55-2.34,2.27-3.63c0.46-0.82,0.84-1.51,1.16-2.1c1.23-2.31,3.63-3.75,6.24-3.75h14.86
					C481.8,89.48,485.11,93.06,484.69,97.19z"/>
				<path class="st8" d="M480.4,207.74c-0.77,4.37-2.04,8.11-3.57,11.51c-4.11-8.82-10.42-18.25-16.24-26.25c0,0,0,0,0-0.01
					c-0.23-0.95-0.72-2.01-1.51-3.47c-2.72-5.05-5.39-10.22-8.26-14.96c-5.04-8.31-8.3-19.89-8.58-32.38
					c-0.3-13.07,1.67-24.36,5.79-33.9c0.44,9.49,7.95,24.74,19.09,36.26c0.16,0.56,0.4,1.16,0.71,1.82c1.7,3.67,3.4,7.35,5.28,10.7
					c3.86,6.93,7.15,14.33,8.21,24.56C482.21,190.55,481.93,199.19,480.4,207.74z"/>
				<path class="st8" d="M476.83,219.24c-1.07,2.4-2.28,4.65-3.53,6.84c-3.17,5.53-6.21,11.31-9.34,16.92
					c-0.59,1.03-0.76,2.2-0.71,3.38c-5.66-6.6-11.82-15.2-14.84-24.01v-0.01c1.53-5.12,3.65-9.66,6.32-13.61
					c1.8-2.64,3.53-5.8,4.74-9.35c1.07-3.11,1.57-4.54,1.11-6.4C466.41,200.99,472.72,210.42,476.83,219.24z"/>
				<path class="st8" d="M478.59,295.37c0.02,5.48-0.42,10.61-1.38,15.31c-4.56-9.26-10.59-14.49-14.94-19.53
					c-0.35-0.74-0.75-1.5-1.18-2.31c-2.7-4.97-5.65-9.46-8.43-14.31c-5.65-9.93-8-22.26-7-36.42c0.4-5.75,1.33-11,2.76-15.75
					c3.02,8.81,9.18,17.42,14.84,24.01c0.02,0.56,0.09,1.11,0.19,1.67c0.28,1.62,0.63,3.38,1.23,4.59c2.15,4.27,4.48,8.21,6.6,12.5
					C475.51,273.69,478.54,283.27,478.59,295.37z"/>
				<path class="st8" d="M477.21,310.68L477.21,310.68c-1.11,5.49-2.92,10.39-5.52,14.65c-2.53,4.15-5.4,7.62-7.93,11.79
					c-4.4,7.27-4.91,15.38-1.41,24.13c1.13,2.82,2.4,5.45,3.71,8.03c-4.7-6.31-12.32-17.47-16.72-30.05
					c0.71-4.84,1.99-9.55,3.89-13.86c2.53-5.74,5.47-10.86,8.07-16.51c3.82-8.35,3.52-12.42,0.97-17.73
					C466.62,296.19,472.65,301.42,477.21,310.68z"/>
				<path class="st8" d="M474.34,411.62c-2.39-5.54-5.28-11.2-8.04-16.27c0-0.02-0.01-0.04-0.02-0.06
					c-0.82-3.01-2.12-5.95-3.98-8.72c-2.34-3.53-4.74-7-6.93-10.88c-5.71-10.15-7.88-23.78-6.04-36.44
					c4.4,12.58,12.02,23.74,16.72,30.05c0.01,0.01,0.02,0.02,0.02,0.03c0.88,1.75,1.77,3.46,2.64,5.21
					c2.13,4.24,4.38,8.42,5.47,13.93C475.7,396.11,475.76,404.26,474.34,411.62z"/>
				<path class="st8" d="M471.38,496.33c0.56,3.04,0.93,6.16,0.38,9.46c-0.4-0.71-0.61-1.49-0.75-2.32
					c-1.09-6.48-2.97-12.02-5.79-16.38c-2.43-3.76-5.06-7.1-7.35-11.12c-6.97-12.18-8.24-28.91-1.26-43.26
					c2.33-4.8,4.93-9.2,7.17-14.15c3.51-7.72,4.55-15.74,2.52-23.21c2.76,5.08,5.64,10.73,8.04,16.27
					c-1.03,5.46-2.89,10.49-5.56,14.55c-2.91,4.42-5.81,8.89-8.48,13.79c-3.58,6.59-4.55,15.68-2.2,24.87
					c1.49,5.83,3.98,10.1,6.39,14.53C467.22,484.4,470.07,489.3,471.38,496.33z"/>
			</g>
		</g>
	</g>
	<g class="st1">
		<g>
			<g>
				<path class="st5" d="M527.21,97.19c-0.78,7.89-2.5,15.4-5.33,22.47c-3.03,7.58-7.25,12.78-11.09,18.74
					c-1.44,2.25-1.87,3.84-1.16,6.13c-11.14-11.53-18.65-26.78-19.09-36.26c1.43-3.32,3.13-6.43,5.08-9.32
					c0.77-1.15,1.55-2.34,2.27-3.63c0.46-0.82,0.84-1.51,1.16-2.1c1.23-2.31,3.63-3.75,6.24-3.75h14.86
					C524.32,89.48,527.63,93.06,527.21,97.19z"/>
				<path class="st6" d="M522.92,207.74c-0.77,4.37-2.04,8.11-3.57,11.51c-4.11-8.82-10.42-18.25-16.24-26.25c0,0,0,0,0-0.01
					c-0.23-0.95-0.72-2.01-1.51-3.47c-2.72-5.05-5.39-10.22-8.26-14.96c-5.04-8.31-8.3-19.89-8.58-32.38
					c-0.3-13.07,1.67-24.36,5.79-33.9c0.44,9.49,7.95,24.74,19.09,36.26c0.16,0.56,0.4,1.16,0.71,1.82c1.7,3.67,3.4,7.35,5.28,10.7
					c3.86,6.93,7.15,14.33,8.21,24.56C524.73,190.55,524.45,199.19,522.92,207.74z"/>
				<path class="st5" d="M519.35,219.24c-1.07,2.4-2.28,4.65-3.53,6.84c-3.17,5.53-6.21,11.31-9.34,16.92
					c-0.59,1.03-0.76,2.2-0.71,3.38c-5.66-6.6-11.82-15.2-14.84-24.01v-0.01c1.53-5.12,3.65-9.66,6.32-13.61
					c1.8-2.64,3.53-5.8,4.74-9.35c1.07-3.11,1.57-4.54,1.11-6.4C508.93,200.99,515.24,210.42,519.35,219.24z"/>
				<path class="st6" d="M521.11,295.37c0.02,5.48-0.42,10.61-1.38,15.31c-4.56-9.26-10.59-14.49-14.94-19.53
					c-0.35-0.74-0.75-1.5-1.18-2.31c-2.7-4.97-5.65-9.46-8.43-14.31c-5.65-9.93-8-22.26-7-36.42c0.4-5.75,1.33-11,2.76-15.75
					c3.02,8.81,9.18,17.42,14.84,24.01c0.02,0.56,0.09,1.11,0.19,1.67c0.28,1.62,0.63,3.38,1.23,4.59c2.15,4.27,4.48,8.21,6.6,12.5
					C518.03,273.69,521.06,283.27,521.11,295.37z"/>
				<path class="st5" d="M519.73,310.68L519.73,310.68c-1.11,5.49-2.92,10.39-5.52,14.65c-2.53,4.15-5.4,7.62-7.93,11.79
					c-4.4,7.27-4.91,15.38-1.41,24.13c1.13,2.82,2.4,5.45,3.71,8.03c-4.7-6.31-12.32-17.47-16.72-30.05
					c0.71-4.84,1.99-9.55,3.89-13.86c2.53-5.74,5.47-10.86,8.07-16.51c3.82-8.35,3.52-12.42,0.97-17.73
					C509.14,296.19,515.17,301.42,519.73,310.68z"/>
				<path class="st6" d="M516.86,411.62c-2.39-5.54-5.28-11.2-8.04-16.27c0-0.02-0.01-0.04-0.02-0.06
					c-0.82-3.01-2.12-5.95-3.98-8.72c-2.34-3.53-4.74-7-6.93-10.88c-5.71-10.15-7.88-23.78-6.04-36.44
					c4.4,12.58,12.02,23.74,16.72,30.05c0.01,0.01,0.02,0.02,0.02,0.03c0.88,1.75,1.77,3.46,2.64,5.21
					c2.13,4.24,4.38,8.42,5.47,13.93C518.22,396.11,518.28,404.26,516.86,411.62z"/>
				<path class="st5" d="M513.89,496.33c0.56,3.04,0.93,6.16,0.38,9.46c-0.4-0.71-0.61-1.49-0.75-2.32
					c-1.09-6.48-2.97-12.02-5.79-16.38c-2.43-3.76-5.06-7.1-7.35-11.12c-6.97-12.18-8.24-28.91-1.26-43.26
					c2.33-4.8,4.93-9.2,7.17-14.15c3.51-7.72,4.55-15.74,2.52-23.21c2.76,5.08,5.64,10.73,8.04,16.27
					c-1.03,5.46-2.89,10.49-5.56,14.55c-2.91,4.42-5.81,8.89-8.48,13.79c-3.58,6.59-4.55,15.68-2.2,24.87
					c1.49,5.83,3.98,10.1,6.39,14.53C509.74,484.4,512.59,489.3,513.89,496.33z"/>
			</g>
		</g>
		<g class="st7">
			<g>
				<path class="st8" d="M527.21,97.19c-0.78,7.89-2.5,15.4-5.33,22.47c-3.03,7.58-7.25,12.78-11.09,18.74
					c-1.44,2.25-1.87,3.84-1.16,6.13c-11.14-11.53-18.65-26.78-19.09-36.26c1.43-3.32,3.13-6.43,5.08-9.32
					c0.77-1.15,1.55-2.34,2.27-3.63c0.46-0.82,0.84-1.51,1.16-2.1c1.23-2.31,3.63-3.75,6.24-3.75h14.86
					C524.32,89.48,527.63,93.06,527.21,97.19z"/>
				<path class="st8" d="M522.92,207.74c-0.77,4.37-2.04,8.11-3.57,11.51c-4.11-8.82-10.42-18.25-16.24-26.25c0,0,0,0,0-0.01
					c-0.23-0.95-0.72-2.01-1.51-3.47c-2.72-5.05-5.39-10.22-8.26-14.96c-5.04-8.31-8.3-19.89-8.58-32.38
					c-0.3-13.07,1.67-24.36,5.79-33.9c0.44,9.49,7.95,24.74,19.09,36.26c0.16,0.56,0.4,1.16,0.71,1.82c1.7,3.67,3.4,7.35,5.28,10.7
					c3.86,6.93,7.15,14.33,8.21,24.56C524.73,190.55,524.45,199.19,522.92,207.74z"/>
				<path class="st8" d="M519.35,219.24c-1.07,2.4-2.28,4.65-3.53,6.84c-3.17,5.53-6.21,11.31-9.34,16.92
					c-0.59,1.03-0.76,2.2-0.71,3.38c-5.66-6.6-11.82-15.2-14.84-24.01v-0.01c1.53-5.12,3.65-9.66,6.32-13.61
					c1.8-2.64,3.53-5.8,4.74-9.35c1.07-3.11,1.57-4.54,1.11-6.4C508.93,200.99,515.24,210.42,519.35,219.24z"/>
				<path class="st8" d="M521.11,295.37c0.02,5.48-0.42,10.61-1.38,15.31c-4.56-9.26-10.59-14.49-14.94-19.53
					c-0.35-0.74-0.75-1.5-1.18-2.31c-2.7-4.97-5.65-9.46-8.43-14.31c-5.65-9.93-8-22.26-7-36.42c0.4-5.75,1.33-11,2.76-15.75
					c3.02,8.81,9.18,17.42,14.84,24.01c0.02,0.56,0.09,1.11,0.19,1.67c0.28,1.62,0.63,3.38,1.23,4.59c2.15,4.27,4.48,8.21,6.6,12.5
					C518.03,273.69,521.06,283.27,521.11,295.37z"/>
				<path class="st8" d="M519.73,310.68L519.73,310.68c-1.11,5.49-2.92,10.39-5.52,14.65c-2.53,4.15-5.4,7.62-7.93,11.79
					c-4.4,7.27-4.91,15.38-1.41,24.13c1.13,2.82,2.4,5.45,3.71,8.03c-4.7-6.31-12.32-17.47-16.72-30.05
					c0.71-4.84,1.99-9.55,3.89-13.86c2.53-5.74,5.47-10.86,8.07-16.51c3.82-8.35,3.52-12.42,0.97-17.73
					C509.14,296.19,515.17,301.42,519.73,310.68z"/>
				<path class="st8" d="M516.86,411.62c-2.39-5.54-5.28-11.2-8.04-16.27c0-0.02-0.01-0.04-0.02-0.06
					c-0.82-3.01-2.12-5.95-3.98-8.72c-2.34-3.53-4.74-7-6.93-10.88c-5.71-10.15-7.88-23.78-6.04-36.44
					c4.4,12.58,12.02,23.74,16.72,30.05c0.01,0.01,0.02,0.02,0.02,0.03c0.88,1.75,1.77,3.46,2.64,5.21
					c2.13,4.24,4.38,8.42,5.47,13.93C518.22,396.11,518.28,404.26,516.86,411.62z"/>
				<path class="st8" d="M513.89,496.33c0.56,3.04,0.93,6.16,0.38,9.46c-0.4-0.71-0.61-1.49-0.75-2.32
					c-1.09-6.48-2.97-12.02-5.79-16.38c-2.43-3.76-5.06-7.1-7.35-11.12c-6.97-12.18-8.24-28.91-1.26-43.26
					c2.33-4.8,4.93-9.2,7.17-14.15c3.51-7.72,4.55-15.74,2.52-23.21c2.76,5.08,5.64,10.73,8.04,16.27
					c-1.03,5.46-2.89,10.49-5.56,14.55c-2.91,4.42-5.81,8.89-8.48,13.79c-3.58,6.59-4.55,15.68-2.2,24.87
					c1.49,5.83,3.98,10.1,6.39,14.53C509.74,484.4,512.59,489.3,513.89,496.33z"/>
			</g>
		</g>
	</g>
	<g class="st1">
		<g>
			<g>
				<path class="st5" d="M569.73,97.19c-0.78,7.89-2.5,15.4-5.33,22.47c-3.03,7.58-7.25,12.78-11.09,18.74
					c-1.44,2.25-1.87,3.84-1.16,6.13c-11.14-11.53-18.65-26.78-19.09-36.26c1.43-3.32,3.13-6.43,5.08-9.32
					c0.77-1.15,1.55-2.34,2.27-3.63c0.46-0.82,0.84-1.51,1.16-2.1c1.23-2.31,3.63-3.75,6.24-3.75h14.86
					C566.84,89.48,570.15,93.06,569.73,97.19z"/>
				<path class="st6" d="M565.44,207.74c-0.77,4.37-2.04,8.11-3.57,11.51c-4.11-8.82-10.42-18.25-16.24-26.25c0,0,0,0,0-0.01
					c-0.23-0.95-0.72-2.01-1.51-3.47c-2.72-5.05-5.39-10.22-8.26-14.96c-5.04-8.31-8.3-19.89-8.58-32.38
					c-0.3-13.07,1.67-24.36,5.79-33.9c0.44,9.49,7.95,24.74,19.09,36.26c0.16,0.56,0.4,1.16,0.71,1.82c1.7,3.67,3.4,7.35,5.28,10.7
					c3.86,6.93,7.15,14.33,8.21,24.56C567.25,190.55,566.97,199.19,565.44,207.74z"/>
				<path class="st5" d="M561.87,219.24c-1.07,2.4-2.28,4.65-3.53,6.84c-3.17,5.53-6.21,11.31-9.34,16.92
					c-0.59,1.03-0.76,2.2-0.71,3.38c-5.66-6.6-11.82-15.2-14.84-24.01v-0.01c1.53-5.12,3.65-9.66,6.32-13.61
					c1.8-2.64,3.53-5.8,4.74-9.35c1.07-3.11,1.57-4.54,1.11-6.4C551.45,200.99,557.76,210.42,561.87,219.24z"/>
				<path class="st6" d="M563.63,295.37c0.02,5.48-0.42,10.61-1.38,15.31c-4.56-9.26-10.59-14.49-14.94-19.53
					c-0.35-0.74-0.75-1.5-1.18-2.31c-2.7-4.97-5.65-9.46-8.43-14.31c-5.65-9.93-8-22.26-7-36.42c0.4-5.75,1.33-11,2.76-15.75
					c3.02,8.81,9.18,17.42,14.84,24.01c0.02,0.56,0.09,1.11,0.19,1.67c0.28,1.62,0.63,3.38,1.23,4.59c2.15,4.27,4.48,8.21,6.6,12.5
					C560.55,273.69,563.58,283.27,563.63,295.37z"/>
				<path class="st5" d="M562.25,310.68L562.25,310.68c-1.11,5.49-2.92,10.39-5.52,14.65c-2.53,4.15-5.4,7.62-7.93,11.79
					c-4.4,7.27-4.91,15.38-1.41,24.13c1.13,2.82,2.4,5.45,3.71,8.03c-4.7-6.31-12.32-17.47-16.72-30.05
					c0.71-4.84,1.99-9.55,3.89-13.86c2.53-5.74,5.47-10.86,8.07-16.51c3.82-8.35,3.52-12.42,0.97-17.73
					C551.66,296.19,557.69,301.42,562.25,310.68z"/>
				<path class="st6" d="M559.38,411.62c-2.39-5.54-5.28-11.2-8.04-16.27c0-0.02-0.01-0.04-0.02-0.06
					c-0.82-3.01-2.12-5.95-3.98-8.72c-2.34-3.53-4.74-7-6.93-10.88c-5.71-10.15-7.88-23.78-6.04-36.44
					c4.4,12.58,12.02,23.74,16.72,30.05c0.01,0.01,0.02,0.02,0.02,0.03c0.88,1.75,1.77,3.46,2.64,5.21
					c2.13,4.24,4.38,8.42,5.47,13.93C560.74,396.11,560.8,404.26,559.38,411.62z"/>
				<path class="st5" d="M556.41,496.33c0.56,3.04,0.93,6.16,0.38,9.46c-0.4-0.71-0.61-1.49-0.75-2.32
					c-1.09-6.48-2.97-12.02-5.79-16.38c-2.43-3.76-5.06-7.1-7.35-11.12c-6.97-12.18-8.24-28.91-1.26-43.26
					c2.33-4.8,4.93-9.2,7.17-14.15c3.51-7.72,4.55-15.74,2.52-23.21c2.76,5.08,5.64,10.73,8.04,16.27
					c-1.03,5.46-2.89,10.49-5.56,14.55c-2.91,4.42-5.81,8.89-8.48,13.79c-3.58,6.59-4.55,15.68-2.2,24.87
					c1.49,5.83,3.98,10.1,6.39,14.53C552.26,484.4,555.11,489.3,556.41,496.33z"/>
			</g>
		</g>
		<g class="st7">
			<g>
				<path class="st8" d="M569.73,97.19c-0.78,7.89-2.5,15.4-5.33,22.47c-3.03,7.58-7.25,12.78-11.09,18.74
					c-1.44,2.25-1.87,3.84-1.16,6.13c-11.14-11.53-18.65-26.78-19.09-36.26c1.43-3.32,3.13-6.43,5.08-9.32
					c0.77-1.15,1.55-2.34,2.27-3.63c0.46-0.82,0.84-1.51,1.16-2.1c1.23-2.31,3.63-3.75,6.24-3.75h14.86
					C566.84,89.48,570.15,93.06,569.73,97.19z"/>
				<path class="st8" d="M565.44,207.74c-0.77,4.37-2.04,8.11-3.57,11.51c-4.11-8.82-10.42-18.25-16.24-26.25c0,0,0,0,0-0.01
					c-0.23-0.95-0.72-2.01-1.51-3.47c-2.72-5.05-5.39-10.22-8.26-14.96c-5.04-8.31-8.3-19.89-8.58-32.38
					c-0.3-13.07,1.67-24.36,5.79-33.9c0.44,9.49,7.95,24.74,19.09,36.26c0.16,0.56,0.4,1.16,0.71,1.82c1.7,3.67,3.4,7.35,5.28,10.7
					c3.86,6.93,7.15,14.33,8.21,24.56C567.25,190.55,566.97,199.19,565.44,207.74z"/>
				<path class="st8" d="M561.87,219.24c-1.07,2.4-2.28,4.65-3.53,6.84c-3.17,5.53-6.21,11.31-9.34,16.92
					c-0.59,1.03-0.76,2.2-0.71,3.38c-5.66-6.6-11.82-15.2-14.84-24.01v-0.01c1.53-5.12,3.65-9.66,6.32-13.61
					c1.8-2.64,3.53-5.8,4.74-9.35c1.07-3.11,1.57-4.54,1.11-6.4C551.45,200.99,557.76,210.42,561.87,219.24z"/>
				<path class="st8" d="M563.63,295.37c0.02,5.48-0.42,10.61-1.38,15.31c-4.56-9.26-10.59-14.49-14.94-19.53
					c-0.35-0.74-0.75-1.5-1.18-2.31c-2.7-4.97-5.65-9.46-8.43-14.31c-5.65-9.93-8-22.26-7-36.42c0.4-5.75,1.33-11,2.76-15.75
					c3.02,8.81,9.18,17.42,14.84,24.01c0.02,0.56,0.09,1.11,0.19,1.67c0.28,1.62,0.63,3.38,1.23,4.59c2.15,4.27,4.48,8.21,6.6,12.5
					C560.55,273.69,563.58,283.27,563.63,295.37z"/>
				<path class="st8" d="M562.25,310.68L562.25,310.68c-1.11,5.49-2.92,10.39-5.52,14.65c-2.53,4.15-5.4,7.62-7.93,11.79
					c-4.4,7.27-4.91,15.38-1.41,24.13c1.13,2.82,2.4,5.45,3.71,8.03c-4.7-6.31-12.32-17.47-16.72-30.05
					c0.71-4.84,1.99-9.55,3.89-13.86c2.53-5.74,5.47-10.86,8.07-16.51c3.82-8.35,3.52-12.42,0.97-17.73
					C551.66,296.19,557.69,301.42,562.25,310.68z"/>
				<path class="st8" d="M559.38,411.62c-2.39-5.54-5.28-11.2-8.04-16.27c0-0.02-0.01-0.04-0.02-0.06
					c-0.82-3.01-2.12-5.95-3.98-8.72c-2.34-3.53-4.74-7-6.93-10.88c-5.71-10.15-7.88-23.78-6.04-36.44
					c4.4,12.58,12.02,23.74,16.72,30.05c0.01,0.01,0.02,0.02,0.02,0.03c0.88,1.75,1.77,3.46,2.64,5.21
					c2.13,4.24,4.38,8.42,5.47,13.93C560.74,396.11,560.8,404.26,559.38,411.62z"/>
				<path class="st8" d="M556.41,496.33c0.56,3.04,0.93,6.16,0.38,9.46c-0.4-0.71-0.61-1.49-0.75-2.32
					c-1.09-6.48-2.97-12.02-5.79-16.38c-2.43-3.76-5.06-7.1-7.35-11.12c-6.97-12.18-8.24-28.91-1.26-43.26
					c2.33-4.8,4.93-9.2,7.17-14.15c3.51-7.72,4.55-15.74,2.52-23.21c2.76,5.08,5.64,10.73,8.04,16.27
					c-1.03,5.46-2.89,10.49-5.56,14.55c-2.91,4.42-5.81,8.89-8.48,13.79c-3.58,6.59-4.55,15.68-2.2,24.87
					c1.49,5.83,3.98,10.1,6.39,14.53C552.26,484.4,555.11,489.3,556.41,496.33z"/>
			</g>
		</g>
	</g>
	<g class="st1">
		<g>
			<g>
				<path class="st5" d="M612.25,97.19c-0.78,7.89-2.5,15.4-5.33,22.47c-3.03,7.58-7.25,12.78-11.09,18.74
					c-1.44,2.25-1.87,3.84-1.16,6.13c-11.14-11.53-18.65-26.78-19.09-36.26c1.43-3.32,3.13-6.43,5.08-9.32
					c0.77-1.15,1.55-2.34,2.27-3.63c0.46-0.82,0.84-1.51,1.16-2.1c1.23-2.31,3.63-3.75,6.24-3.75h14.86
					C609.36,89.48,612.67,93.06,612.25,97.19z"/>
				<path class="st6" d="M607.96,207.74c-0.77,4.37-2.04,8.11-3.57,11.51c-4.11-8.82-10.42-18.25-16.24-26.25c0,0,0,0,0-0.01
					c-0.23-0.95-0.72-2.01-1.51-3.47c-2.72-5.05-5.39-10.22-8.26-14.96c-5.04-8.31-8.3-19.89-8.58-32.38
					c-0.3-13.07,1.67-24.36,5.79-33.9c0.44,9.49,7.95,24.74,19.09,36.26c0.16,0.56,0.4,1.16,0.71,1.82c1.7,3.67,3.4,7.35,5.28,10.7
					c3.86,6.93,7.15,14.33,8.21,24.56C609.77,190.55,609.49,199.19,607.96,207.74z"/>
				<path class="st5" d="M604.39,219.24c-1.07,2.4-2.28,4.65-3.53,6.84c-3.17,5.53-6.21,11.31-9.34,16.92
					c-0.59,1.03-0.76,2.2-0.71,3.38c-5.66-6.6-11.82-15.2-14.84-24.01v-0.01c1.53-5.12,3.65-9.66,6.32-13.61
					c1.8-2.64,3.53-5.8,4.74-9.35c1.07-3.11,1.57-4.54,1.11-6.4C593.97,200.99,600.28,210.42,604.39,219.24z"/>
				<path class="st6" d="M606.15,295.37c0.02,5.48-0.42,10.61-1.38,15.31c-4.56-9.26-10.59-14.49-14.94-19.53
					c-0.35-0.74-0.75-1.5-1.18-2.31c-2.7-4.97-5.65-9.46-8.43-14.31c-5.65-9.93-8-22.26-7-36.42c0.4-5.75,1.33-11,2.76-15.75
					c3.02,8.81,9.18,17.42,14.84,24.01c0.02,0.56,0.09,1.11,0.19,1.67c0.28,1.62,0.63,3.38,1.23,4.59c2.15,4.27,4.48,8.21,6.6,12.5
					C603.07,273.69,606.1,283.27,606.15,295.37z"/>
				<path class="st5" d="M604.77,310.68L604.77,310.68c-1.11,5.49-2.92,10.39-5.52,14.65c-2.53,4.15-5.4,7.62-7.93,11.79
					c-4.4,7.27-4.91,15.38-1.41,24.13c1.13,2.82,2.4,5.45,3.71,8.03c-4.7-6.31-12.32-17.47-16.72-30.05
					c0.71-4.84,1.99-9.55,3.89-13.86c2.53-5.74,5.47-10.86,8.07-16.51c3.82-8.35,3.52-12.42,0.97-17.73
					C594.18,296.19,600.21,301.42,604.77,310.68z"/>
				<path class="st6" d="M601.9,411.62c-2.39-5.54-5.28-11.2-8.04-16.27c0-0.02-0.01-0.04-0.02-0.06c-0.82-3.01-2.12-5.95-3.98-8.72
					c-2.34-3.53-4.74-7-6.93-10.88c-5.71-10.15-7.88-23.78-6.04-36.44c4.4,12.58,12.02,23.74,16.72,30.05
					c0.01,0.01,0.02,0.02,0.02,0.03c0.88,1.75,1.77,3.46,2.64,5.21c2.13,4.24,4.38,8.42,5.47,13.93
					C603.26,396.11,603.32,404.26,601.9,411.62z"/>
				<path class="st5" d="M598.93,496.33c0.56,3.04,0.93,6.16,0.38,9.46c-0.4-0.71-0.61-1.49-0.75-2.32
					c-1.09-6.48-2.97-12.02-5.79-16.38c-2.43-3.76-5.06-7.1-7.35-11.12c-6.97-12.18-8.24-28.91-1.26-43.26
					c2.33-4.8,4.93-9.2,7.17-14.15c3.51-7.72,4.55-15.74,2.52-23.21c2.76,5.08,5.64,10.73,8.04,16.27
					c-1.03,5.46-2.89,10.49-5.56,14.55c-2.91,4.42-5.81,8.89-8.48,13.79c-3.58,6.59-4.55,15.68-2.2,24.87
					c1.49,5.83,3.98,10.1,6.39,14.53C594.78,484.4,597.63,489.3,598.93,496.33z"/>
			</g>
		</g>
		<g class="st7">
			<g>
				<path class="st8" d="M612.25,97.19c-0.78,7.89-2.5,15.4-5.33,22.47c-3.03,7.58-7.25,12.78-11.09,18.74
					c-1.44,2.25-1.87,3.84-1.16,6.13c-11.14-11.53-18.65-26.78-19.09-36.26c1.43-3.32,3.13-6.43,5.08-9.32
					c0.77-1.15,1.55-2.34,2.27-3.63c0.46-0.82,0.84-1.51,1.16-2.1c1.23-2.31,3.63-3.75,6.24-3.75h14.86
					C609.36,89.48,612.67,93.06,612.25,97.19z"/>
				<path class="st8" d="M607.96,207.74c-0.77,4.37-2.04,8.11-3.57,11.51c-4.11-8.82-10.42-18.25-16.24-26.25c0,0,0,0,0-0.01
					c-0.23-0.95-0.72-2.01-1.51-3.47c-2.72-5.05-5.39-10.22-8.26-14.96c-5.04-8.31-8.3-19.89-8.58-32.38
					c-0.3-13.07,1.67-24.36,5.79-33.9c0.44,9.49,7.95,24.74,19.09,36.26c0.16,0.56,0.4,1.16,0.71,1.82c1.7,3.67,3.4,7.35,5.28,10.7
					c3.86,6.93,7.15,14.33,8.21,24.56C609.77,190.55,609.49,199.19,607.96,207.74z"/>
				<path class="st8" d="M604.39,219.24c-1.07,2.4-2.28,4.65-3.53,6.84c-3.17,5.53-6.21,11.31-9.34,16.92
					c-0.59,1.03-0.76,2.2-0.71,3.38c-5.66-6.6-11.82-15.2-14.84-24.01v-0.01c1.53-5.12,3.65-9.66,6.32-13.61
					c1.8-2.64,3.53-5.8,4.74-9.35c1.07-3.11,1.57-4.54,1.11-6.4C593.97,200.99,600.28,210.42,604.39,219.24z"/>
				<path class="st8" d="M606.15,295.37c0.02,5.48-0.42,10.61-1.38,15.31c-4.56-9.26-10.59-14.49-14.94-19.53
					c-0.35-0.74-0.75-1.5-1.18-2.31c-2.7-4.97-5.65-9.46-8.43-14.31c-5.65-9.93-8-22.26-7-36.42c0.4-5.75,1.33-11,2.76-15.75
					c3.02,8.81,9.18,17.42,14.84,24.01c0.02,0.56,0.09,1.11,0.19,1.67c0.28,1.62,0.63,3.38,1.23,4.59c2.15,4.27,4.48,8.21,6.6,12.5
					C603.07,273.69,606.1,283.27,606.15,295.37z"/>
				<path class="st8" d="M604.77,310.68L604.77,310.68c-1.11,5.49-2.92,10.39-5.52,14.65c-2.53,4.15-5.4,7.62-7.93,11.79
					c-4.4,7.27-4.91,15.38-1.41,24.13c1.13,2.82,2.4,5.45,3.71,8.03c-4.7-6.31-12.32-17.47-16.72-30.05
					c0.71-4.84,1.99-9.55,3.89-13.86c2.53-5.74,5.47-10.86,8.07-16.51c3.82-8.35,3.52-12.42,0.97-17.73
					C594.18,296.19,600.21,301.42,604.77,310.68z"/>
				<path class="st8" d="M601.9,411.62c-2.39-5.54-5.28-11.2-8.04-16.27c0-0.02-0.01-0.04-0.02-0.06c-0.82-3.01-2.12-5.95-3.98-8.72
					c-2.34-3.53-4.74-7-6.93-10.88c-5.71-10.15-7.88-23.78-6.04-36.44c4.4,12.58,12.02,23.74,16.72,30.05
					c0.01,0.01,0.02,0.02,0.02,0.03c0.88,1.75,1.77,3.46,2.64,5.21c2.13,4.24,4.38,8.42,5.47,13.93
					C603.26,396.11,603.32,404.26,601.9,411.62z"/>
				<path class="st8" d="M598.93,496.33c0.56,3.04,0.93,6.16,0.38,9.46c-0.4-0.71-0.61-1.49-0.75-2.32
					c-1.09-6.48-2.97-12.02-5.79-16.38c-2.43-3.76-5.06-7.1-7.35-11.12c-6.97-12.18-8.24-28.91-1.26-43.26
					c2.33-4.8,4.93-9.2,7.17-14.15c3.51-7.72,4.55-15.74,2.52-23.21c2.76,5.08,5.64,10.73,8.04,16.27
					c-1.03,5.46-2.89,10.49-5.56,14.55c-2.91,4.42-5.81,8.89-8.48,13.79c-3.58,6.59-4.55,15.68-2.2,24.87
					c1.49,5.83,3.98,10.1,6.39,14.53C594.78,484.4,597.63,489.3,598.93,496.33z"/>
			</g>
		</g>
	</g>
	<g class="st1">
		<g>
			<g>
				<path class="st5" d="M654.77,97.19c-0.78,7.89-2.5,15.4-5.33,22.47c-3.03,7.58-7.25,12.78-11.09,18.74
					c-1.44,2.25-1.87,3.84-1.16,6.13c-11.14-11.53-18.65-26.78-19.09-36.26c1.43-3.32,3.13-6.43,5.08-9.32
					c0.77-1.15,1.55-2.34,2.27-3.63c0.46-0.82,0.84-1.51,1.16-2.1c1.23-2.31,3.63-3.75,6.24-3.75h14.86
					C651.88,89.48,655.18,93.06,654.77,97.19z"/>
				<path class="st6" d="M650.48,207.74c-0.77,4.37-2.04,8.11-3.57,11.51c-4.11-8.82-10.42-18.25-16.24-26.25c0,0,0,0,0-0.01
					c-0.23-0.95-0.72-2.01-1.51-3.47c-2.72-5.05-5.39-10.22-8.26-14.96c-5.04-8.31-8.3-19.89-8.58-32.38
					c-0.3-13.07,1.67-24.36,5.79-33.9c0.44,9.49,7.95,24.74,19.09,36.26c0.16,0.56,0.4,1.16,0.71,1.82c1.7,3.67,3.4,7.35,5.28,10.7
					c3.86,6.93,7.15,14.33,8.21,24.56C652.29,190.55,652.01,199.19,650.48,207.74z"/>
				<path class="st5" d="M646.91,219.24c-1.07,2.4-2.28,4.65-3.53,6.84c-3.17,5.53-6.21,11.31-9.34,16.92
					c-0.59,1.03-0.76,2.2-0.71,3.38c-5.66-6.6-11.82-15.2-14.84-24.01v-0.01c1.53-5.12,3.65-9.66,6.32-13.61
					c1.8-2.64,3.53-5.8,4.74-9.35c1.07-3.11,1.57-4.54,1.11-6.4C636.49,200.99,642.8,210.42,646.91,219.24z"/>
				<path class="st6" d="M648.67,295.37c0.02,5.48-0.42,10.61-1.38,15.31c-4.56-9.26-10.59-14.49-14.94-19.53
					c-0.35-0.74-0.75-1.5-1.18-2.31c-2.7-4.97-5.65-9.46-8.43-14.31c-5.65-9.93-8-22.26-7-36.42c0.4-5.75,1.33-11,2.76-15.75
					c3.02,8.81,9.18,17.42,14.84,24.01c0.02,0.56,0.09,1.11,0.19,1.67c0.28,1.62,0.63,3.38,1.23,4.59c2.15,4.27,4.48,8.21,6.6,12.5
					C645.59,273.69,648.62,283.27,648.67,295.37z"/>
				<path class="st5" d="M647.29,310.68L647.29,310.68c-1.11,5.49-2.92,10.39-5.52,14.65c-2.53,4.15-5.4,7.62-7.93,11.79
					c-4.4,7.27-4.91,15.38-1.41,24.13c1.13,2.82,2.4,5.45,3.71,8.03c-4.7-6.31-12.32-17.47-16.72-30.05
					c0.71-4.84,1.99-9.55,3.89-13.86c2.53-5.74,5.47-10.86,8.07-16.51c3.82-8.35,3.52-12.42,0.97-17.73
					C636.69,296.19,642.73,301.42,647.29,310.68z"/>
				<path class="st6" d="M644.41,411.62c-2.39-5.54-5.28-11.2-8.04-16.27c0-0.02-0.01-0.04-0.02-0.06
					c-0.82-3.01-2.12-5.95-3.98-8.72c-2.34-3.53-4.74-7-6.93-10.88c-5.71-10.15-7.88-23.78-6.04-36.44
					c4.4,12.58,12.02,23.74,16.72,30.05c0.01,0.01,0.02,0.02,0.02,0.03c0.88,1.75,1.77,3.46,2.64,5.21
					c2.13,4.24,4.38,8.42,5.47,13.93C645.78,396.11,645.84,404.26,644.41,411.62z"/>
				<path class="st5" d="M641.45,496.33c0.56,3.04,0.93,6.16,0.38,9.46c-0.4-0.71-0.61-1.49-0.75-2.32
					c-1.09-6.48-2.97-12.02-5.79-16.38c-2.43-3.76-5.06-7.1-7.35-11.12c-6.97-12.18-8.24-28.91-1.26-43.26
					c2.33-4.8,4.93-9.2,7.17-14.15c3.51-7.72,4.55-15.74,2.52-23.21c2.76,5.08,5.64,10.73,8.04,16.27
					c-1.03,5.46-2.89,10.49-5.56,14.55c-2.91,4.42-5.81,8.89-8.48,13.79c-3.58,6.59-4.55,15.68-2.2,24.87
					c1.49,5.83,3.98,10.1,6.39,14.53C637.3,484.4,640.15,489.3,641.45,496.33z"/>
			</g>
		</g>
		<g class="st7">
			<g>
				<path class="st8" d="M654.77,97.19c-0.78,7.89-2.5,15.4-5.33,22.47c-3.03,7.58-7.25,12.78-11.09,18.74
					c-1.44,2.25-1.87,3.84-1.16,6.13c-11.14-11.53-18.65-26.78-19.09-36.26c1.43-3.32,3.13-6.43,5.08-9.32
					c0.77-1.15,1.55-2.34,2.27-3.63c0.46-0.82,0.84-1.51,1.16-2.1c1.23-2.31,3.63-3.75,6.24-3.75h14.86
					C651.88,89.48,655.18,93.06,654.77,97.19z"/>
				<path class="st8" d="M650.48,207.74c-0.77,4.37-2.04,8.11-3.57,11.51c-4.11-8.82-10.42-18.25-16.24-26.25c0,0,0,0,0-0.01
					c-0.23-0.95-0.72-2.01-1.51-3.47c-2.72-5.05-5.39-10.22-8.26-14.96c-5.04-8.31-8.3-19.89-8.58-32.38
					c-0.3-13.07,1.67-24.36,5.79-33.9c0.44,9.49,7.95,24.74,19.09,36.26c0.16,0.56,0.4,1.16,0.71,1.82c1.7,3.67,3.4,7.35,5.28,10.7
					c3.86,6.93,7.15,14.33,8.21,24.56C652.29,190.55,652.01,199.19,650.48,207.74z"/>
				<path class="st8" d="M646.91,219.24c-1.07,2.4-2.28,4.65-3.53,6.84c-3.17,5.53-6.21,11.31-9.34,16.92
					c-0.59,1.03-0.76,2.2-0.71,3.38c-5.66-6.6-11.82-15.2-14.84-24.01v-0.01c1.53-5.12,3.65-9.66,6.32-13.61
					c1.8-2.64,3.53-5.8,4.74-9.35c1.07-3.11,1.57-4.54,1.11-6.4C636.49,200.99,642.8,210.42,646.91,219.24z"/>
				<path class="st8" d="M648.67,295.37c0.02,5.48-0.42,10.61-1.38,15.31c-4.56-9.26-10.59-14.49-14.94-19.53
					c-0.35-0.74-0.75-1.5-1.18-2.31c-2.7-4.97-5.65-9.46-8.43-14.31c-5.65-9.93-8-22.26-7-36.42c0.4-5.75,1.33-11,2.76-15.75
					c3.02,8.81,9.18,17.42,14.84,24.01c0.02,0.56,0.09,1.11,0.19,1.67c0.28,1.62,0.63,3.38,1.23,4.59c2.15,4.27,4.48,8.21,6.6,12.5
					C645.59,273.69,648.62,283.27,648.67,295.37z"/>
				<path class="st8" d="M647.29,310.68L647.29,310.68c-1.11,5.49-2.92,10.39-5.52,14.65c-2.53,4.15-5.4,7.62-7.93,11.79
					c-4.4,7.27-4.91,15.38-1.41,24.13c1.13,2.82,2.4,5.45,3.71,8.03c-4.7-6.31-12.32-17.47-16.72-30.05
					c0.71-4.84,1.99-9.55,3.89-13.86c2.53-5.74,5.47-10.86,8.07-16.51c3.82-8.35,3.52-12.42,0.97-17.73
					C636.69,296.19,642.73,301.42,647.29,310.68z"/>
				<path class="st8" d="M644.41,411.62c-2.39-5.54-5.28-11.2-8.04-16.27c0-0.02-0.01-0.04-0.02-0.06
					c-0.82-3.01-2.12-5.95-3.98-8.72c-2.34-3.53-4.74-7-6.93-10.88c-5.71-10.15-7.88-23.78-6.04-36.44
					c4.4,12.58,12.02,23.74,16.72,30.05c0.01,0.01,0.02,0.02,0.02,0.03c0.88,1.75,1.77,3.46,2.64,5.21
					c2.13,4.24,4.38,8.42,5.47,13.93C645.78,396.11,645.84,404.26,644.41,411.62z"/>
				<path class="st8" d="M641.45,496.33c0.56,3.04,0.93,6.16,0.38,9.46c-0.4-0.71-0.61-1.49-0.75-2.32
					c-1.09-6.48-2.97-12.02-5.79-16.38c-2.43-3.76-5.06-7.1-7.35-11.12c-6.97-12.18-8.24-28.91-1.26-43.26
					c2.33-4.8,4.93-9.2,7.17-14.15c3.51-7.72,4.55-15.74,2.52-23.21c2.76,5.08,5.64,10.73,8.04,16.27
					c-1.03,5.46-2.89,10.49-5.56,14.55c-2.91,4.42-5.81,8.89-8.48,13.79c-3.58,6.59-4.55,15.68-2.2,24.87
					c1.49,5.83,3.98,10.1,6.39,14.53C637.3,484.4,640.15,489.3,641.45,496.33z"/>
			</g>
		</g>
	</g>
	<g class="st1">
		<g>
			<g>
				<path class="st5" d="M697.29,97.19c-0.78,7.89-2.5,15.4-5.33,22.47c-3.03,7.58-7.25,12.78-11.09,18.74
					c-1.44,2.25-1.87,3.84-1.16,6.13c-11.14-11.53-18.65-26.78-19.09-36.26c1.43-3.32,3.13-6.43,5.08-9.32
					c0.77-1.15,1.55-2.34,2.27-3.63c0.46-0.82,0.84-1.51,1.16-2.1c1.23-2.31,3.63-3.75,6.24-3.75h14.86
					C694.4,89.48,697.7,93.06,697.29,97.19z"/>
				<path class="st6" d="M693,207.74c-0.77,4.37-2.04,8.11-3.57,11.51c-4.11-8.82-10.42-18.25-16.24-26.25c0,0,0,0,0-0.01
					c-0.23-0.95-0.72-2.01-1.51-3.47c-2.72-5.05-5.39-10.22-8.26-14.96c-5.04-8.31-8.3-19.89-8.58-32.38
					c-0.3-13.07,1.67-24.36,5.79-33.9c0.44,9.49,7.95,24.74,19.09,36.26c0.16,0.56,0.4,1.16,0.71,1.82c1.7,3.67,3.4,7.35,5.28,10.7
					c3.86,6.93,7.15,14.33,8.21,24.56C694.81,190.55,694.53,199.19,693,207.74z"/>
				<path class="st5" d="M689.43,219.24c-1.07,2.4-2.28,4.65-3.53,6.84c-3.17,5.53-6.21,11.31-9.34,16.92
					c-0.59,1.03-0.76,2.2-0.71,3.38c-5.66-6.6-11.82-15.2-14.84-24.01v-0.01c1.53-5.12,3.65-9.66,6.32-13.61
					c1.8-2.64,3.53-5.8,4.74-9.35c1.07-3.11,1.57-4.54,1.11-6.4C679.01,200.99,685.31,210.42,689.43,219.24z"/>
				<path class="st6" d="M691.19,295.37c0.02,5.48-0.42,10.61-1.38,15.31c-4.56-9.26-10.59-14.49-14.94-19.53
					c-0.35-0.74-0.75-1.5-1.18-2.31c-2.7-4.97-5.65-9.46-8.43-14.31c-5.65-9.93-8-22.26-7-36.42c0.4-5.75,1.33-11,2.76-15.75
					c3.02,8.81,9.18,17.42,14.84,24.01c0.02,0.56,0.09,1.11,0.19,1.67c0.28,1.62,0.63,3.38,1.23,4.59c2.15,4.27,4.48,8.21,6.6,12.5
					C688.11,273.69,691.14,283.27,691.19,295.37z"/>
				<path class="st5" d="M689.81,310.68L689.81,310.68c-1.11,5.49-2.92,10.39-5.52,14.65c-2.53,4.15-5.4,7.62-7.93,11.79
					c-4.4,7.27-4.91,15.38-1.41,24.13c1.13,2.82,2.4,5.45,3.71,8.03c-4.7-6.31-12.32-17.47-16.72-30.05
					c0.71-4.84,1.99-9.55,3.89-13.86c2.53-5.74,5.47-10.86,8.07-16.51c3.82-8.35,3.52-12.42,0.97-17.73
					C679.21,296.19,685.25,301.42,689.81,310.68z"/>
				<path class="st6" d="M686.93,411.62c-2.39-5.54-5.28-11.2-8.04-16.27c0-0.02-0.01-0.04-0.02-0.06
					c-0.82-3.01-2.12-5.95-3.98-8.72c-2.34-3.53-4.74-7-6.93-10.88c-5.71-10.15-7.88-23.78-6.04-36.44
					c4.4,12.58,12.02,23.74,16.72,30.05c0.01,0.01,0.02,0.02,0.02,0.03c0.88,1.75,1.77,3.46,2.64,5.21
					c2.13,4.24,4.38,8.42,5.47,13.93C688.3,396.11,688.36,404.26,686.93,411.62z"/>
				<path class="st5" d="M683.97,496.33c0.56,3.04,0.93,6.16,0.38,9.46c-0.4-0.71-0.61-1.49-0.75-2.32
					c-1.09-6.48-2.97-12.02-5.79-16.38c-2.43-3.76-5.06-7.1-7.35-11.12c-6.97-12.18-8.24-28.91-1.26-43.26
					c2.33-4.8,4.93-9.2,7.17-14.15c3.51-7.72,4.55-15.74,2.52-23.21c2.76,5.08,5.64,10.73,8.04,16.27
					c-1.03,5.46-2.89,10.49-5.56,14.55c-2.91,4.42-5.81,8.89-8.48,13.79c-3.58,6.59-4.55,15.68-2.2,24.87
					c1.49,5.83,3.98,10.1,6.39,14.53C679.82,484.4,682.67,489.3,683.97,496.33z"/>
			</g>
		</g>
		<g class="st7">
			<g>
				<path class="st8" d="M697.29,97.19c-0.78,7.89-2.5,15.4-5.33,22.47c-3.03,7.58-7.25,12.78-11.09,18.74
					c-1.44,2.25-1.87,3.84-1.16,6.13c-11.14-11.53-18.65-26.78-19.09-36.26c1.43-3.32,3.13-6.43,5.08-9.32
					c0.77-1.15,1.55-2.34,2.27-3.63c0.46-0.82,0.84-1.51,1.16-2.1c1.23-2.31,3.63-3.75,6.24-3.75h14.86
					C694.4,89.48,697.7,93.06,697.29,97.19z"/>
				<path class="st8" d="M693,207.74c-0.77,4.37-2.04,8.11-3.57,11.51c-4.11-8.82-10.42-18.25-16.24-26.25c0,0,0,0,0-0.01
					c-0.23-0.95-0.72-2.01-1.51-3.47c-2.72-5.05-5.39-10.22-8.26-14.96c-5.04-8.31-8.3-19.89-8.58-32.38
					c-0.3-13.07,1.67-24.36,5.79-33.9c0.44,9.49,7.95,24.74,19.09,36.26c0.16,0.56,0.4,1.16,0.71,1.82c1.7,3.67,3.4,7.35,5.28,10.7
					c3.86,6.93,7.15,14.33,8.21,24.56C694.81,190.55,694.53,199.19,693,207.74z"/>
				<path class="st8" d="M689.43,219.24c-1.07,2.4-2.28,4.65-3.53,6.84c-3.17,5.53-6.21,11.31-9.34,16.92
					c-0.59,1.03-0.76,2.2-0.71,3.38c-5.66-6.6-11.82-15.2-14.84-24.01v-0.01c1.53-5.12,3.65-9.66,6.32-13.61
					c1.8-2.64,3.53-5.8,4.74-9.35c1.07-3.11,1.57-4.54,1.11-6.4C679.01,200.99,685.31,210.42,689.43,219.24z"/>
				<path class="st8" d="M691.19,295.37c0.02,5.48-0.42,10.61-1.38,15.31c-4.56-9.26-10.59-14.49-14.94-19.53
					c-0.35-0.74-0.75-1.5-1.18-2.31c-2.7-4.97-5.65-9.46-8.43-14.31c-5.65-9.93-8-22.26-7-36.42c0.4-5.75,1.33-11,2.76-15.75
					c3.02,8.81,9.18,17.42,14.84,24.01c0.02,0.56,0.09,1.11,0.19,1.67c0.28,1.62,0.63,3.38,1.23,4.59c2.15,4.27,4.48,8.21,6.6,12.5
					C688.11,273.69,691.14,283.27,691.19,295.37z"/>
				<path class="st8" d="M689.81,310.68L689.81,310.68c-1.11,5.49-2.92,10.39-5.52,14.65c-2.53,4.15-5.4,7.62-7.93,11.79
					c-4.4,7.27-4.91,15.38-1.41,24.13c1.13,2.82,2.4,5.45,3.71,8.03c-4.7-6.31-12.32-17.47-16.72-30.05
					c0.71-4.84,1.99-9.55,3.89-13.86c2.53-5.74,5.47-10.86,8.07-16.51c3.82-8.35,3.52-12.42,0.97-17.73
					C679.21,296.19,685.25,301.42,689.81,310.68z"/>
				<path class="st8" d="M686.93,411.62c-2.39-5.54-5.28-11.2-8.04-16.27c0-0.02-0.01-0.04-0.02-0.06
					c-0.82-3.01-2.12-5.95-3.98-8.72c-2.34-3.53-4.74-7-6.93-10.88c-5.71-10.15-7.88-23.78-6.04-36.44
					c4.4,12.58,12.02,23.74,16.72,30.05c0.01,0.01,0.02,0.02,0.02,0.03c0.88,1.75,1.77,3.46,2.64,5.21
					c2.13,4.24,4.38,8.42,5.47,13.93C688.3,396.11,688.36,404.26,686.93,411.62z"/>
				<path class="st8" d="M683.97,496.33c0.56,3.04,0.93,6.16,0.38,9.46c-0.4-0.71-0.61-1.49-0.75-2.32
					c-1.09-6.48-2.97-12.02-5.79-16.38c-2.43-3.76-5.06-7.1-7.35-11.12c-6.97-12.18-8.24-28.91-1.26-43.26
					c2.33-4.8,4.93-9.2,7.17-14.15c3.51-7.72,4.55-15.74,2.52-23.21c2.76,5.08,5.64,10.73,8.04,16.27
					c-1.03,5.46-2.89,10.49-5.56,14.55c-2.91,4.42-5.81,8.89-8.48,13.79c-3.58,6.59-4.55,15.68-2.2,24.87
					c1.49,5.83,3.98,10.1,6.39,14.53C679.82,484.4,682.67,489.3,683.97,496.33z"/>
			</g>
		</g>
	</g>
</g>
<g id="Layer_3">
	<path class="st9" d="M230.58,105.93c-7.19,11.87-8.02,25.11-2.31,39.39c1.85,4.61,3.93,8.91,6.05,13.11
		c-7.47-10.03-19.47-27.57-26.72-47.45c12.85-14.68,27.19-28.02,42.79-39.78c-1.73,5.62-4.01,10.79-6.87,15.49
		C239.38,93.46,234.69,99.12,230.58,105.93z"/>
	<path class="st9" d="M247.85,227.53c-3.91-9.05-8.62-18.27-13.12-26.56c0-0.03-0.02-0.06-0.04-0.1c-1.34-4.91-3.45-9.71-6.5-14.23
		c-3.83-5.76-7.73-11.44-11.3-17.76c-8.94-15.87-12.55-36.94-10.21-56.85c0.31-0.35,0.61-0.69,0.92-1.04
		c7.25,19.88,19.25,37.42,26.72,47.45c0.02,0.01,0.03,0.03,0.03,0.04c1.45,2.86,2.89,5.65,4.32,8.5c3.47,6.93,7.15,13.74,8.93,22.74
		C250.07,202.22,250.16,215.52,247.85,227.53z"/>
	<path class="st9" d="M243.01,365.78c0.91,4.96,1.52,10.05,0.62,15.44c-0.65-1.15-0.99-2.43-1.22-3.79
		c-1.78-10.57-4.85-19.62-9.45-26.74c-3.97-6.13-8.25-11.59-12-18.15c-11.38-19.88-13.44-47.19-2.06-70.6
		c3.81-7.83,8.04-15.02,11.71-23.09c5.72-12.6,7.43-25.69,4.12-37.88c4.51,8.29,9.21,17.51,13.12,26.56
		c-1.69,8.92-4.72,17.12-9.08,23.74c-4.75,7.22-9.49,14.51-13.85,22.51c-5.84,10.75-7.43,25.59-3.58,40.59
		c2.43,9.52,6.5,16.49,10.43,23.71C236.23,346.31,240.89,354.3,243.01,365.78z"/>
	<path class="st9" d="M288.27,50.35c0.04-1.07-0.02-2.13-0.25-3.15c1.64-0.87,3.3-1.73,4.97-2.57
		C291.41,46.62,289.83,48.53,288.27,50.35z"/>
	<path class="st9" d="M305.57,96.3c-4.52,7.92-9.34,15.25-13.75,23.35c-0.71,1.32-1.36,2.57-1.93,3.77
		c-7.1,8.23-16.94,16.76-24.39,31.88c-1.57-7.67-2.28-16.04-2.25-24.99c0.08-19.75,5.03-35.39,11.93-49.35
		c3.46-7,7.27-13.42,10.77-20.4c0.99-1.98,1.56-4.85,2.01-7.49c0.16-0.91,0.28-1.82,0.31-2.72c1.56-1.82,3.14-3.73,4.72-5.72
		c7.73-3.92,15.66-7.5,23.78-10.71c0.09,0.97,0.17,1.94,0.24,2.93C318.63,59.98,314.8,80.1,305.57,96.3z"/>
	<path class="st9" d="M265.5,155.3c0,0,0,0,0,0.02c1.82,8.95,4.77,16.95,9.02,23.9c4.14,6.78,8.82,12.44,12.94,19.25
		c7.18,11.87,8.01,25.1,2.3,39.39c-1.85,4.61-3.92,8.9-6.05,13.1c7.67-10.3,20.11-28.51,27.29-49.04
		c-1.15-7.9-3.24-15.58-6.36-22.62c-4.14-9.37-8.94-17.72-13.17-26.95c-6.23-13.62-5.74-20.27-1.59-28.93
		C282.79,131.66,272.95,140.19,265.5,155.3z"/>
	<path class="st9" d="M270.19,320.05c3.91-9.05,8.61-18.28,13.12-26.56c0-0.03,0.02-0.06,0.03-0.1c1.35-4.91,3.45-9.71,6.5-14.24
		c3.83-5.76,7.74-11.43,11.3-17.76c9.32-16.57,12.86-38.81,9.86-59.48c-7.18,20.53-19.62,38.74-27.29,49.04
		c-0.02,0.02-0.03,0.03-0.03,0.05c-1.44,2.85-2.89,5.64-4.31,8.5c-3.47,6.92-7.15,13.73-8.94,22.73
		C267.97,294.74,267.87,308.04,270.19,320.05z"/>
	<path class="st9" d="M275.02,458.31c-0.91,4.96-1.52,10.05-0.62,15.44c0.65-1.15,0.99-2.43,1.22-3.79
		c1.78-10.57,4.85-19.62,9.45-26.74c3.97-6.13,8.25-11.59,12-18.15c11.38-19.88,13.44-47.19,2.06-70.6
		c-3.81-7.83-8.04-15.02-11.71-23.09c-5.72-12.6-7.43-25.69-4.12-37.88c-4.51,8.29-9.21,17.51-13.12,26.56
		c1.69,8.92,4.72,17.12,9.08,23.74c4.75,7.22,9.49,14.51,13.85,22.51c5.84,10.75,7.43,25.59,3.58,40.59
		c-2.43,9.52-6.5,16.49-10.43,23.71C281.8,438.84,277.15,446.83,275.02,458.31z"/>
	<path class="st9" d="M382.01,37.78c0.04,8.95-0.68,17.32-2.25,24.99c-7.44-15.12-17.29-23.65-24.39-31.88
		c-0.57-1.2-1.21-2.45-1.93-3.77c-0.79-1.45-1.59-2.87-2.4-4.27c9.47-2.4,19.14-4.33,28.98-5.74
		C381.26,23.5,381.98,30.35,382.01,37.78z"/>
	<path class="st9" d="M379.76,62.77c0,0,0,0,0,0.02c-1.82,8.95-4.77,16.95-9.02,23.9c-4.14,6.78-8.82,12.44-12.94,19.25
		c-7.18,11.87-8.01,25.1-2.3,39.39c1.85,4.61,3.92,8.9,6.05,13.1c-7.67-10.3-20.11-28.51-27.29-49.04
		c1.15-7.9,3.24-15.58,6.36-22.62c4.14-9.37,8.94-17.72,13.17-26.95c6.23-13.62,5.74-20.27,1.59-28.93
		C362.47,39.13,372.32,47.66,379.76,62.77z"/>
	<path class="st9" d="M375.07,227.52c-3.91-9.05-8.61-18.28-13.12-26.56c0-0.03-0.02-0.06-0.03-0.1c-1.35-4.91-3.45-9.71-6.5-14.24
		c-3.83-5.76-7.74-11.43-11.3-17.76c-9.32-16.57-12.86-38.81-9.86-59.48c7.18,20.53,19.62,38.74,27.29,49.04
		c0.02,0.02,0.03,0.03,0.03,0.05c1.44,2.85,2.89,5.64,4.31,8.5c3.47,6.92,7.15,13.73,8.94,22.73
		C377.3,202.21,377.39,215.51,375.07,227.52z"/>
	<path class="st9" d="M370.24,365.78c0.91,4.96,1.52,10.05,0.62,15.44c-0.65-1.15-0.99-2.43-1.22-3.79
		c-1.78-10.57-4.85-19.62-9.45-26.74c-3.97-6.13-8.25-11.59-12-18.15c-11.38-19.88-13.44-47.19-2.06-70.6
		c3.81-7.83,8.04-15.02,11.71-23.09c5.72-12.6,7.43-25.69,4.12-37.88c4.51,8.29,9.21,17.51,13.12,26.56
		c-1.69,8.92-4.72,17.12-9.08,23.74c-4.75,7.22-9.49,14.51-13.85,22.51c-5.84,10.75-7.43,25.59-3.58,40.59
		c2.43,9.52,6.5,16.49,10.43,23.71C363.46,346.31,368.12,354.3,370.24,365.78z"/>
	<path class="st9" d="M415.5,50.35c0.08-1.93-0.2-3.83-1.15-5.52c-5.11-9.16-10.07-18.58-15.25-27.61c-0.4-0.7-0.8-1.41-1.19-2.12
		c7.59-0.62,15.28-0.93,23.03-0.93c5.86,0,11.68,0.18,17.46,0.54C433.14,27.84,423.98,40.47,415.5,50.35z"/>
	<path class="st9" d="M432.8,96.3c-4.52,7.92-9.34,15.25-13.75,23.35c-0.71,1.32-1.36,2.57-1.93,3.77
		c-7.1,8.23-16.94,16.76-24.39,31.88c-1.57-7.67-2.28-16.04-2.25-24.99c0.08-19.75,5.02-35.39,11.93-49.35
		c3.46-7,7.27-13.42,10.77-20.4c0.99-1.98,1.56-4.85,2.01-7.49c0.16-0.91,0.28-1.82,0.31-2.72c8.48-9.88,17.64-22.51,22.9-35.64
		c0.79,0.04,1.57,0.09,2.36,0.15c1.76,6.75,2.93,14.08,3.47,21.99C445.86,59.98,442.03,80.1,432.8,96.3z"/>
	<path class="st9" d="M392.73,155.3c0,0,0,0,0,0.02c1.82,8.95,4.77,16.95,9.02,23.9c4.14,6.78,8.82,12.44,12.94,19.25
		c7.18,11.87,8.01,25.1,2.3,39.39c-1.85,4.61-3.92,8.9-6.05,13.1c7.67-10.3,20.11-28.51,27.29-49.04
		c-1.15-7.9-3.24-15.58-6.36-22.62c-4.14-9.37-8.94-17.72-13.17-26.95c-6.23-13.62-5.74-20.27-1.59-28.93
		C410.02,131.66,400.17,140.19,392.73,155.3z"/>
	<path class="st9" d="M397.42,320.05c3.91-9.05,8.61-18.28,13.12-26.56c0-0.03,0.02-0.06,0.03-0.1c1.35-4.91,3.45-9.71,6.5-14.24
		c3.83-5.76,7.74-11.43,11.3-17.76c9.32-16.57,12.86-38.81,9.86-59.48c-7.18,20.53-19.62,38.74-27.29,49.04
		c-0.02,0.02-0.03,0.03-0.03,0.05c-1.44,2.85-2.89,5.64-4.31,8.5c-3.47,6.92-7.15,13.73-8.94,22.73
		C395.2,294.74,395.1,308.04,397.42,320.05z"/>
	<path class="st9" d="M402.25,458.31c-0.91,4.96-1.52,10.05-0.62,15.44c0.65-1.15,0.99-2.43,1.22-3.79
		c1.78-10.57,4.85-19.62,9.45-26.74c3.97-6.13,8.25-11.59,12-18.15c11.38-19.88,13.44-47.19,2.06-70.6
		c-3.81-7.83-8.04-15.02-11.71-23.09c-5.72-12.6-7.43-25.69-4.12-37.88c-4.51,8.29-9.21,17.51-13.12,26.56
		c1.69,8.92,4.72,17.12,9.08,23.74c4.75,7.22,9.49,14.51,13.85,22.51c5.84,10.75,7.43,25.59,3.58,40.59
		c-2.43,9.52-6.5,16.49-10.43,23.71C409.03,438.84,404.38,446.83,402.25,458.31z"/>
	<path class="st9" d="M613.62,145.32c5.71-14.28,4.88-27.52-2.31-39.39c-4.11-6.81-8.8-12.47-12.94-19.24
		c-2.86-4.7-5.14-9.86-6.87-15.48c15.6,11.76,29.94,25.1,42.79,39.78c-7.25,19.87-19.25,37.41-26.72,47.44
		C609.69,154.23,611.77,149.93,613.62,145.32z"/>
	<path class="st9" d="M625,168.88c-3.57,6.32-7.47,12-11.3,17.76c-3.05,4.52-5.16,9.32-6.5,14.23c-0.02,0.04-0.04,0.07-0.04,0.1
		c-4.51,8.29-9.21,17.51-13.12,26.56c-2.31-12.01-2.22-25.31,0.25-37.81c1.78-9,5.46-15.81,8.93-22.74c1.43-2.85,2.87-5.64,4.32-8.5
		c0-0.01,0.01-0.03,0.03-0.04c7.47-10.03,19.47-27.57,26.72-47.44c0.31,0.35,0.62,0.7,0.92,1.05
		C637.55,131.95,633.92,153.02,625,168.88z"/>
	<path class="st9" d="M598.88,365.78c-0.91,4.96-1.52,10.05-0.62,15.44c0.65-1.15,0.99-2.43,1.22-3.79
		c1.78-10.57,4.85-19.62,9.45-26.74c3.97-6.13,8.25-11.59,12-18.15c11.38-19.88,13.44-47.19,2.06-70.6
		c-3.81-7.83-8.04-15.02-11.71-23.09c-5.72-12.6-7.43-25.69-4.12-37.88c-4.51,8.29-9.21,17.51-13.12,26.56
		c1.69,8.92,4.72,17.12,9.08,23.74c4.75,7.22,9.49,14.51,13.85,22.51c5.84,10.75,7.43,25.59,3.58,40.59
		c-2.43,9.52-6.5,16.49-10.43,23.71C605.65,346.31,601,354.3,598.88,365.78z"/>
	<path class="st9" d="M553.62,50.35c-1.56-1.82-3.14-3.72-4.7-5.71c1.66,0.84,3.31,1.69,4.95,2.56
		C553.64,48.22,553.58,49.28,553.62,50.35z"/>
	<path class="st9" d="M578.64,130.31c0.03,8.95-0.68,17.32-2.25,24.99c-7.45-15.12-17.29-23.65-24.39-31.88
		c-0.57-1.2-1.22-2.45-1.93-3.77c-4.41-8.1-9.23-15.43-13.75-23.35c-9.23-16.2-13.06-36.32-11.44-59.45
		c0.07-0.99,0.14-1.96,0.23-2.93c8.13,3.22,16.07,6.79,23.81,10.72c1.56,1.99,3.14,3.89,4.7,5.71c0.03,0.9,0.15,1.81,0.31,2.72
		c0.45,2.64,1.02,5.51,2.01,7.49c3.5,6.98,7.31,13.4,10.77,20.4C573.61,94.92,578.56,110.56,578.64,130.31z"/>
	<path class="st9" d="M576.39,155.3c0,0,0,0,0,0.02c-1.82,8.95-4.77,16.95-9.02,23.9c-4.14,6.78-8.82,12.44-12.94,19.25
		c-7.18,11.87-8.01,25.1-2.3,39.39c1.85,4.61,3.92,8.9,6.05,13.1c-7.67-10.3-20.11-28.51-27.29-49.04
		c1.15-7.9,3.24-15.58,6.36-22.62c4.14-9.37,8.94-17.72,13.17-26.95c6.23-13.62,5.74-20.27,1.59-28.93
		C559.1,131.66,568.94,140.19,576.39,155.3z"/>
	<path class="st9" d="M571.7,320.05c-3.91-9.05-8.61-18.28-13.12-26.56c0-0.03-0.02-0.06-0.03-0.1c-1.35-4.91-3.45-9.71-6.5-14.24
		c-3.83-5.76-7.74-11.43-11.3-17.76c-9.32-16.57-12.86-38.81-9.86-59.48c7.18,20.53,19.62,38.74,27.29,49.04
		c0.02,0.02,0.03,0.03,0.03,0.05c1.44,2.85,2.89,5.64,4.31,8.5c3.47,6.92,7.15,13.73,8.94,22.73
		C573.92,294.74,574.02,308.04,571.7,320.05z"/>
	<path class="st9" d="M566.87,458.31c0.91,4.96,1.52,10.05,0.62,15.44c-0.65-1.15-0.99-2.43-1.22-3.79
		c-1.78-10.57-4.85-19.62-9.45-26.74c-3.97-6.13-8.25-11.59-12-18.15c-11.38-19.88-13.44-47.19-2.06-70.6
		c3.81-7.83,8.04-15.02,11.71-23.09c5.72-12.6,7.43-25.69,4.12-37.88c4.51,8.29,9.21,17.51,13.12,26.56
		c-1.69,8.92-4.72,17.12-9.08,23.74c-4.75,7.22-9.49,14.51-13.85,22.51c-5.84,10.75-7.43,25.59-3.58,40.59
		c2.43,9.52,6.5,16.49,10.43,23.71C560.09,438.84,564.74,446.83,566.87,458.31z"/>
	<path class="st9" d="M490.85,22.86c-0.82,1.4-1.61,2.82-2.4,4.26c-0.72,1.32-1.36,2.57-1.93,3.77
		c-7.1,8.23-16.95,16.76-24.39,31.88c-1.57-7.67-2.29-16.04-2.25-24.99c0.03-7.43,0.75-14.28,2-20.67
		C471.71,18.53,481.38,20.45,490.85,22.86z"/>
	<path class="st9" d="M462.13,62.77c0,0,0,0,0,0.02c1.82,8.95,4.77,16.95,9.02,23.9c4.14,6.78,8.82,12.44,12.94,19.25
		c7.18,11.87,8.01,25.1,2.3,39.39c-1.85,4.61-3.92,8.9-6.05,13.1c7.67-10.3,20.11-28.51,27.29-49.04
		c-1.15-7.9-3.24-15.58-6.36-22.62c-4.14-9.37-8.94-17.72-13.17-26.95c-6.23-13.62-5.74-20.27-1.59-28.93
		C479.42,39.13,469.57,47.66,462.13,62.77z"/>
	<path class="st9" d="M466.82,227.52c3.91-9.05,8.61-18.28,13.12-26.56c0-0.03,0.02-0.06,0.03-0.1c1.35-4.91,3.45-9.71,6.5-14.24
		c3.83-5.76,7.74-11.43,11.3-17.76c9.32-16.57,12.86-38.81,9.86-59.48c-7.18,20.53-19.62,38.74-27.29,49.04
		c-0.02,0.02-0.03,0.03-0.03,0.05c-1.44,2.85-2.89,5.64-4.31,8.5c-3.47,6.92-7.15,13.73-8.94,22.73
		C464.59,202.21,464.5,215.51,466.82,227.52z"/>
	<path class="st9" d="M471.65,365.78c-0.91,4.96-1.52,10.05-0.62,15.44c0.65-1.15,0.99-2.43,1.22-3.79
		c1.78-10.57,4.85-19.62,9.45-26.74c3.97-6.13,8.25-11.59,12-18.15c11.38-19.88,13.44-47.19,2.06-70.6
		c-3.81-7.83-8.04-15.02-11.71-23.09c-5.72-12.6-7.43-25.69-4.12-37.88c-4.51,8.29-9.21,17.51-13.12,26.56
		c1.69,8.92,4.72,17.12,9.08,23.74c4.75,7.22,9.49,14.51,13.85,22.51c5.84,10.75,7.43,25.59,3.58,40.59
		c-2.43,9.52-6.5,16.49-10.43,23.71C478.43,346.31,473.77,354.3,471.65,365.78z"/>
</g>
</svg>
