<?xml version="1.0" encoding="utf-8"?>
<!-- Generator: Adobe Illustrator 28.3.0, SVG Export Plug-In . SVG Version: 6.00 Build 0)  -->
<svg version="1.1" id="Layer_1" xmlns="http://www.w3.org/2000/svg" xmlns:xlink="http://www.w3.org/1999/xlink" x="0px" y="0px"
	 viewBox="0 0 841.9 595.3" style="enable-background:new 0 0 841.9 595.3;" xml:space="preserve">
<style type="text/css">
	.st0{display:none;}
	.st1{display:inline;}
	.st2{fill:#FFFFFF;}
	.st3{display:inline;fill:none;stroke:#FFFFFF;stroke-miterlimit:10;}
	.st4{display:inline;stroke:#FFFFFF;stroke-miterlimit:10;}
	.st5{fill:#513107;}
	.st6{fill:#724411;}
	.st7{opacity:0.86;}
	.st8{fill:#51310B;}
	.st9{stroke:#FFFFFF;stroke-miterlimit:10;}
</style>
<g id="Layer_2_00000085238176141040102040000003010914945315639226_" class="st0">
	<g class="st1">
		<path class="st2" d="M324.2,283.6c-0.2-1.1-0.4-2.2-0.8-3.2c-0.8,4.7-1.3,9.5-1.5,14.4C324,291.4,324.8,287.7,324.2,283.6z"/>
		<path d="M322,294.7c0.1-4.9,0.6-9.7,1.5-14.4c0.4,1,0.6,2.1,0.8,3.2C324.8,287.7,324,291.4,322,294.7z"/>
		<path class="st2" d="M366.8,352.2c0-0.4,0-0.8-0.1-1.1c-0.5-4.4-2.4-8-5.7-11.2c-0.5-0.5-1-0.9-1.5-1.4c-1.2-1-2.4-2.1-3.6-3.1
			c-1.2-1.1-2.3-2.1-3.5-3.2c-2-1.8-1.7-2.2-0.3-4.2c1-1.5,2.5-2.8,4-4c4.4-3.2,7-7.4,7.7-12.4c0.9-6-1.1-11.2-6-15.4
			c-2.4-2-4.9-4-7.2-6c-3-2.8-3.9-4.5-0.2-8.5c2.2-2.4,4.7-4.6,6.9-7c5.9-6.6,4.9-15.3-1.8-21.3c-1.9-1.6-3.9-3.1-5.9-4.6
			c-5.5-4.1-5.5-8.9-1.2-13.5c1.9-2.1,4.1-3.9,6.1-6c2.7-2.8,4-5.7,4-8.6c-5.7,4.6-10.9,9.9-15.4,15.7c-1.6,2-3.1,4.1-4.5,6.2
			c0,1.8,0.3,3.7,1,5.4c0.5,1.2,1.2,2.3,2.1,3.3c0.8,0.9,1.7,1.7,2.5,2.6c1.9,1.8,3.8,3.6,5.4,5.6c3,3.7,2.5,7.1-1.2,10.2
			c-2.2,1.8-4.6,3.2-6.8,5h0c-4.1,3.4-5.9,7.6-5.9,12.7c0,5,2.5,8.9,5.9,12.4c0.1,0.1,0.2,0.2,0.3,0.4c1.8,1.8,3.8,3.5,5.6,5.3
			c0.5,0.5,0.8,1.2,1.1,1.9c0.2,0.7,0.3,1.5-0.4,2.1c-2.2,2-4.4,4-6.6,5.9c-0.5,0.4-0.9,0.8-1.4,1.2c-2.6,2.2-4.9,4.6-6,7.8
			c-1.3,3.6-1.5,7.3-0.8,11c0.9,4.3,3.7,7.5,7,10.4c0.4,0.4,0.8,0.7,1.2,1.1c1.1,1.1,2.2,2.3,3.3,3.4c1.3,1.4,1.1,2.2-0.4,3.4
			c-1,0.7-1.9,1.4-2.9,2.1c-0.2,0.1-0.3,0.2-0.5,0.4c3.3,4.5,7,8.7,11,12.6c1.1,1.1,2.2,2.1,3.4,3.1c-0.2,0.2-0.4,0.4-0.6,0.5
			c0.2-0.2,0.4-0.4,0.6-0.5c0.9-0.7,1.8-1.4,2.7-2.1c0.1-0.1,0.2-0.2,0.4-0.3c0.4-0.3,0.7-0.6,1-0.9c0,0,0.1-0.1,0.1-0.1
			c0.2-0.2,0.5-0.5,0.7-0.7c0.1-0.1,0.2-0.2,0.3-0.3c0.2-0.2,0.4-0.4,0.6-0.7c0.1-0.1,0.1-0.1,0.2-0.2c0.2-0.2,0.4-0.4,0.5-0.6
			c0.2-0.2,0.3-0.4,0.5-0.6c0.1-0.1,0.2-0.2,0.3-0.4c0.1-0.2,0.3-0.4,0.4-0.6c0.1-0.1,0.2-0.3,0.3-0.5c0.1-0.2,0.2-0.3,0.3-0.5
			c0.1-0.2,0.2-0.4,0.4-0.6c0.1-0.2,0.2-0.3,0.3-0.5c0.1-0.1,0.2-0.3,0.2-0.5c0.1-0.2,0.2-0.4,0.3-0.7c0.1-0.3,0.3-0.6,0.4-1
			c0.1-0.2,0.2-0.4,0.2-0.6c0.1-0.2,0.1-0.4,0.2-0.6c0.1-0.4,0.2-0.7,0.3-1.1c0-0.2,0.1-0.3,0.1-0.5c0.1-0.3,0.1-0.5,0.2-0.8
			c0.1-0.8,0.2-1.5,0.3-2.3c0-0.4,0-0.8,0-1.2C366.8,353,366.8,352.6,366.8,352.2z"/>
		<path d="M366.8,353.4c0,0.4,0,0.8,0,1.2c0,0.8-0.1,1.6-0.3,2.3c0,0.3-0.1,0.5-0.2,0.8c0,0.2-0.1,0.3-0.1,0.5
			c-0.1,0.4-0.2,0.7-0.3,1.1c-0.1,0.2-0.1,0.4-0.2,0.6c-0.1,0.2-0.1,0.4-0.2,0.6c-0.1,0.3-0.3,0.7-0.4,1c-0.1,0.2-0.2,0.4-0.3,0.7
			c-0.1,0.2-0.1,0.3-0.2,0.5c-0.1,0.2-0.2,0.3-0.3,0.5c-0.1,0.2-0.2,0.4-0.4,0.6c-0.1,0.2-0.2,0.3-0.3,0.5c-0.1,0.2-0.2,0.3-0.3,0.5
			c-0.1,0.2-0.3,0.4-0.4,0.6c-0.1,0.1-0.2,0.2-0.3,0.4c-0.1,0.2-0.3,0.4-0.5,0.6c-0.2,0.2-0.3,0.4-0.5,0.6c0,0.1-0.1,0.1-0.2,0.2
			c-0.2,0.2-0.4,0.5-0.6,0.7c-0.1,0.1-0.2,0.2-0.3,0.3c-0.2,0.2-0.5,0.5-0.7,0.7c0,0-0.1,0.1-0.1,0.1c-0.3,0.3-0.7,0.6-1,0.9
			c-0.4,0.3-0.7,0.6-1.1,0.9c-0.7,0.5-1.3,1-1.9,1.5c0,0,0,0,0,0c-1.2-1-2.3-2.1-3.4-3.1c-4-3.9-7.7-8.1-11-12.6
			c0.2-0.1,0.3-0.2,0.5-0.4c1-0.7,2-1.4,2.9-2.1c1.5-1.2,1.7-1.9,0.4-3.4c-1.1-1.1-2.2-2.3-3.3-3.4c-0.4-0.4-0.8-0.8-1.2-1.1
			c-3.3-2.9-6.1-6.1-7-10.4c-0.8-3.8-0.5-7.4,0.8-11c1.1-3.2,3.5-5.5,6-7.8c0.5-0.4,0.9-0.8,1.4-1.2c2.2-2,4.4-4,6.6-5.9
			c0.7-0.6,0.7-1.4,0.4-2.1c-0.2-0.7-0.5-1.4-1.1-1.9c-1.8-1.8-3.8-3.5-5.6-5.3c-0.1-0.1-0.2-0.2-0.3-0.4c-3.4-3.5-5.9-7.5-5.9-12.4
			c0-5,1.8-9.3,5.9-12.7h0c2.2-1.8,4.6-3.2,6.8-5c3.7-3.1,4.2-6.5,1.2-10.2c-1.6-2-3.6-3.8-5.4-5.6c-0.9-0.9-1.7-1.7-2.5-2.6
			c-0.9-1-1.6-2.1-2.1-3.3c-0.7-1.8-1-3.6-1-5.4c1.4-2.1,2.9-4.2,4.5-6.2c4.5-5.8,9.7-11.1,15.4-15.7c0,2.9-1.2,5.9-4,8.6
			c-2,2-4.2,3.9-6.1,6c-4.2,4.6-4.3,9.4,1.2,13.5c2,1.5,4,3,5.9,4.6c6.7,5.9,7.7,14.7,1.8,21.3c-2.2,2.4-4.7,4.6-6.9,7
			c-3.7,4-2.9,5.7,0.2,8.5c2.3,2.1,4.8,4,7.2,6c4.8,4.2,6.8,9.4,6,15.4c-0.7,5-3.3,9.2-7.7,12.4c-1.5,1.1-3,2.5-4,4
			c-1.4,2-1.6,2.4,0.3,4.2c1.2,1.1,2.3,2.1,3.5,3.2c1.2,1.1,2.4,2.1,3.6,3.1c0.5,0.4,1,0.9,1.5,1.4c3.1,3.1,5.2,7,5.7,11.2
			c0,0.4,0.1,0.8,0.1,1.1C366.8,352.6,366.8,353,366.8,353.4z"/>
		<path d="M349.9,335.6c-0.9,4.3-3.7,7.5-7,10.4c-0.4,0.4-0.8,0.7-1.2,1.1c-1.1,1.1-2.2,2.2-3.3,3.4c-0.3,0.3-0.5,0.6-0.7,0.9
			c-3.5-5.4-6.5-11.2-8.9-17.2c0.7-0.6,1.4-1.3,2.1-1.9c2-1.8,1.7-2.2,0.3-4.2c-1-1.5-2.5-2.8-4-4c-0.8-0.6-1.6-1.2-2.3-1.9l-3-22
			c0.9-1.4,2.1-2.7,3.5-4c2.4-2,4.9-4,7.2-6c3-2.8,3.9-4.5,0.2-8.5c-2.2-2.4-4.7-4.6-6.9-7c-0.4-0.4-0.7-0.9-1.1-1.3
			c2.4-9.5,6.1-18.4,11-26.5c0.8-0.9,1.4-1.8,1.7-2.8c0,0,0,0,0,0c0.3-0.5,0.6-1,1-1.5c1.4-2.1,2.9-4.2,4.5-6.2
			c2.1,3.6,2.3,7.8,0.8,11.7c-0.5,1.2-1.2,2.3-2.1,3.3c-0.8,0.9-1.7,1.7-2.5,2.6c-1.9,1.8-3.8,3.6-5.4,5.6c-3,3.7-2.5,7.1,1.2,10.2
			c2.2,1.8,4.6,3.2,6.8,5h0c4.1,3.4,5.9,7.6,5.9,12.7c0,5-2.5,8.9-5.9,12.4c-0.1,0.1-0.2,0.2-0.4,0.4c-1.8,1.8-3.8,3.5-5.6,5.3
			c-0.5,0.5-0.8,1.2-1.1,1.9c-0.2,0.7-0.3,1.5,0.4,2.1c2.2,2,4.4,4,6.6,5.9c0.5,0.4,0.9,0.8,1.4,1.2c2.6,2.2,4.9,4.6,6,7.8
			C350.4,328.1,350.7,331.8,349.9,335.6z"/>
		<path d="M352.2,369c-4-3.9-7.7-8.1-11-12.6c-0.4-0.5-0.8-1.1-1.1-1.6c0.5,0.4,1.1,0.8,1.7,1.2c2.4,1.7,4.7,3.5,6.5,5.8
			C350.1,364.1,351.4,366.5,352.2,369z"/>
		<path class="st2" d="M398,225.3c-1.1-0.9-2.3-1.8-3.4-2.8c0.2,0.2,0.5,0.4,0.7,0.7c0.6,0.5,1.3,1.1,1.9,1.5
			c0.4,0.3,0.8,0.6,1.1,0.9C398.2,225.5,398.1,225.4,398,225.3z M400.7,255.4c3.2-3.1,5.2-6.8,5.7-11.2
			C405.9,248.4,403.8,252.3,400.7,255.4z M405.6,235.8c0.2,0.8,0.4,1.6,0.6,2.4C406,237.4,405.9,236.6,405.6,235.8z M406.3,239.1
			c0.1,0.6,0.1,1.2,0.2,1.9C406.5,240.3,406.4,239.7,406.3,239.1z M409.2,198.4c0.5,0,0.8,0.2,1,0.6c0.1,0.1,0.1,0.3,0.1,0.4
			c0-0.1,0-0.3,0-0.4c0-0.2,0-0.4,0.1-0.6H409.2z"/>
		<path class="st2" d="M434.5,375.5c-0.6-0.4-1-0.6-1.2-0.9c0,0-0.1-0.1-0.1-0.1c-0.1-0.2-0.1-0.3,0-0.5c0,0,0-0.1,0.1-0.2
			c0-0.1,0.1-0.1,0.1-0.2c0.2-0.2,0.5-0.6,1-1c1-0.9,2.2-1.8,3.3-2.6c0.1-0.1,0.2-0.2,0.4-0.3c0.4-0.3,0.7-0.6,1-0.9
			c0,0,0.1-0.1,0.1-0.1c0.2-0.2,0.5-0.5,0.7-0.7c0.1-0.1,0.2-0.2,0.3-0.3c0.2-0.2,0.4-0.4,0.6-0.7c0.1-0.1,0.1-0.1,0.2-0.2
			c0.2-0.2,0.4-0.4,0.5-0.6c0.2-0.2,0.3-0.4,0.5-0.6c0.1-0.1,0.2-0.2,0.3-0.4c0.1-0.2,0.3-0.4,0.4-0.6c0.1-0.1,0.2-0.3,0.3-0.5
			c0.1-0.2,0.2-0.3,0.3-0.5c0.1-0.2,0.2-0.4,0.4-0.6c0.1-0.2,0.2-0.3,0.3-0.5c0.1-0.1,0.2-0.3,0.2-0.5c0.1-0.2,0.2-0.4,0.3-0.7
			c0.1-0.3,0.3-0.6,0.4-1c0.1-0.2,0.2-0.4,0.2-0.6c0.1-0.2,0.1-0.4,0.2-0.6c0.1-0.4,0.2-0.7,0.3-1.1c0-0.2,0.1-0.3,0.1-0.5
			c0.1-0.3,0.1-0.5,0.2-0.8c0.1-0.8,0.2-1.5,0.3-2.3c0-0.4,0-0.8,0-1.2c0-0.4,0-0.8,0-1.1c0-0.4,0-0.8-0.1-1.1
			c-0.5-5-3.1-9.1-7.2-12.5c-1.2-1-2.4-2.1-3.6-3.1c-1.2-1.1-2.3-2.1-3.5-3.2c-2-1.8-1.7-2.2-0.3-4.2c1-1.5,2.5-2.8,4-4
			c4.4-3.2,7-7.4,7.7-12.4c0.9-6-1.1-11.2-6-15.4c-2.4-2-4.9-4-7.2-6c-3-2.8-3.9-4.5-0.2-8.5c2.2-2.4,4.7-4.6,6.9-7
			c5.9-6.6,4.9-15.3-1.8-21.3c-1.9-1.6-3.9-3.1-5.9-4.6c-5.5-4.1-5.5-8.9-1.2-13.5c1.9-2.1,4.1-3.9,6.1-6c6-6.1,4.9-13.1-1.1-18.3
			c-2-1.7-4.2-3.1-6.3-4.7c-2.4-1.9-4-4.2-4.9-6.9c-0.1-0.3-0.2-0.6-0.5-0.8c0,0-0.1-0.1-0.1-0.1c0,0,0,0-0.1-0.1c0,0.1,0,0.1,0,0.2
			c-0.3,1.1-0.2,2.1,0.1,3.1c0.1,0.3,0.2,0.5,0.3,0.8c1.1,3,3.5,5.1,5.9,7.2c2.1,1.9,4.2,3.7,5.5,6.1c2,3.9,1.2,7.7-1.9,10.5
			c-2.3,2.1-4.7,4-7.2,5.8c-1,0.7-1.8,1.5-2.5,2.3c-3.3,3.9-4,9-2.1,13.6c0.5,1.2,1.2,2.3,2.1,3.3c0.8,0.9,1.7,1.7,2.5,2.6
			c1.9,1.8,3.8,3.6,5.4,5.6c3,3.7,2.5,7.1-1.2,10.2c-2.2,1.8-4.6,3.2-6.8,5h0c-4.1,3.4-5.9,7.6-5.9,12.7c0,5,2.5,8.9,5.9,12.4
			c0.1,0.1,0.2,0.2,0.3,0.4c1.8,1.8,3.8,3.5,5.6,5.3c0.5,0.5,0.8,1.2,1.1,1.9c0.2,0.7,0.3,1.5-0.4,2.1c-2.2,2-4.4,4-6.6,5.9
			c-0.5,0.4-0.9,0.8-1.4,1.2c-2.6,2.2-4.9,4.6-6,7.8c-1.3,3.6-1.5,7.3-0.8,11c0.9,4.3,3.7,7.5,7,10.4c0.4,0.4,0.8,0.7,1.2,1.1
			c1.1,1.1,2.2,2.3,3.3,3.4c1.3,1.4,1.1,2.2-0.4,3.4c-1,0.7-1.9,1.4-2.9,2.1c-2.4,1.7-4.7,3.5-6.5,5.8c-4.6,5.8-5.8,12.2-4.5,19.2
			c0.7,3.6,2,7,4.4,10.1c0,0,0.1,0.1,0.1,0.1c0.5,0.6,1,1.3,1.5,1.9c0.1,0.1,0.3,0.4,0.4,0.4c0.1,0,0.2,0,0.2,0
			c1,0.1,1.6,0.6,1.7,1.7c0,0.2,0.7,0.3,1.2,0.5c-0.1,0.7,0.2,1.1,1.2,1c0.3,0,0.7,0,1,0.1c0.3,0,0.6,0.1,0.9,0.1
			c9.2-0.1,18.1-1.5,26.5-4.1C446.9,385.3,441.5,379.8,434.5,375.5z"/>
		<path d="M449.4,392.8c-8.4,2.5-17.3,3.9-26.5,4.1c0.1,0,0.2,0,0.3,0h-0.3c0,0,0,0,0,0h0c0,0-0.1,0-0.1,0c0,0,0,0,0,0
			c-0.1,0-0.1,0-0.2,0c-0.4,0-0.8,0-1.2,0c-0.1,0-0.3,0-0.4,0c-0.5,0-1-0.2-1.3-0.5c-0.6-0.7-1.8-1.8-2.8-2.8c-1-1-1.9-1.9-2.2-2.3
			c0-0.1-0.1-0.1-0.1-0.1c-2.3-3-3.7-6.5-4.4-10.1c-1.3-7-0.1-13.4,4.5-19.2c1.8-2.3,4.2-4,6.5-5.8c1-0.7,2-1.4,2.9-2.1
			c1.5-1.2,1.7-1.9,0.4-3.4c-1.1-1.1-2.2-2.3-3.3-3.4c-0.4-0.4-0.8-0.8-1.2-1.1c-3.3-2.9-6.1-6.1-7-10.4c-0.8-3.8-0.5-7.4,0.8-11
			c1.1-3.2,3.5-5.5,6-7.8c0.5-0.4,0.9-0.8,1.4-1.2c2.2-2,4.4-4,6.6-5.9c0.7-0.6,0.7-1.4,0.4-2.1c-0.2-0.7-0.5-1.4-1.1-1.9
			c-1.8-1.8-3.8-3.5-5.6-5.3c-0.1-0.1-0.2-0.2-0.3-0.4c-3.4-3.5-5.9-7.5-5.9-12.4c0-5,1.8-9.3,5.9-12.7h0c2.2-1.8,4.6-3.2,6.8-5
			c3.7-3.1,4.2-6.5,1.2-10.2c-1.6-2-3.6-3.8-5.4-5.6c-0.9-0.9-1.7-1.7-2.5-2.6c-0.9-1-1.6-2.1-2.1-3.3c-1.8-4.6-1.1-9.7,2.1-13.6
			c0.7-0.8,1.5-1.6,2.5-2.3c2.5-1.9,5-3.8,7.2-5.8c3.1-2.8,3.9-6.6,1.9-10.5c-1.3-2.5-3.4-4.3-5.5-6.1c-2.3-2.1-4.8-4.2-5.9-7.2
			c-0.1-0.3-0.2-0.5-0.3-0.8c-0.3-1-0.4-2-0.1-3.1c0-0.1,0-0.1,0-0.2c0,0,0,0,0.1,0.1c0,0,0.1,0.1,0.1,0.1c0.2,0.2,0.4,0.5,0.5,0.8
			c0.9,2.7,2.5,5.1,4.9,6.9c2.1,1.6,4.3,3,6.3,4.7c6,5.1,7,12.2,1.1,18.3c-2,2-4.2,3.9-6.1,6c-4.2,4.6-4.3,9.4,1.2,13.5
			c2,1.5,4,3,5.9,4.6c6.7,5.9,7.7,14.7,1.8,21.3c-2.2,2.4-4.7,4.6-6.9,7c-3.7,4-2.9,5.7,0.2,8.5c2.3,2.1,4.8,4,7.2,6
			c4.8,4.2,6.8,9.4,6,15.4c-0.7,5-3.3,9.2-7.7,12.4c-1.5,1.1-3,2.5-4,4c-1.4,2-1.6,2.4,0.3,4.2c1.2,1.1,2.3,2.1,3.5,3.2
			c1.2,1.1,2.4,2.1,3.6,3.1c4,3.3,6.7,7.7,7.2,12.5c0,0.4,0.1,0.8,0.1,1.1c0,0.4,0,0.8,0,1.1c0,0.4,0,0.8,0,1.2
			c0,0.8-0.1,1.6-0.3,2.3c0,0.3-0.1,0.5-0.2,0.8c0,0.2-0.1,0.3-0.1,0.5c-0.1,0.4-0.2,0.7-0.3,1.1c-0.1,0.2-0.1,0.4-0.2,0.6
			c-0.1,0.2-0.1,0.4-0.2,0.6c-0.1,0.3-0.3,0.7-0.4,1c-0.1,0.2-0.2,0.4-0.3,0.7c-0.1,0.2-0.1,0.3-0.2,0.5c-0.1,0.2-0.2,0.3-0.3,0.5
			c-0.1,0.2-0.2,0.4-0.4,0.6c-0.1,0.2-0.2,0.3-0.3,0.5c-0.1,0.2-0.2,0.3-0.3,0.5c-0.1,0.2-0.3,0.4-0.4,0.6c-0.1,0.1-0.2,0.2-0.3,0.4
			c-0.1,0.2-0.3,0.4-0.5,0.6c-0.2,0.2-0.3,0.4-0.5,0.6c0,0.1-0.1,0.1-0.2,0.2c-0.2,0.2-0.4,0.5-0.6,0.7c-0.1,0.1-0.2,0.2-0.3,0.3
			c-0.2,0.2-0.5,0.5-0.7,0.7c0,0-0.1,0.1-0.1,0.1c-0.3,0.3-0.7,0.6-1,0.9c-0.4,0.3-0.7,0.6-1.1,0.9c-0.7,0.5-1.3,1-1.9,1.5
			c-0.2,0.2-0.4,0.4-0.6,0.6c-0.5,0.4-0.8,0.7-1,1c-0.1,0.1-0.1,0.1-0.1,0.2c0,0.1-0.1,0.1-0.1,0.2c-0.1,0.2,0,0.3,0,0.5
			c0,0,0.1,0.1,0.1,0.1c0.2,0.2,0.6,0.5,1.2,0.9C441.5,379.8,446.9,385.3,449.4,392.8z"/>
		<path d="M432.1,381c-0.7,3.6-2,7-4.4,10.1c-0.5,0.6-3.8,3.8-5.1,5.2c-0.2,0.2-0.5,0.4-0.7,0.4c-0.2,0.1-0.4,0.1-0.5,0.1
			c-0.1,0-0.1,0-0.2,0h-0.1c-0.3,0-0.6,0-1,0c-0.1,0-0.1,0-0.2,0h-0.1c-9.4-0.1-18.4-1.5-26.9-4.1c2.4-7.5,7.9-12.9,14.8-17.2
			c2.1-1.3,1.9-1.3-0.4-3.4c-0.6-0.5-1.3-1-1.9-1.5c-6.4-4.7-9.6-10.8-9.3-18.3c0.2-5.3,3-10.2,7.3-13.7c2.5-2,4.7-4.2,7-6.3
			c2-1.8,1.7-2.2,0.3-4.2c-1-1.5-2.5-2.8-4-4c-4.4-3.2-7-7.4-7.7-12.4c-0.9-6,1.1-11.2,6-15.4c2.4-2,4.9-4,7.2-6
			c3-2.8,3.9-4.5,0.2-8.5c-2.2-2.4-4.7-4.6-6.9-7c-5.9-6.6-4.9-15.3,1.8-21.3c1.9-1.6,3.9-3.1,5.9-4.6c5.5-4.1,5.5-8.9,1.2-13.5
			c-1.9-2.1-4.1-3.9-6.1-6c-6-6.1-4.9-13.1,1.1-18.3c2-1.7,4.2-3.1,6.3-4.7c2.4-1.9,4-4.2,4.9-6.9c0.1-0.3,0.2-0.6,0.5-0.8
			c0,0,0.1-0.1,0.1-0.1c0,0,0,0,0-0.1c0,0.1,0,0.1,0,0.2c0.3,1.1,0.2,2.1-0.1,3v0c-0.1,0.3-0.2,0.5-0.3,0.8c-1.1,3-3.5,5.1-5.9,7.2
			c-2,1.9-4.2,3.7-5.4,6.1c-2,3.9-1.2,7.7,1.9,10.5c2.3,2.1,4.8,4,7.2,5.8c1,0.7,1.8,1.5,2.5,2.3c3.3,3.9,4,9,2.1,13.6
			c-0.5,1.2-1.2,2.3-2.1,3.3c-0.8,0.9-1.7,1.7-2.5,2.6c-1.9,1.8-3.8,3.6-5.4,5.6c-3,3.7-2.5,7.1,1.2,10.2c2.2,1.8,4.6,3.2,6.8,5h0
			c4.1,3.4,5.9,7.6,5.9,12.7c0,5-2.5,8.9-5.9,12.4c-0.1,0.1-0.2,0.2-0.4,0.4c-1.8,1.8-3.8,3.5-5.6,5.3c-0.5,0.5-0.8,1.2-1.1,1.9
			c-0.2,0.7-0.3,1.5,0.4,2.1c2.2,2,4.4,4,6.6,5.9c0.5,0.4,0.9,0.8,1.4,1.2c2.6,2.2,4.9,4.6,6,7.8c1.3,3.6,1.6,7.3,0.8,11
			c-0.9,4.3-3.7,7.5-7,10.4c-0.4,0.4-0.8,0.7-1.2,1.1h0c-1.1,1.1-2.2,2.3-3.3,3.4c-1.3,1.4-1.1,2.2,0.4,3.4c1,0.7,1.9,1.4,2.9,2.1
			c2.4,1.7,4.7,3.5,6.5,5.8C432.3,367.5,433.4,374,432.1,381z"/>
		<path class="st2" d="M485.7,239.1c0-0.3-0.1-0.6-0.1-0.9c-0.1-0.8-0.3-1.6-0.6-2.4c-0.1-0.4-0.3-0.8-0.4-1.1
			c-0.1-0.4-0.3-0.8-0.5-1.1c-0.1-0.3-0.3-0.6-0.5-0.9c-0.1-0.2-0.2-0.4-0.3-0.5c-0.1-0.2-0.2-0.3-0.3-0.5c-0.1-0.1-0.2-0.3-0.3-0.4
			c-0.1-0.2-0.3-0.4-0.4-0.7c-0.1-0.1-0.1-0.2-0.2-0.3c-0.2-0.2-0.4-0.5-0.5-0.7c-0.1-0.1-0.1-0.2-0.2-0.2c-0.2-0.3-0.4-0.5-0.6-0.8
			c0-0.1-0.1-0.1-0.2-0.2c-0.2-0.2-0.4-0.4-0.6-0.7c-0.1-0.1-0.2-0.2-0.3-0.3c-0.2-0.2-0.5-0.5-0.7-0.7c0,0-0.1-0.1-0.1-0.1
			c-0.3-0.3-0.7-0.6-1-0.9c-0.1-0.1-0.2-0.2-0.4-0.3c-1.1-0.9-2.3-1.8-3.4-2.8c-0.4-0.4-0.7-0.6-0.9-0.9c-0.1-0.1-0.1-0.1-0.1-0.2
			c0-0.1-0.1-0.1-0.1-0.2c-0.2-0.5,0.3-0.8,1.4-1.5c1.5-1,3-2,4.4-3.1c-2.4-1.7-4.8-3.3-7.3-4.7c-5.4-3.2-11.1-5.8-17.1-7.9h0
			c0,0-0.1,0.1-0.1,0.1c-2.3,3-3.7,6.4-4.4,10.1c-1.3,6.9-0.1,13.4,4.5,19.2c1.8,2.3,4.2,4,6.5,5.8c1,0.7,2,1.4,2.9,2.1
			c1.5,1.2,1.7,1.9,0.4,3.4c-1.1,1.1-2.1,2.3-3.3,3.4c-0.4,0.4-0.8,0.8-1.2,1.1c-3.3,2.9-6.1,6.1-7,10.4c-0.8,3.8-0.5,7.4,0.8,11
			c1.1,3.1,3.5,5.5,6,7.8c0.5,0.4,0.9,0.8,1.4,1.2c2.2,2,4.4,4,6.6,5.9c0.7,0.6,0.7,1.4,0.4,2.1c-0.2,0.7-0.5,1.4-1,1.9
			c-1.8,1.8-3.8,3.5-5.6,5.3c-0.1,0.1-0.2,0.2-0.3,0.4c-3.4,3.5-5.9,7.5-5.9,12.4c0,5,1.8,9.3,5.9,12.7c2.2,1.8,4.6,3.2,6.8,5
			c3.8,3.1,4.2,6.5,1.2,10.2c-1.6,2-3.6,3.8-5.4,5.6c-0.9,0.9-1.7,1.7-2.5,2.6c-0.9,1-1.6,2.1-2.1,3.3c-1.9,4.6-1.1,9.7,2.1,13.6
			c0.7,0.8,1.5,1.6,2.5,2.3c2.5,1.9,5,3.8,7.2,5.8c3,2.8,3.9,6.6,1.9,10.5c-1.3,2.5-3.4,4.3-5.5,6.1c0,0,0,0,0,0
			c3.1-1.6,6.1-3.3,8.9-5.3c0,0,0,0,0,0c2.8-4.5,2.4-9.8-2.2-14.5c-2-2-4.2-3.9-6.1-6c-4.2-4.6-4.2-9.4,1.3-13.5c2-1.5,4-3,5.9-4.6
			c6.7-5.9,7.7-14.7,1.8-21.3c-2.2-2.4-4.7-4.6-6.9-7c-3.7-4-2.9-5.7,0.2-8.5c2.3-2.1,4.8-4,7.2-6c4.8-4.2,6.8-9.4,6-15.4
			c-0.7-5-3.4-9.2-7.8-12.4c-1.5-1.1-3-2.5-4-4c-1.4-2-1.6-2.4,0.3-4.2c1.7-1.6,3.5-3.2,5.2-4.8c0.6-0.5,1.2-1,1.8-1.5
			c0.5-0.4,1-0.9,1.5-1.4c3.2-3.1,5.2-6.8,5.7-11.2c0-0.4,0.1-0.8,0.1-1.1c0-0.7,0-1.4,0-2.1C485.8,240.3,485.8,239.7,485.7,239.1z"
			/>
		<path d="M485.9,241c0,0.7,0,1.4,0,2.1c0,0.4,0,0.8-0.1,1.1c-0.5,4.2-2.6,8.1-5.7,11.2c-0.5,0.5-1,0.9-1.5,1.4
			c-0.6,0.5-1.2,1-1.8,1.5c-1.8,1.6-3.5,3.2-5.2,4.8c-2,1.8-1.7,2.2-0.3,4.2c1,1.5,2.5,2.8,4,4c4.4,3.2,7,7.4,7.8,12.4
			c0.8,6-1.1,11.2-6,15.4c-2.4,2-4.9,4-7.2,6c-3,2.8-3.9,4.5-0.2,8.5c2.2,2.4,4.7,4.6,6.9,7c5.9,6.6,4.9,15.3-1.8,21.3
			c-1.9,1.6-3.9,3.1-5.9,4.6c-5.5,4.1-5.5,8.9-1.3,13.5c1.9,2.1,4.1,4,6.1,6c4.6,4.7,5,10,2.2,14.5c0,0,0,0,0,0
			c-2.9,1.9-5.9,3.7-8.9,5.3c0,0,0,0,0,0c2-1.9,4.2-3.7,5.5-6.1c2-3.9,1.2-7.7-1.9-10.5c-2.3-2.1-4.8-4-7.2-5.8
			c-0.9-0.7-1.8-1.5-2.5-2.3c-3.3-3.9-4-9-2.1-13.6c0.5-1.2,1.2-2.3,2.1-3.3c0.8-0.9,1.7-1.8,2.5-2.6c1.9-1.8,3.8-3.6,5.4-5.6
			c3-3.7,2.5-7.1-1.2-10.2c-2.1-1.8-4.6-3.2-6.8-5c-4.1-3.4-5.9-7.6-5.9-12.7c0-5,2.5-8.9,5.9-12.4c0.1-0.1,0.2-0.2,0.3-0.4
			c1.8-1.8,3.8-3.5,5.6-5.3c0.5-0.5,0.8-1.3,1-1.9c0.3-0.7,0.3-1.5-0.4-2.1c-2.2-2-4.4-4-6.6-5.9c-0.5-0.4-0.9-0.8-1.4-1.2
			c-2.6-2.2-4.9-4.6-6-7.8c-1.3-3.6-1.5-7.3-0.8-11c0.9-4.3,3.7-7.5,7-10.4c0.4-0.4,0.8-0.7,1.2-1.1c1.1-1.1,2.2-2.3,3.3-3.4
			c1.3-1.4,1.1-2.2-0.4-3.4c-1-0.7-1.9-1.4-2.9-2.1c-2.4-1.7-4.7-3.5-6.5-5.8c-4.6-5.8-5.8-12.2-4.5-19.2c0.7-3.6,2-7.1,4.4-10.1
			c0,0,0.1-0.1,0.1-0.1c6,2.1,11.7,4.8,17.1,7.9c2.5,1.5,5,3.1,7.3,4.7c-1.4,1.1-2.8,2.1-4.4,3.1c-1.1,0.7-1.6,1-1.4,1.5
			c0,0.1,0,0.1,0.1,0.2c0,0.1,0.1,0.1,0.1,0.2c0.2,0.2,0.5,0.5,0.9,0.9c0.2,0.2,0.5,0.4,0.7,0.7c0.6,0.5,1.3,1.1,1.9,1.5
			c0.4,0.3,0.8,0.6,1.1,0.9c0.4,0.3,0.7,0.6,1,0.9c0,0,0.1,0.1,0.1,0.1c0.2,0.2,0.5,0.5,0.7,0.7c0.1,0.1,0.2,0.2,0.3,0.3
			c0.2,0.2,0.4,0.4,0.6,0.7c0.1,0.1,0.1,0.1,0.2,0.2c0.2,0.2,0.4,0.5,0.6,0.8c0.1,0.1,0.1,0.2,0.2,0.2c0.2,0.2,0.4,0.5,0.5,0.7
			c0.1,0.1,0.2,0.2,0.2,0.3c0.1,0.2,0.3,0.4,0.4,0.7c0.1,0.1,0.2,0.3,0.3,0.4c0.1,0.1,0.2,0.3,0.3,0.5c0.1,0.2,0.2,0.4,0.3,0.5
			c0.2,0.3,0.3,0.6,0.5,0.9c0.2,0.4,0.3,0.7,0.5,1.1c0.1,0.4,0.3,0.8,0.4,1.1c0.2,0.8,0.4,1.6,0.6,2.4c0.1,0.3,0.1,0.6,0.1,0.9
			C485.8,239.7,485.8,240.3,485.9,241z"/>
		<path d="M469,259.7c0.8,3.8,0.5,7.4-0.8,11c-1.1,3.1-3.5,5.5-6,7.8c-0.5,0.4-0.9,0.8-1.4,1.2c-2.2,2-4.4,4-6.6,5.9
			c-0.7,0.6-0.7,1.4-0.4,2.1c0.2,0.7,0.5,1.4,1,1.9c1.8,1.8,3.8,3.5,5.6,5.3l0.4,0.4c3.4,3.5,5.9,7.5,5.9,12.4c0,5-1.8,9.3-5.9,12.7
			c-2.2,1.8-4.6,3.2-6.8,5c-3.8,3.1-4.2,6.5-1.2,10.2c1.6,2,3.6,3.8,5.4,5.6c0.9,0.9,1.7,1.7,2.5,2.6c0.9,1,1.6,2.1,2.1,3.3
			c1.9,4.6,1.1,9.7-2.1,13.6c-0.7,0.8-1.5,1.6-2.5,2.3c-2.5,1.9-5,3.8-7.2,5.8c-3.1,2.8-3.9,6.6-1.9,10.5c1.3,2.5,3.4,4.3,5.5,6.1
			c1.4,1.2,2.8,2.5,3.9,3.9c-0.6,0.2-1.2,0.5-1.8,0.7c-0.5-0.5-1-0.9-1.5-1.3c-2.1-1.6-4.3-3-6.3-4.7c-6-5.2-7-12.2-1.1-18.3
			c2-2,4.2-3.9,6.1-6c4.2-4.6,4.2-9.4-1.3-13.5c-2-1.5-4-3-5.9-4.6c-6.7-5.9-7.7-14.7-1.8-21.3c2.2-2.4,4.7-4.6,6.9-7
			c3.7-4,2.9-5.7-0.2-8.5c-2.3-2.1-4.8-4-7.2-6c-4.8-4.2-6.8-9.4-6-15.4c0.7-5,3.4-9.2,7.8-12.4c1.5-1.1,3-2.5,4-4
			c1.4-2,1.6-2.4-0.3-4.2c-2.3-2.1-4.6-4.3-7-6.3c-4.3-3.5-7.1-8.4-7.3-13.7c-0.3-7.4,2.8-13.6,9.3-18.3c0.7-0.5,1.3-1,1.9-1.5
			c2.4-2.1,2.5-2.1,0.4-3.4c-7.3-4.5-12.9-10.3-15.1-18.3c-0.2-0.6-0.3-1.3-0.3-1.9c0-0.2,0-0.4,0.1-0.6c7.7,0.8,15.2,2.6,22.3,5.1
			h0c6,2.1,11.7,4.8,17.1,7.9c0.2,0.8,0.4,1.5,0.5,2.3c1.3,6.9,0.1,13.4-4.5,19.2c-1.8,2.3-4.2,4-6.5,5.8c-1,0.7-2,1.4-2.9,2.1
			c-1.5,1.2-1.7,1.9-0.4,3.4c1.1,1.1,2.1,2.3,3.3,3.4c0.4,0.4,0.8,0.8,1.2,1.1C465.3,252.2,468.1,255.4,469,259.7z"/>
		<path class="st2" d="M516.7,296.3c-2.4-2-4.9-4-7.2-6c-3-2.8-3.9-4.5-0.2-8.5c2.2-2.4,4.7-4.6,6.9-7c0.4-0.5,0.8-1,1.2-1.5
			c-2.3-9.2-6-17.9-10.7-25.9c-1.1-1.2-1.9-2.4-2.2-3.6c-0.3-0.4-0.6-0.9-0.9-1.3v0c-1.4-2.1-2.9-4.1-4.4-6.1
			c-2.1,3.6-2.4,7.8-0.8,11.8c0.5,1.2,1.2,2.3,2.1,3.3c0.8,0.9,1.7,1.7,2.5,2.6c1.9,1.8,3.8,3.6,5.4,5.6c3,3.7,2.5,7.1-1.2,10.2
			c-2.2,1.8-4.6,3.2-6.8,5h0c-4.1,3.4-5.9,7.6-5.9,12.7c0,5,2.5,8.9,5.9,12.4c0.1,0.1,0.2,0.2,0.3,0.4c1.8,1.8,3.8,3.5,5.6,5.3
			c0.5,0.5,0.8,1.2,1.1,1.9c0.2,0.7,0.3,1.5-0.4,2.1c-2.2,2-4.4,4-6.6,5.9c-0.5,0.4-0.9,0.8-1.4,1.2c-2.6,2.2-4.9,4.6-6,7.8
			c-1.3,3.6-1.5,7.3-0.8,11c0.9,4.3,3.7,7.5,7,10.4c0.4,0.4,0.8,0.7,1.2,1.1c1.1,1.1,2.2,2.3,3.3,3.4c0.4,0.4,0.6,0.7,0.7,1
			c3.5-5.4,6.5-11.2,8.9-17.2c-0.7-0.7-1.5-1.4-2.2-2c-2-1.8-1.7-2.2-0.3-4.2c1-1.5,2.5-2.8,4-4c0.9-0.6,1.7-1.3,2.5-2.1
			c1.8-6.9,2.8-14.1,3-21.6C519.4,299,518.2,297.6,516.7,296.3z M500.4,356c-2.4,1.7-4.7,3.5-6.5,5.8c-1.9,2.4-3.2,4.8-4,7.4
			c4.1-3.9,7.8-8.1,11.1-12.7c0.5-0.6,0.9-1.3,1.4-1.9C501.8,355,501.1,355.5,500.4,356z"/>
		<path d="M501,356.5c-3.4,4.5-7.1,8.8-11.1,12.7c0.8-2.6,2.1-5,4-7.4c1.8-2.3,4.2-4,6.5-5.8c0.7-0.5,1.4-1,2-1.5
			C502,355.2,501.5,355.8,501,356.5z"/>
		<path d="M520.3,300.4c-0.2,7.4-1.2,14.6-3,21.6c-0.7,0.7-1.6,1.4-2.5,2.1c-1.5,1.1-3,2.5-4,4c-1.4,2-1.6,2.4,0.3,4.2
			c0.7,0.7,1.5,1.4,2.2,2c-2.4,6.1-5.4,11.8-8.9,17.2c-0.1-0.3-0.4-0.6-0.7-1c-1.1-1.1-2.2-2.3-3.3-3.4c-0.4-0.4-0.8-0.8-1.2-1.1
			c-3.3-2.9-6.1-6.1-7-10.4c-0.8-3.8-0.5-7.4,0.8-11c1.1-3.2,3.5-5.5,6-7.8c0.5-0.4,0.9-0.8,1.4-1.2c2.2-2,4.4-4,6.6-5.9
			c0.7-0.6,0.7-1.4,0.4-2.1c-0.2-0.7-0.5-1.4-1.1-1.9c-1.8-1.8-3.8-3.5-5.6-5.3c-0.1-0.1-0.2-0.2-0.3-0.4c-3.4-3.5-5.9-7.5-5.9-12.4
			c0-5,1.8-9.3,5.9-12.7h0c2.2-1.8,4.6-3.2,6.8-5c3.7-3.1,4.2-6.5,1.2-10.2c-1.6-2-3.6-3.8-5.4-5.6c-0.9-0.9-1.7-1.7-2.5-2.6
			c-0.9-1-1.6-2.1-2.1-3.3c-1.6-3.9-1.3-8.2,0.8-11.8c1.5,2,3,4,4.4,6.1v0c0.3,0.4,0.6,0.9,0.9,1.3c0.4,1.2,1.1,2.5,2.2,3.6
			c4.7,8,8.4,16.7,10.7,26c-0.4,0.5-0.8,1-1.2,1.5c-2.2,2.4-4.7,4.6-6.9,7c-3.7,4-2.9,5.7,0.2,8.5c2.3,2.1,4.8,4,7.2,6
			C518.2,297.6,519.4,299,520.3,300.4z"/>
		<path d="M508.6,335.6c-0.9,4.3-3.7,7.5-7,10.4c-0.4,0.4-0.8,0.7-1.2,1.1c-1.1,1.1-2.2,2.2-3.3,3.4c-1.3,1.4-1.1,2.2,0.4,3.4
			c1,0.7,1.9,1.4,2.9,2.1c0.2,0.1,0.4,0.3,0.6,0.5c-3.4,4.5-7.1,8.8-11.1,12.7l0,0c-1.1,1-2.1,2-3.3,3c0,0-0.1-0.1-0.1-0.1
			c-0.6-0.5-1.3-1-1.9-1.5c-6.4-4.7-9.6-10.8-9.3-18.3c0.2-5.3,3-10.2,7.3-13.7c2.5-2,4.7-4.2,7-6.3c2-1.8,1.7-2.2,0.3-4.2
			c-1-1.5-2.5-2.8-4-4c-4.4-3.2-7-7.4-7.7-12.4c-0.9-6,1.1-11.2,6-15.4c2.4-2,4.9-4,7.2-6c3-2.8,3.9-4.5,0.2-8.5
			c-2.2-2.4-4.7-4.6-6.9-7c-5.9-6.6-4.9-15.3,1.8-21.3c1.9-1.6,3.9-3.1,5.9-4.6c5.5-4.1,5.5-8.9,1.2-13.5c-1.9-2.1-4.1-3.9-6.1-6
			c-2.7-2.8-4-5.8-4-8.8c5.7,4.6,10.9,9.9,15.5,15.7c1.5,2,3,4,4.4,6.1v0c0.1,1.9-0.2,3.8-1,5.7c-0.5,1.2-1.2,2.3-2.1,3.3
			c-0.8,0.9-1.7,1.7-2.5,2.6c-1.9,1.8-3.8,3.6-5.4,5.6c-3,3.7-2.5,7.1,1.2,10.2c2.2,1.8,4.6,3.2,6.8,5h0c4.1,3.4,5.9,7.6,5.9,12.7
			c0,5-2.5,8.9-5.9,12.4c-0.1,0.1-0.2,0.2-0.4,0.4c-1.8,1.8-3.8,3.5-5.6,5.3c-0.5,0.5-0.8,1.2-1.1,1.9c-0.2,0.7-0.3,1.5,0.4,2.1
			c2.2,2,4.4,4,6.6,5.9c0.5,0.4,0.9,0.8,1.4,1.2c2.6,2.2,4.9,4.6,6,7.8C509.2,328.1,509.4,331.8,508.6,335.6z"/>
		<path d="M520.3,294.9c-2.2-3.3-3-7.1-2.4-11.3c0.2-1.2,0.5-2.4,0.9-3.5C519.7,284.9,520.2,289.9,520.3,294.9z"/>
	</g>
	<path class="st3" d="M323.4,280.4c-0.8,4.7-1.3,9.5-1.5,14.4"/>
	<path class="st4" d="M410.2,199c-7.7,0.8-15.2,2.6-22.3,5.1c-6,2.1-11.7,4.8-17.1,8c-2.5,1.4-4.9,3-7.2,4.7c1.4,1.1,2.8,2.1,4.3,3
		c2.1,1.3,1.9,1.3-0.4,3.4c-0.6,0.5-1.3,1.1-1.9,1.5c-6.4,4.7-9.6,10.8-9.3,18.3c0.2,5.3,3,10.2,7.3,13.7c2.5,2,4.7,4.2,7,6.3
		c2,1.8,1.7,2.2,0.3,4.2c-1,1.5-2.5,2.8-4,4c-4.4,3.2-7,7.4-7.8,12.4c-0.8,6,1.1,11.2,6,15.4c2.4,2,4.9,4,7.2,6
		c3,2.8,3.9,4.5,0.2,8.5c-2.2,2.4-4.7,4.6-6.9,7c-5.9,6.6-4.9,15.3,1.8,21.3c1.9,1.6,3.9,3.1,5.9,4.6c5.5,4.1,5.5,8.9,1.3,13.5
		c-1.9,2.1-4.1,4-6.1,6c-4.5,4.6-5,9.8-2.3,14.3c2.9,1.9,5.8,3.7,8.9,5.3c-2-1.8-4.1-3.6-5.3-6c-2-3.9-1.2-7.7,1.9-10.5
		c2.3-2.1,4.8-4,7.2-5.8c0.9-0.7,1.8-1.5,2.5-2.3c0.7,0.8,1.5,1.6,2.5,2.3c2.5,1.9,5,3.8,7.2,5.8c3,2.8,3.9,6.6,1.9,10.5
		c-1.3,2.5-3.4,4.3-5.5,6.1c-1.4,1.2-2.8,2.5-3.9,3.8c0.6,0.2,1.2,0.5,1.8,0.7c0.5-0.5,0.9-0.9,1.5-1.3c2.1-1.6,4.3-3,6.3-4.7
		c6-5.2,7-12.2,1.1-18.3c-2-2-4.2-3.9-6.1-6c-4.2-4.6-4.2-9.4,1.3-13.5c2-1.5,4-3,5.9-4.6c6.7-5.9,7.7-14.7,1.8-21.3
		c-2.2-2.4-4.7-4.6-6.9-7c-2.6-2.8-3-4.5-1.9-6.2c0.1-0.2,0.3-0.5,0.5-0.7c0.1-0.1,0.1-0.2,0.2-0.2c0.1-0.1,0.1-0.2,0.2-0.2
		c0.1-0.1,0.2-0.2,0.2-0.3c0.3-0.3,0.5-0.5,0.8-0.8c0.1-0.1,0.2-0.2,0.3-0.3c0.5-0.4,0.9-0.9,1.4-1.2c0.6-0.5,1.2-1,1.8-1.5
		c1.2-1,2.4-2,3.6-3c4.8-4.2,6.8-9.4,6-15.4c-0.7-5-3.4-9.2-7.8-12.4c-1.5-1.1-3-2.5-4-4c-1.4-2-1.6-2.4,0.3-4.2
		c1.7-1.6,3.5-3.2,5.2-4.8c0.6-0.5,1.2-1,1.8-1.5c0.5-0.4,1-0.9,1.5-1.4c3.1-3.1,5.2-7,5.7-11.2c0-0.4,0.1-0.8,0.1-1.1
		c0-0.7,0-1.4,0-2.1c0-0.6-0.1-1.3-0.2-1.9c0-0.3-0.1-0.6-0.1-0.9c-0.1-0.8-0.4-1.6-0.6-2.4c-0.1-0.4-0.3-0.8-0.4-1.1
		c-0.1-0.4-0.3-0.8-0.5-1.1s-0.4-0.7-0.5-1.1c-0.2-0.3-0.3-0.6-0.5-0.9c-0.1-0.1-0.2-0.3-0.3-0.4c-0.1-0.2-0.3-0.4-0.4-0.7
		c-0.1-0.1-0.1-0.2-0.2-0.3c-0.2-0.2-0.4-0.5-0.5-0.7c-0.1-0.1-0.1-0.2-0.2-0.2c-0.2-0.3-0.4-0.5-0.6-0.8c0-0.1-0.1-0.1-0.2-0.2
		c-0.2-0.2-0.4-0.4-0.6-0.7c-0.1-0.1-0.2-0.2-0.3-0.3c-0.2-0.2-0.5-0.5-0.7-0.7c0,0-0.1-0.1-0.1-0.1c-0.3-0.3-0.7-0.6-1-0.9
		c-0.4-0.3-0.7-0.6-1.1-0.9c-0.7-0.5-1.3-1-1.9-1.5c-0.3-0.2-0.5-0.5-0.7-0.7c-0.4-0.4-0.7-0.7-0.9-0.9c0-0.1-0.1-0.1-0.1-0.2
		c0-0.1-0.1-0.1-0.1-0.2c-0.2-0.5,0.3-0.8,1.4-1.5c7.3-4.5,12.9-10.3,15.1-18.3c0-0.1,0.1-0.2,0.1-0.4c0-0.1,0-0.2,0.1-0.3
		c0-0.1,0-0.2,0-0.3c0-0.2,0-0.3,0.1-0.5c0-0.2,0-0.3,0.1-0.5c0,0,0-0.1,0-0.1C410.4,199.3,410.3,199.2,410.2,199z M384.3,241.4
		c1.5,1.2,1.7,1.9,0.4,3.4c-1.1,1.1-2.1,2.3-3.3,3.4c-1.1-1.1-2.2-2.3-3.3-3.4c-1.3-1.4-1.1-2.2,0.4-3.4c1-0.7,1.9-1.4,2.9-2.1
		C382.4,240,383.3,240.7,384.3,241.4z M388.1,325.5c3.8,3.1,4.2,6.5,1.2,10.2c-1.6,2-3.6,3.8-5.4,5.6c-0.9,0.9-1.8,1.7-2.5,2.6
		c-0.8-0.9-1.7-1.8-2.5-2.6c-1.9-1.8-3.8-3.6-5.4-5.6c-3-3.7-2.5-7.1,1.2-10.2c2.1-1.8,4.6-3.2,6.8-5
		C383.5,322.3,386,323.7,388.1,325.5z M388.4,287.8c-0.2,0.7-0.5,1.4-1,1.9c-1.8,1.8-3.8,3.5-5.6,5.3c-0.1,0.1-0.2,0.2-0.3,0.4
		c-0.1-0.1-0.2-0.2-0.4-0.4c-1.8-1.8-3.8-3.5-5.6-5.3c-0.5-0.5-0.8-1.3-1-1.9c-0.3-0.7-0.3-1.5,0.4-2.1c2.2-2,4.4-4,6.6-5.9
		c2.2,2,4.4,4,6.6,5.9C388.7,286.3,388.7,287.1,388.4,287.8z"/>
	<path class="st3" d="M374.6,360c-1.9,2.1-4.1,4-6.1,6c-4.5,4.6-5,9.8-2.3,14.3c-3.7-2.5-7.3-5.2-10.6-8.2l0,0
		c-1.2-1-2.3-2.1-3.4-3.1c-4-3.9-7.7-8.1-11-12.6c-0.4-0.5-0.8-1.1-1.1-1.6c0,0,0,0,0,0c-0.8-1.1-1.6-2.2-2.3-3.4
		c-3.5-5.4-6.5-11.2-8.9-17.2c-1.5-3.9-2.8-7.9-3.9-12c-1.8-7-2.8-14.4-3-22c0-0.9,0-1.7,0-2.6c0-1,0-2,0-2.9
		c0.1-4.9,0.6-9.7,1.5-14.4c0.4-2.3,0.9-4.7,1.5-6.9c2.4-9.5,6.1-18.4,11-26.5c0.5-0.9,1.1-1.9,1.7-2.8c0,0,0,0,0,0
		c0.3-0.5,0.6-1,1-1.5c1.4-2.1,2.9-4.2,4.5-6.2c4.5-5.8,9.7-11.1,15.4-15.7c1.7-1.4,3.4-2.7,5.1-3.9c1.4,1.1,2.8,2.1,4.3,3
		c2.1,1.3,1.9,1.3-0.4,3.4c-0.6,0.5-1.3,1.1-1.9,1.5c-6.4,4.7-9.6,10.8-9.3,18.3c0.2,5.3,3,10.2,7.3,13.7c2.5,2,4.7,4.2,7,6.3
		c2,1.8,1.7,2.2,0.3,4.2c-1,1.5-2.5,2.8-4,4c-4.4,3.2-7,7.4-7.8,12.4c-0.8,6,1.1,11.2,6,15.4c2.4,2,4.9,4,7.2,6
		c3,2.8,3.9,4.5,0.2,8.5c-2.2,2.4-4.7,4.6-6.9,7c-5.9,6.6-4.9,15.3,1.8,21.3c1.9,1.6,3.9,3.1,5.9,4.6
		C378.9,350.5,378.9,355.4,374.6,360z"/>
	<path class="st3" d="M384.7,244.8c-1.1,1.1-2.1,2.3-3.3,3.4c-1.1-1.1-2.2-2.3-3.3-3.4c-1.3-1.4-1.1-2.2,0.4-3.4
		c1-0.7,1.9-1.4,2.9-2.1c1,0.7,2,1.4,2.9,2.1C385.8,242.6,386,243.4,384.7,244.8z"/>
	<path class="st3" d="M388.4,287.8c-0.2,0.7-0.5,1.4-1,1.9c-1.8,1.8-3.8,3.5-5.6,5.3c-0.1,0.1-0.2,0.2-0.3,0.4
		c-0.1-0.1-0.2-0.2-0.4-0.4c-1.8-1.8-3.8-3.5-5.6-5.3c-0.5-0.5-0.8-1.3-1-1.9c-0.3-0.7-0.3-1.5,0.4-2.1c2.2-2,4.4-4,6.6-5.9
		c2.2,2,4.4,4,6.6,5.9C388.7,286.3,388.7,287.1,388.4,287.8z"/>
	<path class="st3" d="M389.4,335.7c-1.6,2-3.6,3.8-5.4,5.6c-0.9,0.9-1.8,1.7-2.5,2.6c-0.8-0.9-1.7-1.8-2.5-2.6
		c-1.9-1.8-3.8-3.6-5.4-5.6c-3-3.7-2.5-7.1,1.2-10.2c2.1-1.8,4.6-3.2,6.8-5c2.2,1.8,4.6,3.2,6.8,5
		C391.9,328.6,392.3,332,389.4,335.7z"/>
	<path class="st3" d="M393,379.5c-1.3,2.5-3.4,4.3-5.5,6.1c-1.4,1.2-2.8,2.5-3.9,3.8c-2.9-1.2-5.8-2.5-8.5-4c-2-1.8-4.1-3.6-5.3-6
		c-2-3.9-1.2-7.7,1.9-10.5c2.3-2.1,4.8-4,7.2-5.8c0.9-0.7,1.8-1.5,2.5-2.3c0.7,0.8,1.5,1.6,2.5,2.3c2.5,1.9,5,3.8,7.2,5.8
		C394.1,371.8,395,375.6,393,379.5z"/>
	<path class="st3" d="M520.4,297.6c0,0.9,0,1.9,0,2.8c-0.2,7.4-1.2,14.6-3,21.6c-1.1,4.2-2.4,8.3-4,12.2c-2.4,6.1-5.4,11.8-8.9,17.2
		c-0.7,1-1.3,2-2,3v0c-0.5,0.6-0.9,1.3-1.4,1.9c-3.4,4.5-7.1,8.8-11.1,12.7l0,0c-1.1,1-2.1,2-3.3,3c-3.4,3-7,5.8-10.8,8.3
		c0,0,0,0,0,0c-2.9,1.9-5.9,3.7-8.9,5.3c0,0,0,0,0,0c0,0,0,0,0,0c-2.7,1.4-5.5,2.7-8.3,3.8c-0.6,0.2-1.2,0.5-1.8,0.7
		c-2.4,0.9-4.9,1.8-7.4,2.5c-8.4,2.5-17.3,3.9-26.5,4.1c0,0,0,0,0,0s0,0,0,0h0c0,0-0.1,0-0.1,0c0,0,0,0,0,0c-0.1,0-0.1,0-0.2,0
		c-0.4,0-0.8,0-1.2,0c-0.4,0-0.7,0-1,0c-0.1,0-0.1,0-0.2,0h-0.1c-9.4-0.1-18.4-1.5-26.9-4.1c-2.5-0.7-5-1.6-7.4-2.5
		c0.5-0.5,0.9-0.9,1.5-1.3c2.1-1.6,4.3-3,6.3-4.7c6-5.2,7-12.2,1.1-18.3c-2-2-4.2-3.9-6.1-6c-4.2-4.6-4.2-9.4,1.3-13.5
		c2-1.5,4-3,5.9-4.6c6.7-5.9,7.7-14.7,1.8-21.3c-2.2-2.4-4.7-4.6-6.9-7c-2.6-2.8-3-4.5-1.9-6.2c0.1-0.2,0.3-0.5,0.5-0.7
		c0.1-0.1,0.1-0.2,0.2-0.2c0.1-0.1,0.1-0.2,0.2-0.2c0.1-0.1,0.2-0.2,0.2-0.3c0.3-0.3,0.5-0.5,0.8-0.8c0.1-0.1,0.2-0.2,0.3-0.3
		c0.5-0.4,0.9-0.9,1.4-1.2c0.6-0.5,1.2-1,1.8-1.5c1.2-1,2.4-2,3.6-3c4.8-4.2,6.8-9.4,6-15.4c-0.7-5-3.4-9.2-7.8-12.4
		c-1.5-1.1-3-2.5-4-4c-1.4-2-1.6-2.4,0.3-4.2c1.7-1.6,3.5-3.2,5.2-4.8c0.6-0.5,1.2-1,1.8-1.5c0.5-0.4,1-0.9,1.5-1.4
		c3.1-3.1,5.2-7,5.7-11.2c0-0.4,0.1-0.8,0.1-1.1c0-0.7,0-1.4,0-2.1c0-0.6-0.1-1.3-0.2-1.9c0-0.3-0.1-0.6-0.1-0.9
		c-0.1-0.8-0.4-1.6-0.6-2.4c-0.1-0.4-0.3-0.8-0.4-1.1c-0.1-0.4-0.3-0.8-0.5-1.1s-0.4-0.7-0.5-1.1c-0.2-0.3-0.3-0.6-0.5-0.9
		c-0.1-0.1-0.2-0.3-0.3-0.4c-0.1-0.2-0.3-0.4-0.4-0.7c-0.1-0.1-0.1-0.2-0.2-0.3c-0.2-0.2-0.4-0.5-0.5-0.7c-0.1-0.1-0.1-0.2-0.2-0.2
		c-0.2-0.3-0.4-0.5-0.6-0.8c0-0.1-0.1-0.1-0.2-0.2c-0.2-0.2-0.4-0.4-0.6-0.7c-0.1-0.1-0.2-0.2-0.3-0.3c-0.2-0.2-0.5-0.5-0.7-0.7
		c0,0-0.1-0.1-0.1-0.1c-0.3-0.3-0.7-0.6-1-0.9c-0.4-0.3-0.7-0.6-1.1-0.9c-0.7-0.5-1.3-1-1.9-1.5c-0.3-0.2-0.5-0.5-0.7-0.7
		c-0.4-0.4-0.7-0.7-0.9-0.9c0-0.1-0.1-0.1-0.1-0.2c0-0.1-0.1-0.1-0.1-0.2c-0.2-0.5,0.3-0.8,1.4-1.5c7.3-4.5,12.9-10.3,15.1-18.3
		c0-0.1,0.1-0.2,0.1-0.4c0-0.1,0-0.2,0.1-0.3c0-0.1,0-0.2,0-0.3c0-0.2,0-0.3,0.1-0.5c0-0.2,0-0.3,0.1-0.5c0,0,0-0.1,0-0.1
		c0-0.1,0-0.3-0.1-0.4c0,0,0.1,0,0.2,0c3.5-0.4,7-0.6,10.6-0.6h0.1c3.6,0,7.2,0.2,10.8,0.6c7.7,0.8,15.2,2.6,22.3,5.1h0
		c6,2.1,11.7,4.8,17.1,7.9c2.5,1.5,5,3.1,7.3,4.7c1.7,1.2,3.4,2.5,5,3.8c5.7,4.6,10.9,9.9,15.5,15.7c1.5,2,3,4,4.4,6.1v0
		c0.3,0.4,0.6,0.9,0.9,1.3c0.8,1.2,1.5,2.4,2.2,3.6c4.7,8,8.4,16.7,10.7,25.9c0.6,2.2,1,4.5,1.5,6.8v0c0,0,0,0,0,0
		c0.9,4.8,1.4,9.8,1.5,14.9v0C520.3,295.8,520.4,296.7,520.4,297.6z"/>
</g>
<g id="Layer_1_00000092436412269471228120000017257013529951470980_" class="st0">
	<g class="st1">
		<g>
			<g>
				<path class="st5" d="M442.2,97.2c-0.8,7.9-2.5,15.4-5.3,22.5c-3,7.6-7.2,12.8-11.1,18.7c-1.4,2.2-1.9,3.8-1.2,6.1
					c-11.1-11.5-18.6-26.8-19.1-36.3c1.4-3.3,3.1-6.4,5.1-9.3c0.8-1.2,1.5-2.3,2.3-3.6c0.5-0.8,0.8-1.5,1.2-2.1
					c1.2-2.3,3.6-3.8,6.2-3.8h14.9C439.3,89.5,442.6,93.1,442.2,97.2z"/>
				<path class="st6" d="M437.9,207.7c-0.8,4.4-2,8.1-3.6,11.5c-4.1-8.8-10.4-18.2-16.2-26.2c0,0,0,0,0,0c-0.2-0.9-0.7-2-1.5-3.5
					c-2.7-5.1-5.4-10.2-8.3-15c-5-8.3-8.3-19.9-8.6-32.4c-0.3-13.1,1.7-24.4,5.8-33.9c0.4,9.5,8,24.7,19.1,36.3
					c0.2,0.6,0.4,1.2,0.7,1.8c1.7,3.7,3.4,7.4,5.3,10.7c3.9,6.9,7.1,14.3,8.2,24.6C439.7,190.6,439.4,199.2,437.9,207.7z"/>
				<path class="st5" d="M434.3,219.2c-1.1,2.4-2.3,4.6-3.5,6.8c-3.2,5.5-6.2,11.3-9.3,16.9c-0.6,1-0.8,2.2-0.7,3.4
					c-5.7-6.6-11.8-15.2-14.8-24v0c1.5-5.1,3.6-9.7,6.3-13.6c1.8-2.6,3.5-5.8,4.7-9.4c1.1-3.1,1.6-4.5,1.1-6.4
					C423.9,201,430.2,210.4,434.3,219.2z"/>
				<path class="st6" d="M436.1,295.4c0,5.5-0.4,10.6-1.4,15.3c-4.6-9.3-10.6-14.5-14.9-19.5c-0.4-0.7-0.8-1.5-1.2-2.3
					c-2.7-5-5.6-9.5-8.4-14.3c-5.6-9.9-8-22.3-7-36.4c0.4-5.8,1.3-11,2.8-15.8c3,8.8,9.2,17.4,14.8,24c0,0.6,0.1,1.1,0.2,1.7
					c0.3,1.6,0.6,3.4,1.2,4.6c2.1,4.3,4.5,8.2,6.6,12.5C433,273.7,436,283.3,436.1,295.4z"/>
				<path class="st5" d="M434.7,310.7L434.7,310.7c-1.1,5.5-2.9,10.4-5.5,14.6c-2.5,4.1-5.4,7.6-7.9,11.8
					c-4.4,7.3-4.9,15.4-1.4,24.1c1.1,2.8,2.4,5.5,3.7,8c-4.7-6.3-12.3-17.5-16.7-30c0.7-4.8,2-9.5,3.9-13.9
					c2.5-5.7,5.5-10.9,8.1-16.5c3.8-8.4,3.5-12.4,1-17.7C424.1,296.2,430.1,301.4,434.7,310.7z"/>
				<path class="st6" d="M431.8,411.6c-2.4-5.5-5.3-11.2-8-16.3c0,0,0,0,0-0.1c-0.8-3-2.1-6-4-8.7c-2.3-3.5-4.7-7-6.9-10.9
					c-5.7-10.1-7.9-23.8-6-36.4c4.4,12.6,12,23.7,16.7,30c0,0,0,0,0,0c0.9,1.8,1.8,3.5,2.6,5.2c2.1,4.2,4.4,8.4,5.5,13.9
					C433.2,396.1,433.2,404.3,431.8,411.6z"/>
				<path class="st5" d="M428.9,496.3c0.6,3,0.9,6.2,0.4,9.5c-0.4-0.7-0.6-1.5-0.8-2.3c-1.1-6.5-3-12-5.8-16.4
					c-2.4-3.8-5.1-7.1-7.4-11.1c-7-12.2-8.2-28.9-1.3-43.3c2.3-4.8,4.9-9.2,7.2-14.1c3.5-7.7,4.5-15.7,2.5-23.2
					c2.8,5.1,5.6,10.7,8,16.3c-1,5.5-2.9,10.5-5.6,14.5c-2.9,4.4-5.8,8.9-8.5,13.8c-3.6,6.6-4.5,15.7-2.2,24.9
					c1.5,5.8,4,10.1,6.4,14.5C424.7,484.4,427.5,489.3,428.9,496.3z"/>
			</g>
		</g>
		<g class="st7">
			<g>
				<path class="st8" d="M442.2,97.2c-0.8,7.9-2.5,15.4-5.3,22.5c-3,7.6-7.2,12.8-11.1,18.7c-1.4,2.2-1.9,3.8-1.2,6.1
					c-11.1-11.5-18.6-26.8-19.1-36.3c1.4-3.3,3.1-6.4,5.1-9.3c0.8-1.2,1.5-2.3,2.3-3.6c0.5-0.8,0.8-1.5,1.2-2.1
					c1.2-2.3,3.6-3.8,6.2-3.8h14.9C439.3,89.5,442.6,93.1,442.2,97.2z"/>
				<path class="st8" d="M437.9,207.7c-0.8,4.4-2,8.1-3.6,11.5c-4.1-8.8-10.4-18.2-16.2-26.2c0,0,0,0,0,0c-0.2-0.9-0.7-2-1.5-3.5
					c-2.7-5.1-5.4-10.2-8.3-15c-5-8.3-8.3-19.9-8.6-32.4c-0.3-13.1,1.7-24.4,5.8-33.9c0.4,9.5,8,24.7,19.1,36.3
					c0.2,0.6,0.4,1.2,0.7,1.8c1.7,3.7,3.4,7.4,5.3,10.7c3.9,6.9,7.1,14.3,8.2,24.6C439.7,190.6,439.4,199.2,437.9,207.7z"/>
				<path class="st8" d="M434.3,219.2c-1.1,2.4-2.3,4.6-3.5,6.8c-3.2,5.5-6.2,11.3-9.3,16.9c-0.6,1-0.8,2.2-0.7,3.4
					c-5.7-6.6-11.8-15.2-14.8-24v0c1.5-5.1,3.6-9.7,6.3-13.6c1.8-2.6,3.5-5.8,4.7-9.4c1.1-3.1,1.6-4.5,1.1-6.4
					C423.9,201,430.2,210.4,434.3,219.2z"/>
				<path class="st8" d="M436.1,295.4c0,5.5-0.4,10.6-1.4,15.3c-4.6-9.3-10.6-14.5-14.9-19.5c-0.4-0.7-0.8-1.5-1.2-2.3
					c-2.7-5-5.6-9.5-8.4-14.3c-5.6-9.9-8-22.3-7-36.4c0.4-5.8,1.3-11,2.8-15.8c3,8.8,9.2,17.4,14.8,24c0,0.6,0.1,1.1,0.2,1.7
					c0.3,1.6,0.6,3.4,1.2,4.6c2.1,4.3,4.5,8.2,6.6,12.5C433,273.7,436,283.3,436.1,295.4z"/>
				<path class="st8" d="M434.7,310.7L434.7,310.7c-1.1,5.5-2.9,10.4-5.5,14.6c-2.5,4.1-5.4,7.6-7.9,11.8
					c-4.4,7.3-4.9,15.4-1.4,24.1c1.1,2.8,2.4,5.5,3.7,8c-4.7-6.3-12.3-17.5-16.7-30c0.7-4.8,2-9.5,3.9-13.9
					c2.5-5.7,5.5-10.9,8.1-16.5c3.8-8.4,3.5-12.4,1-17.7C424.1,296.2,430.1,301.4,434.7,310.7z"/>
				<path class="st8" d="M431.8,411.6c-2.4-5.5-5.3-11.2-8-16.3c0,0,0,0,0-0.1c-0.8-3-2.1-6-4-8.7c-2.3-3.5-4.7-7-6.9-10.9
					c-5.7-10.1-7.9-23.8-6-36.4c4.4,12.6,12,23.7,16.7,30c0,0,0,0,0,0c0.9,1.8,1.8,3.5,2.6,5.2c2.1,4.2,4.4,8.4,5.5,13.9
					C433.2,396.1,433.2,404.3,431.8,411.6z"/>
				<path class="st8" d="M428.9,496.3c0.6,3,0.9,6.2,0.4,9.5c-0.4-0.7-0.6-1.5-0.8-2.3c-1.1-6.5-3-12-5.8-16.4
					c-2.4-3.8-5.1-7.1-7.4-11.1c-7-12.2-8.2-28.9-1.3-43.3c2.3-4.8,4.9-9.2,7.2-14.1c3.5-7.7,4.5-15.7,2.5-23.2
					c2.8,5.1,5.6,10.7,8,16.3c-1,5.5-2.9,10.5-5.6,14.5c-2.9,4.4-5.8,8.9-8.5,13.8c-3.6,6.6-4.5,15.7-2.2,24.9
					c1.5,5.8,4,10.1,6.4,14.5C424.7,484.4,427.5,489.3,428.9,496.3z"/>
			</g>
		</g>
	</g>
	<g class="st1">
		<g>
			<g>
				<path class="st5" d="M484.7,97.2c-0.8,7.9-2.5,15.4-5.3,22.5c-3,7.6-7.2,12.8-11.1,18.7c-1.4,2.2-1.9,3.8-1.2,6.1
					C456,133,448.5,117.8,448,108.3c1.4-3.3,3.1-6.4,5.1-9.3c0.8-1.2,1.5-2.3,2.3-3.6c0.5-0.8,0.8-1.5,1.2-2.1
					c1.2-2.3,3.6-3.8,6.2-3.8h14.9C481.8,89.5,485.1,93.1,484.7,97.2z"/>
				<path class="st6" d="M480.4,207.7c-0.8,4.4-2,8.1-3.6,11.5c-4.1-8.8-10.4-18.2-16.2-26.2c0,0,0,0,0,0c-0.2-0.9-0.7-2-1.5-3.5
					c-2.7-5.1-5.4-10.2-8.3-15c-5-8.3-8.3-19.9-8.6-32.4c-0.3-13.1,1.7-24.4,5.8-33.9c0.4,9.5,8,24.7,19.1,36.3
					c0.2,0.6,0.4,1.2,0.7,1.8c1.7,3.7,3.4,7.4,5.3,10.7c3.9,6.9,7.1,14.3,8.2,24.6C482.2,190.6,481.9,199.2,480.4,207.7z"/>
				<path class="st5" d="M476.8,219.2c-1.1,2.4-2.3,4.6-3.5,6.8c-3.2,5.5-6.2,11.3-9.3,16.9c-0.6,1-0.8,2.2-0.7,3.4
					c-5.7-6.6-11.8-15.2-14.8-24v0c1.5-5.1,3.6-9.7,6.3-13.6c1.8-2.6,3.5-5.8,4.7-9.4c1.1-3.1,1.6-4.5,1.1-6.4
					C466.4,201,472.7,210.4,476.8,219.2z"/>
				<path class="st6" d="M478.6,295.4c0,5.5-0.4,10.6-1.4,15.3c-4.6-9.3-10.6-14.5-14.9-19.5c-0.4-0.7-0.8-1.5-1.2-2.3
					c-2.7-5-5.6-9.5-8.4-14.3c-5.6-9.9-8-22.3-7-36.4c0.4-5.8,1.3-11,2.8-15.8c3,8.8,9.2,17.4,14.8,24c0,0.6,0.1,1.1,0.2,1.7
					c0.3,1.6,0.6,3.4,1.2,4.6c2.1,4.3,4.5,8.2,6.6,12.5C475.5,273.7,478.5,283.3,478.6,295.4z"/>
				<path class="st5" d="M477.2,310.7L477.2,310.7c-1.1,5.5-2.9,10.4-5.5,14.6c-2.5,4.1-5.4,7.6-7.9,11.8
					c-4.4,7.3-4.9,15.4-1.4,24.1c1.1,2.8,2.4,5.5,3.7,8c-4.7-6.3-12.3-17.5-16.7-30c0.7-4.8,2-9.5,3.9-13.9
					c2.5-5.7,5.5-10.9,8.1-16.5c3.8-8.4,3.5-12.4,1-17.7C466.6,296.2,472.6,301.4,477.2,310.7z"/>
				<path class="st6" d="M474.3,411.6c-2.4-5.5-5.3-11.2-8-16.3c0,0,0,0,0-0.1c-0.8-3-2.1-6-4-8.7c-2.3-3.5-4.7-7-6.9-10.9
					c-5.7-10.1-7.9-23.8-6-36.4c4.4,12.6,12,23.7,16.7,30c0,0,0,0,0,0c0.9,1.8,1.8,3.5,2.6,5.2c2.1,4.2,4.4,8.4,5.5,13.9
					C475.7,396.1,475.8,404.3,474.3,411.6z"/>
				<path class="st5" d="M471.4,496.3c0.6,3,0.9,6.2,0.4,9.5c-0.4-0.7-0.6-1.5-0.8-2.3c-1.1-6.5-3-12-5.8-16.4
					c-2.4-3.8-5.1-7.1-7.4-11.1c-7-12.2-8.2-28.9-1.3-43.3c2.3-4.8,4.9-9.2,7.2-14.1c3.5-7.7,4.5-15.7,2.5-23.2
					c2.8,5.1,5.6,10.7,8,16.3c-1,5.5-2.9,10.5-5.6,14.5c-2.9,4.4-5.8,8.9-8.5,13.8c-3.6,6.6-4.5,15.7-2.2,24.9
					c1.5,5.8,4,10.1,6.4,14.5C467.2,484.4,470.1,489.3,471.4,496.3z"/>
			</g>
		</g>
		<g class="st7">
			<g>
				<path class="st8" d="M484.7,97.2c-0.8,7.9-2.5,15.4-5.3,22.5c-3,7.6-7.2,12.8-11.1,18.7c-1.4,2.2-1.9,3.8-1.2,6.1
					C456,133,448.5,117.8,448,108.3c1.4-3.3,3.1-6.4,5.1-9.3c0.8-1.2,1.5-2.3,2.3-3.6c0.5-0.8,0.8-1.5,1.2-2.1
					c1.2-2.3,3.6-3.8,6.2-3.8h14.9C481.8,89.5,485.1,93.1,484.7,97.2z"/>
				<path class="st8" d="M480.4,207.7c-0.8,4.4-2,8.1-3.6,11.5c-4.1-8.8-10.4-18.2-16.2-26.2c0,0,0,0,0,0c-0.2-0.9-0.7-2-1.5-3.5
					c-2.7-5.1-5.4-10.2-8.3-15c-5-8.3-8.3-19.9-8.6-32.4c-0.3-13.1,1.7-24.4,5.8-33.9c0.4,9.5,8,24.7,19.1,36.3
					c0.2,0.6,0.4,1.2,0.7,1.8c1.7,3.7,3.4,7.4,5.3,10.7c3.9,6.9,7.1,14.3,8.2,24.6C482.2,190.6,481.9,199.2,480.4,207.7z"/>
				<path class="st8" d="M476.8,219.2c-1.1,2.4-2.3,4.6-3.5,6.8c-3.2,5.5-6.2,11.3-9.3,16.9c-0.6,1-0.8,2.2-0.7,3.4
					c-5.7-6.6-11.8-15.2-14.8-24v0c1.5-5.1,3.6-9.7,6.3-13.6c1.8-2.6,3.5-5.8,4.7-9.4c1.1-3.1,1.6-4.5,1.1-6.4
					C466.4,201,472.7,210.4,476.8,219.2z"/>
				<path class="st8" d="M478.6,295.4c0,5.5-0.4,10.6-1.4,15.3c-4.6-9.3-10.6-14.5-14.9-19.5c-0.4-0.7-0.8-1.5-1.2-2.3
					c-2.7-5-5.6-9.5-8.4-14.3c-5.6-9.9-8-22.3-7-36.4c0.4-5.8,1.3-11,2.8-15.8c3,8.8,9.2,17.4,14.8,24c0,0.6,0.1,1.1,0.2,1.7
					c0.3,1.6,0.6,3.4,1.2,4.6c2.1,4.3,4.5,8.2,6.6,12.5C475.5,273.7,478.5,283.3,478.6,295.4z"/>
				<path class="st8" d="M477.2,310.7L477.2,310.7c-1.1,5.5-2.9,10.4-5.5,14.6c-2.5,4.1-5.4,7.6-7.9,11.8
					c-4.4,7.3-4.9,15.4-1.4,24.1c1.1,2.8,2.4,5.5,3.7,8c-4.7-6.3-12.3-17.5-16.7-30c0.7-4.8,2-9.5,3.9-13.9
					c2.5-5.7,5.5-10.9,8.1-16.5c3.8-8.4,3.5-12.4,1-17.7C466.6,296.2,472.6,301.4,477.2,310.7z"/>
				<path class="st8" d="M474.3,411.6c-2.4-5.5-5.3-11.2-8-16.3c0,0,0,0,0-0.1c-0.8-3-2.1-6-4-8.7c-2.3-3.5-4.7-7-6.9-10.9
					c-5.7-10.1-7.9-23.8-6-36.4c4.4,12.6,12,23.7,16.7,30c0,0,0,0,0,0c0.9,1.8,1.8,3.5,2.6,5.2c2.1,4.2,4.4,8.4,5.5,13.9
					C475.7,396.1,475.8,404.3,474.3,411.6z"/>
				<path class="st8" d="M471.4,496.3c0.6,3,0.9,6.2,0.4,9.5c-0.4-0.7-0.6-1.5-0.8-2.3c-1.1-6.5-3-12-5.8-16.4
					c-2.4-3.8-5.1-7.1-7.4-11.1c-7-12.2-8.2-28.9-1.3-43.3c2.3-4.8,4.9-9.2,7.2-14.1c3.5-7.7,4.5-15.7,2.5-23.2
					c2.8,5.1,5.6,10.7,8,16.3c-1,5.5-2.9,10.5-5.6,14.5c-2.9,4.4-5.8,8.9-8.5,13.8c-3.6,6.6-4.5,15.7-2.2,24.9
					c1.5,5.8,4,10.1,6.4,14.5C467.2,484.4,470.1,489.3,471.4,496.3z"/>
			</g>
		</g>
	</g>
	<g class="st1">
		<g>
			<g>
				<path class="st5" d="M527.2,97.2c-0.8,7.9-2.5,15.4-5.3,22.5c-3,7.6-7.2,12.8-11.1,18.7c-1.4,2.2-1.9,3.8-1.2,6.1
					c-11.1-11.5-18.6-26.8-19.1-36.3c1.4-3.3,3.1-6.4,5.1-9.3c0.8-1.2,1.5-2.3,2.3-3.6c0.5-0.8,0.8-1.5,1.2-2.1
					c1.2-2.3,3.6-3.8,6.2-3.8h14.9C524.3,89.5,527.6,93.1,527.2,97.2z"/>
				<path class="st6" d="M522.9,207.7c-0.8,4.4-2,8.1-3.6,11.5c-4.1-8.8-10.4-18.2-16.2-26.2c0,0,0,0,0,0c-0.2-0.9-0.7-2-1.5-3.5
					c-2.7-5.1-5.4-10.2-8.3-15c-5-8.3-8.3-19.9-8.6-32.4c-0.3-13.1,1.7-24.4,5.8-33.9c0.4,9.5,8,24.7,19.1,36.3
					c0.2,0.6,0.4,1.2,0.7,1.8c1.7,3.7,3.4,7.4,5.3,10.7c3.9,6.9,7.2,14.3,8.2,24.6C524.7,190.6,524.5,199.2,522.9,207.7z"/>
				<path class="st5" d="M519.3,219.2c-1.1,2.4-2.3,4.6-3.5,6.8c-3.2,5.5-6.2,11.3-9.3,16.9c-0.6,1-0.8,2.2-0.7,3.4
					c-5.7-6.6-11.8-15.2-14.8-24v0c1.5-5.1,3.6-9.7,6.3-13.6c1.8-2.6,3.5-5.8,4.7-9.4c1.1-3.1,1.6-4.5,1.1-6.4
					C508.9,201,515.2,210.4,519.3,219.2z"/>
				<path class="st6" d="M521.1,295.4c0,5.5-0.4,10.6-1.4,15.3c-4.6-9.3-10.6-14.5-14.9-19.5c-0.4-0.7-0.8-1.5-1.2-2.3
					c-2.7-5-5.6-9.5-8.4-14.3c-5.6-9.9-8-22.3-7-36.4c0.4-5.8,1.3-11,2.8-15.8c3,8.8,9.2,17.4,14.8,24c0,0.6,0.1,1.1,0.2,1.7
					c0.3,1.6,0.6,3.4,1.2,4.6c2.1,4.3,4.5,8.2,6.6,12.5C518,273.7,521.1,283.3,521.1,295.4z"/>
				<path class="st5" d="M519.7,310.7L519.7,310.7c-1.1,5.5-2.9,10.4-5.5,14.6c-2.5,4.1-5.4,7.6-7.9,11.8
					c-4.4,7.3-4.9,15.4-1.4,24.1c1.1,2.8,2.4,5.5,3.7,8c-4.7-6.3-12.3-17.5-16.7-30c0.7-4.8,2-9.5,3.9-13.9
					c2.5-5.7,5.5-10.9,8.1-16.5c3.8-8.4,3.5-12.4,1-17.7C509.1,296.2,515.2,301.4,519.7,310.7z"/>
				<path class="st6" d="M516.9,411.6c-2.4-5.5-5.3-11.2-8-16.3c0,0,0,0,0-0.1c-0.8-3-2.1-6-4-8.7c-2.3-3.5-4.7-7-6.9-10.9
					c-5.7-10.1-7.9-23.8-6-36.4c4.4,12.6,12,23.7,16.7,30c0,0,0,0,0,0c0.9,1.8,1.8,3.5,2.6,5.2c2.1,4.2,4.4,8.4,5.5,13.9
					C518.2,396.1,518.3,404.3,516.9,411.6z"/>
				<path class="st5" d="M513.9,496.3c0.6,3,0.9,6.2,0.4,9.5c-0.4-0.7-0.6-1.5-0.8-2.3c-1.1-6.5-3-12-5.8-16.4
					c-2.4-3.8-5.1-7.1-7.4-11.1c-7-12.2-8.2-28.9-1.3-43.3c2.3-4.8,4.9-9.2,7.2-14.1c3.5-7.7,4.5-15.7,2.5-23.2
					c2.8,5.1,5.6,10.7,8,16.3c-1,5.5-2.9,10.5-5.6,14.5c-2.9,4.4-5.8,8.9-8.5,13.8c-3.6,6.6-4.5,15.7-2.2,24.9
					c1.5,5.8,4,10.1,6.4,14.5C509.7,484.4,512.6,489.3,513.9,496.3z"/>
			</g>
		</g>
		<g class="st7">
			<g>
				<path class="st8" d="M527.2,97.2c-0.8,7.9-2.5,15.4-5.3,22.5c-3,7.6-7.2,12.8-11.1,18.7c-1.4,2.2-1.9,3.8-1.2,6.1
					c-11.1-11.5-18.6-26.8-19.1-36.3c1.4-3.3,3.1-6.4,5.1-9.3c0.8-1.2,1.5-2.3,2.3-3.6c0.5-0.8,0.8-1.5,1.2-2.1
					c1.2-2.3,3.6-3.8,6.2-3.8h14.9C524.3,89.5,527.6,93.1,527.2,97.2z"/>
				<path class="st8" d="M522.9,207.7c-0.8,4.4-2,8.1-3.6,11.5c-4.1-8.8-10.4-18.2-16.2-26.2c0,0,0,0,0,0c-0.2-0.9-0.7-2-1.5-3.5
					c-2.7-5.1-5.4-10.2-8.3-15c-5-8.3-8.3-19.9-8.6-32.4c-0.3-13.1,1.7-24.4,5.8-33.9c0.4,9.5,8,24.7,19.1,36.3
					c0.2,0.6,0.4,1.2,0.7,1.8c1.7,3.7,3.4,7.4,5.3,10.7c3.9,6.9,7.2,14.3,8.2,24.6C524.7,190.6,524.5,199.2,522.9,207.7z"/>
				<path class="st8" d="M519.3,219.2c-1.1,2.4-2.3,4.6-3.5,6.8c-3.2,5.5-6.2,11.3-9.3,16.9c-0.6,1-0.8,2.2-0.7,3.4
					c-5.7-6.6-11.8-15.2-14.8-24v0c1.5-5.1,3.6-9.7,6.3-13.6c1.8-2.6,3.5-5.8,4.7-9.4c1.1-3.1,1.6-4.5,1.1-6.4
					C508.9,201,515.2,210.4,519.3,219.2z"/>
				<path class="st8" d="M521.1,295.4c0,5.5-0.4,10.6-1.4,15.3c-4.6-9.3-10.6-14.5-14.9-19.5c-0.4-0.7-0.8-1.5-1.2-2.3
					c-2.7-5-5.6-9.5-8.4-14.3c-5.6-9.9-8-22.3-7-36.4c0.4-5.8,1.3-11,2.8-15.8c3,8.8,9.2,17.4,14.8,24c0,0.6,0.1,1.1,0.2,1.7
					c0.3,1.6,0.6,3.4,1.2,4.6c2.1,4.3,4.5,8.2,6.6,12.5C518,273.7,521.1,283.3,521.1,295.4z"/>
				<path class="st8" d="M519.7,310.7L519.7,310.7c-1.1,5.5-2.9,10.4-5.5,14.6c-2.5,4.1-5.4,7.6-7.9,11.8
					c-4.4,7.3-4.9,15.4-1.4,24.1c1.1,2.8,2.4,5.5,3.7,8c-4.7-6.3-12.3-17.5-16.7-30c0.7-4.8,2-9.5,3.9-13.9
					c2.5-5.7,5.5-10.9,8.1-16.5c3.8-8.4,3.5-12.4,1-17.7C509.1,296.2,515.2,301.4,519.7,310.7z"/>
				<path class="st8" d="M516.9,411.6c-2.4-5.5-5.3-11.2-8-16.3c0,0,0,0,0-0.1c-0.8-3-2.1-6-4-8.7c-2.3-3.5-4.7-7-6.9-10.9
					c-5.7-10.1-7.9-23.8-6-36.4c4.4,12.6,12,23.7,16.7,30c0,0,0,0,0,0c0.9,1.8,1.8,3.5,2.6,5.2c2.1,4.2,4.4,8.4,5.5,13.9
					C518.2,396.1,518.3,404.3,516.9,411.6z"/>
				<path class="st8" d="M513.9,496.3c0.6,3,0.9,6.2,0.4,9.5c-0.4-0.7-0.6-1.5-0.8-2.3c-1.1-6.5-3-12-5.8-16.4
					c-2.4-3.8-5.1-7.1-7.4-11.1c-7-12.2-8.2-28.9-1.3-43.3c2.3-4.8,4.9-9.2,7.2-14.1c3.5-7.7,4.5-15.7,2.5-23.2
					c2.8,5.1,5.6,10.7,8,16.3c-1,5.5-2.9,10.5-5.6,14.5c-2.9,4.4-5.8,8.9-8.5,13.8c-3.6,6.6-4.5,15.7-2.2,24.9
					c1.5,5.8,4,10.1,6.4,14.5C509.7,484.4,512.6,489.3,513.9,496.3z"/>
			</g>
		</g>
	</g>
	<g class="st1">
		<g>
			<g>
				<path class="st5" d="M569.7,97.2c-0.8,7.9-2.5,15.4-5.3,22.5c-3,7.6-7.2,12.8-11.1,18.7c-1.4,2.2-1.9,3.8-1.2,6.1
					c-11.1-11.5-18.7-26.8-19.1-36.3c1.4-3.3,3.1-6.4,5.1-9.3c0.8-1.2,1.5-2.3,2.3-3.6c0.5-0.8,0.8-1.5,1.2-2.1
					c1.2-2.3,3.6-3.8,6.2-3.8h14.9C566.8,89.5,570.2,93.1,569.7,97.2z"/>
				<path class="st6" d="M565.4,207.7c-0.8,4.4-2,8.1-3.6,11.5c-4.1-8.8-10.4-18.2-16.2-26.2c0,0,0,0,0,0c-0.2-0.9-0.7-2-1.5-3.5
					c-2.7-5.1-5.4-10.2-8.3-15c-5-8.3-8.3-19.9-8.6-32.4c-0.3-13.1,1.7-24.4,5.8-33.9c0.4,9.5,8,24.7,19.1,36.3
					c0.2,0.6,0.4,1.2,0.7,1.8c1.7,3.7,3.4,7.4,5.3,10.7c3.9,6.9,7.2,14.3,8.2,24.6C567.2,190.6,567,199.2,565.4,207.7z"/>
				<path class="st5" d="M561.9,219.2c-1.1,2.4-2.3,4.6-3.5,6.8c-3.2,5.5-6.2,11.3-9.3,16.9c-0.6,1-0.8,2.2-0.7,3.4
					c-5.7-6.6-11.8-15.2-14.8-24v0c1.5-5.1,3.7-9.7,6.3-13.6c1.8-2.6,3.5-5.8,4.7-9.4c1.1-3.1,1.6-4.5,1.1-6.4
					C551.5,201,557.8,210.4,561.9,219.2z"/>
				<path class="st6" d="M563.6,295.4c0,5.5-0.4,10.6-1.4,15.3c-4.6-9.3-10.6-14.5-14.9-19.5c-0.3-0.7-0.8-1.5-1.2-2.3
					c-2.7-5-5.7-9.5-8.4-14.3c-5.7-9.9-8-22.3-7-36.4c0.4-5.8,1.3-11,2.8-15.8c3,8.8,9.2,17.4,14.8,24c0,0.6,0.1,1.1,0.2,1.7
					c0.3,1.6,0.6,3.4,1.2,4.6c2.2,4.3,4.5,8.2,6.6,12.5C560.5,273.7,563.6,283.3,563.6,295.4z"/>
				<path class="st5" d="M562.2,310.7L562.2,310.7c-1.1,5.5-2.9,10.4-5.5,14.6c-2.5,4.1-5.4,7.6-7.9,11.8
					c-4.4,7.3-4.9,15.4-1.4,24.1c1.1,2.8,2.4,5.5,3.7,8c-4.7-6.3-12.3-17.5-16.7-30c0.7-4.8,2-9.5,3.9-13.9
					c2.5-5.7,5.5-10.9,8.1-16.5c3.8-8.4,3.5-12.4,1-17.7C551.7,296.2,557.7,301.4,562.2,310.7z"/>
				<path class="st6" d="M559.4,411.6c-2.4-5.5-5.3-11.2-8-16.3c0,0,0,0,0-0.1c-0.8-3-2.1-6-4-8.7c-2.3-3.5-4.7-7-6.9-10.9
					c-5.7-10.1-7.9-23.8-6-36.4c4.4,12.6,12,23.7,16.7,30c0,0,0,0,0,0c0.9,1.8,1.8,3.5,2.6,5.2c2.1,4.2,4.4,8.4,5.5,13.9
					C560.7,396.1,560.8,404.3,559.4,411.6z"/>
				<path class="st5" d="M556.4,496.3c0.6,3,0.9,6.2,0.4,9.5c-0.4-0.7-0.6-1.5-0.8-2.3c-1.1-6.5-3-12-5.8-16.4
					c-2.4-3.8-5.1-7.1-7.3-11.1c-7-12.2-8.2-28.9-1.3-43.3c2.3-4.8,4.9-9.2,7.2-14.1c3.5-7.7,4.5-15.7,2.5-23.2
					c2.8,5.1,5.6,10.7,8,16.3c-1,5.5-2.9,10.5-5.6,14.5c-2.9,4.4-5.8,8.9-8.5,13.8c-3.6,6.6-4.5,15.7-2.2,24.9
					c1.5,5.8,4,10.1,6.4,14.5C552.3,484.4,555.1,489.3,556.4,496.3z"/>
			</g>
		</g>
		<g class="st7">
			<g>
				<path class="st8" d="M569.7,97.2c-0.8,7.9-2.5,15.4-5.3,22.5c-3,7.6-7.2,12.8-11.1,18.7c-1.4,2.2-1.9,3.8-1.2,6.1
					c-11.1-11.5-18.7-26.8-19.1-36.3c1.4-3.3,3.1-6.4,5.1-9.3c0.8-1.2,1.5-2.3,2.3-3.6c0.5-0.8,0.8-1.5,1.2-2.1
					c1.2-2.3,3.6-3.8,6.2-3.8h14.9C566.8,89.5,570.2,93.1,569.7,97.2z"/>
				<path class="st8" d="M565.4,207.7c-0.8,4.4-2,8.1-3.6,11.5c-4.1-8.8-10.4-18.2-16.2-26.2c0,0,0,0,0,0c-0.2-0.9-0.7-2-1.5-3.5
					c-2.7-5.1-5.4-10.2-8.3-15c-5-8.3-8.3-19.9-8.6-32.4c-0.3-13.1,1.7-24.4,5.8-33.9c0.4,9.5,8,24.7,19.1,36.3
					c0.2,0.6,0.4,1.2,0.7,1.8c1.7,3.7,3.4,7.4,5.3,10.7c3.9,6.9,7.2,14.3,8.2,24.6C567.2,190.6,567,199.2,565.4,207.7z"/>
				<path class="st8" d="M561.9,219.2c-1.1,2.4-2.3,4.6-3.5,6.8c-3.2,5.5-6.2,11.3-9.3,16.9c-0.6,1-0.8,2.2-0.7,3.4
					c-5.7-6.6-11.8-15.2-14.8-24v0c1.5-5.1,3.7-9.7,6.3-13.6c1.8-2.6,3.5-5.8,4.7-9.4c1.1-3.1,1.6-4.5,1.1-6.4
					C551.5,201,557.8,210.4,561.9,219.2z"/>
				<path class="st8" d="M563.6,295.4c0,5.5-0.4,10.6-1.4,15.3c-4.6-9.3-10.6-14.5-14.9-19.5c-0.3-0.7-0.8-1.5-1.2-2.3
					c-2.7-5-5.7-9.5-8.4-14.3c-5.7-9.9-8-22.3-7-36.4c0.4-5.8,1.3-11,2.8-15.8c3,8.8,9.2,17.4,14.8,24c0,0.6,0.1,1.1,0.2,1.7
					c0.3,1.6,0.6,3.4,1.2,4.6c2.2,4.3,4.5,8.2,6.6,12.5C560.5,273.7,563.6,283.3,563.6,295.4z"/>
				<path class="st8" d="M562.2,310.7L562.2,310.7c-1.1,5.5-2.9,10.4-5.5,14.6c-2.5,4.1-5.4,7.6-7.9,11.8
					c-4.4,7.3-4.9,15.4-1.4,24.1c1.1,2.8,2.4,5.5,3.7,8c-4.7-6.3-12.3-17.5-16.7-30c0.7-4.8,2-9.5,3.9-13.9
					c2.5-5.7,5.5-10.9,8.1-16.5c3.8-8.4,3.5-12.4,1-17.7C551.7,296.2,557.7,301.4,562.2,310.7z"/>
				<path class="st8" d="M559.4,411.6c-2.4-5.5-5.3-11.2-8-16.3c0,0,0,0,0-0.1c-0.8-3-2.1-6-4-8.7c-2.3-3.5-4.7-7-6.9-10.9
					c-5.7-10.1-7.9-23.8-6-36.4c4.4,12.6,12,23.7,16.7,30c0,0,0,0,0,0c0.9,1.8,1.8,3.5,2.6,5.2c2.1,4.2,4.4,8.4,5.5,13.9
					C560.7,396.1,560.8,404.3,559.4,411.6z"/>
				<path class="st8" d="M556.4,496.3c0.6,3,0.9,6.2,0.4,9.5c-0.4-0.7-0.6-1.5-0.8-2.3c-1.1-6.5-3-12-5.8-16.4
					c-2.4-3.8-5.1-7.1-7.3-11.1c-7-12.2-8.2-28.9-1.3-43.3c2.3-4.8,4.9-9.2,7.2-14.1c3.5-7.7,4.5-15.7,2.5-23.2
					c2.8,5.1,5.6,10.7,8,16.3c-1,5.5-2.9,10.5-5.6,14.5c-2.9,4.4-5.8,8.9-8.5,13.8c-3.6,6.6-4.5,15.7-2.2,24.9
					c1.5,5.8,4,10.1,6.4,14.5C552.3,484.4,555.1,489.3,556.4,496.3z"/>
			</g>
		</g>
	</g>
	<g class="st1">
		<g>
			<g>
				<path class="st5" d="M612.2,97.2c-0.8,7.9-2.5,15.4-5.3,22.5c-3,7.6-7.2,12.8-11.1,18.7c-1.4,2.2-1.9,3.8-1.2,6.1
					c-11.1-11.5-18.7-26.8-19.1-36.3c1.4-3.3,3.1-6.4,5.1-9.3c0.8-1.2,1.5-2.3,2.3-3.6c0.5-0.8,0.8-1.5,1.2-2.1
					c1.2-2.3,3.6-3.8,6.2-3.8h14.9C609.4,89.5,612.7,93.1,612.2,97.2z"/>
				<path class="st6" d="M608,207.7c-0.8,4.4-2,8.1-3.6,11.5c-4.1-8.8-10.4-18.2-16.2-26.2c0,0,0,0,0,0c-0.2-0.9-0.7-2-1.5-3.5
					c-2.7-5.1-5.4-10.2-8.3-15c-5-8.3-8.3-19.9-8.6-32.4c-0.3-13.1,1.7-24.4,5.8-33.9c0.4,9.5,8,24.7,19.1,36.3
					c0.2,0.6,0.4,1.2,0.7,1.8c1.7,3.7,3.4,7.4,5.3,10.7c3.9,6.9,7.2,14.3,8.2,24.6C609.8,190.6,609.5,199.2,608,207.7z"/>
				<path class="st5" d="M604.4,219.2c-1.1,2.4-2.3,4.6-3.5,6.8c-3.2,5.5-6.2,11.3-9.3,16.9c-0.6,1-0.8,2.2-0.7,3.4
					c-5.7-6.6-11.8-15.2-14.8-24v0c1.5-5.1,3.7-9.7,6.3-13.6c1.8-2.6,3.5-5.8,4.7-9.4c1.1-3.1,1.6-4.5,1.1-6.4
					C594,201,600.3,210.4,604.4,219.2z"/>
				<path class="st6" d="M606.2,295.4c0,5.5-0.4,10.6-1.4,15.3c-4.6-9.3-10.6-14.5-14.9-19.5c-0.3-0.7-0.8-1.5-1.2-2.3
					c-2.7-5-5.7-9.5-8.4-14.3c-5.7-9.9-8-22.3-7-36.4c0.4-5.8,1.3-11,2.8-15.8c3,8.8,9.2,17.4,14.8,24c0,0.6,0.1,1.1,0.2,1.7
					c0.3,1.6,0.6,3.4,1.2,4.6c2.2,4.3,4.5,8.2,6.6,12.5C603.1,273.7,606.1,283.3,606.2,295.4z"/>
				<path class="st5" d="M604.8,310.7L604.8,310.7c-1.1,5.5-2.9,10.4-5.5,14.6c-2.5,4.1-5.4,7.6-7.9,11.8
					c-4.4,7.3-4.9,15.4-1.4,24.1c1.1,2.8,2.4,5.5,3.7,8c-4.7-6.3-12.3-17.5-16.7-30c0.7-4.8,2-9.5,3.9-13.9
					c2.5-5.7,5.5-10.9,8.1-16.5c3.8-8.4,3.5-12.4,1-17.7C594.2,296.2,600.2,301.4,604.8,310.7z"/>
				<path class="st6" d="M601.9,411.6c-2.4-5.5-5.3-11.2-8-16.3c0,0,0,0,0-0.1c-0.8-3-2.1-6-4-8.7c-2.3-3.5-4.7-7-6.9-10.9
					c-5.7-10.1-7.9-23.8-6-36.4c4.4,12.6,12,23.7,16.7,30c0,0,0,0,0,0c0.9,1.8,1.8,3.5,2.6,5.2c2.1,4.2,4.4,8.4,5.5,13.9
					C603.3,396.1,603.3,404.3,601.9,411.6z"/>
				<path class="st5" d="M598.9,496.3c0.6,3,0.9,6.2,0.4,9.5c-0.4-0.7-0.6-1.5-0.8-2.3c-1.1-6.5-3-12-5.8-16.4
					c-2.4-3.8-5.1-7.1-7.3-11.1c-7-12.2-8.2-28.9-1.3-43.3c2.3-4.8,4.9-9.2,7.2-14.1c3.5-7.7,4.5-15.7,2.5-23.2
					c2.8,5.1,5.6,10.7,8,16.3c-1,5.5-2.9,10.5-5.6,14.5c-2.9,4.4-5.8,8.9-8.5,13.8c-3.6,6.6-4.5,15.7-2.2,24.9
					c1.5,5.8,4,10.1,6.4,14.5C594.8,484.4,597.6,489.3,598.9,496.3z"/>
			</g>
		</g>
		<g class="st7">
			<g>
				<path class="st8" d="M612.2,97.2c-0.8,7.9-2.5,15.4-5.3,22.5c-3,7.6-7.2,12.8-11.1,18.7c-1.4,2.2-1.9,3.8-1.2,6.1
					c-11.1-11.5-18.7-26.8-19.1-36.3c1.4-3.3,3.1-6.4,5.1-9.3c0.8-1.2,1.5-2.3,2.3-3.6c0.5-0.8,0.8-1.5,1.2-2.1
					c1.2-2.3,3.6-3.8,6.2-3.8h14.9C609.4,89.5,612.7,93.1,612.2,97.2z"/>
				<path class="st8" d="M608,207.7c-0.8,4.4-2,8.1-3.6,11.5c-4.1-8.8-10.4-18.2-16.2-26.2c0,0,0,0,0,0c-0.2-0.9-0.7-2-1.5-3.5
					c-2.7-5.1-5.4-10.2-8.3-15c-5-8.3-8.3-19.9-8.6-32.4c-0.3-13.1,1.7-24.4,5.8-33.9c0.4,9.5,8,24.7,19.1,36.3
					c0.2,0.6,0.4,1.2,0.7,1.8c1.7,3.7,3.4,7.4,5.3,10.7c3.9,6.9,7.2,14.3,8.2,24.6C609.8,190.6,609.5,199.2,608,207.7z"/>
				<path class="st8" d="M604.4,219.2c-1.1,2.4-2.3,4.6-3.5,6.8c-3.2,5.5-6.2,11.3-9.3,16.9c-0.6,1-0.8,2.2-0.7,3.4
					c-5.7-6.6-11.8-15.2-14.8-24v0c1.5-5.1,3.7-9.7,6.3-13.6c1.8-2.6,3.5-5.8,4.7-9.4c1.1-3.1,1.6-4.5,1.1-6.4
					C594,201,600.3,210.4,604.4,219.2z"/>
				<path class="st8" d="M606.2,295.4c0,5.5-0.4,10.6-1.4,15.3c-4.6-9.3-10.6-14.5-14.9-19.5c-0.3-0.7-0.8-1.5-1.2-2.3
					c-2.7-5-5.7-9.5-8.4-14.3c-5.7-9.9-8-22.3-7-36.4c0.4-5.8,1.3-11,2.8-15.8c3,8.8,9.2,17.4,14.8,24c0,0.6,0.1,1.1,0.2,1.7
					c0.3,1.6,0.6,3.4,1.2,4.6c2.2,4.3,4.5,8.2,6.6,12.5C603.1,273.7,606.1,283.3,606.2,295.4z"/>
				<path class="st8" d="M604.8,310.7L604.8,310.7c-1.1,5.5-2.9,10.4-5.5,14.6c-2.5,4.1-5.4,7.6-7.9,11.8
					c-4.4,7.3-4.9,15.4-1.4,24.1c1.1,2.8,2.4,5.5,3.7,8c-4.7-6.3-12.3-17.5-16.7-30c0.7-4.8,2-9.5,3.9-13.9
					c2.5-5.7,5.5-10.9,8.1-16.5c3.8-8.4,3.5-12.4,1-17.7C594.2,296.2,600.2,301.4,604.8,310.7z"/>
				<path class="st8" d="M601.9,411.6c-2.4-5.5-5.3-11.2-8-16.3c0,0,0,0,0-0.1c-0.8-3-2.1-6-4-8.7c-2.3-3.5-4.7-7-6.9-10.9
					c-5.7-10.1-7.9-23.8-6-36.4c4.4,12.6,12,23.7,16.7,30c0,0,0,0,0,0c0.9,1.8,1.8,3.5,2.6,5.2c2.1,4.2,4.4,8.4,5.5,13.9
					C603.3,396.1,603.3,404.3,601.9,411.6z"/>
				<path class="st8" d="M598.9,496.3c0.6,3,0.9,6.2,0.4,9.5c-0.4-0.7-0.6-1.5-0.8-2.3c-1.1-6.5-3-12-5.8-16.4
					c-2.4-3.8-5.1-7.1-7.3-11.1c-7-12.2-8.2-28.9-1.3-43.3c2.3-4.8,4.9-9.2,7.2-14.1c3.5-7.7,4.5-15.7,2.5-23.2
					c2.8,5.1,5.6,10.7,8,16.3c-1,5.5-2.9,10.5-5.6,14.5c-2.9,4.4-5.8,8.9-8.5,13.8c-3.6,6.6-4.5,15.7-2.2,24.9
					c1.5,5.8,4,10.1,6.4,14.5C594.8,484.4,597.6,489.3,598.9,496.3z"/>
			</g>
		</g>
	</g>
	<g class="st1">
		<g>
			<g>
				<path class="st5" d="M654.8,97.2c-0.8,7.9-2.5,15.4-5.3,22.5c-3,7.6-7.2,12.8-11.1,18.7c-1.4,2.2-1.9,3.8-1.2,6.1
					c-11.1-11.5-18.7-26.8-19.1-36.3c1.4-3.3,3.1-6.4,5.1-9.3c0.8-1.2,1.5-2.3,2.3-3.6c0.5-0.8,0.8-1.5,1.2-2.1
					c1.2-2.3,3.6-3.8,6.2-3.8h14.9C651.9,89.5,655.2,93.1,654.8,97.2z"/>
				<path class="st6" d="M650.5,207.7c-0.8,4.4-2,8.1-3.6,11.5c-4.1-8.8-10.4-18.2-16.2-26.2c0,0,0,0,0,0c-0.2-0.9-0.7-2-1.5-3.5
					c-2.7-5.1-5.4-10.2-8.3-15c-5-8.3-8.3-19.9-8.6-32.4c-0.3-13.1,1.7-24.4,5.8-33.9c0.4,9.5,8,24.7,19.1,36.3
					c0.2,0.6,0.4,1.2,0.7,1.8c1.7,3.7,3.4,7.4,5.3,10.7c3.9,6.9,7.2,14.3,8.2,24.6C652.3,190.6,652,199.2,650.5,207.7z"/>
				<path class="st5" d="M646.9,219.2c-1.1,2.4-2.3,4.6-3.5,6.8c-3.2,5.5-6.2,11.3-9.3,16.9c-0.6,1-0.8,2.2-0.7,3.4
					c-5.7-6.6-11.8-15.2-14.8-24v0c1.5-5.1,3.7-9.7,6.3-13.6c1.8-2.6,3.5-5.8,4.7-9.4c1.1-3.1,1.6-4.5,1.1-6.4
					C636.5,201,642.8,210.4,646.9,219.2z"/>
				<path class="st6" d="M648.7,295.4c0,5.5-0.4,10.6-1.4,15.3c-4.6-9.3-10.6-14.5-14.9-19.5c-0.3-0.7-0.8-1.5-1.2-2.3
					c-2.7-5-5.7-9.5-8.4-14.3c-5.7-9.9-8-22.3-7-36.4c0.4-5.8,1.3-11,2.8-15.8c3,8.8,9.2,17.4,14.8,24c0,0.6,0.1,1.1,0.2,1.7
					c0.3,1.6,0.6,3.4,1.2,4.6c2.2,4.3,4.5,8.2,6.6,12.5C645.6,273.7,648.6,283.3,648.7,295.4z"/>
				<path class="st5" d="M647.3,310.7L647.3,310.7c-1.1,5.5-2.9,10.4-5.5,14.6c-2.5,4.1-5.4,7.6-7.9,11.8
					c-4.4,7.3-4.9,15.4-1.4,24.1c1.1,2.8,2.4,5.5,3.7,8c-4.7-6.3-12.3-17.5-16.7-30c0.7-4.8,2-9.5,3.9-13.9
					c2.5-5.7,5.5-10.9,8.1-16.5c3.8-8.4,3.5-12.4,1-17.7C636.7,296.2,642.7,301.4,647.3,310.7z"/>
				<path class="st6" d="M644.4,411.6c-2.4-5.5-5.3-11.2-8-16.3c0,0,0,0,0-0.1c-0.8-3-2.1-6-4-8.7c-2.3-3.5-4.7-7-6.9-10.9
					c-5.7-10.1-7.9-23.8-6-36.4c4.4,12.6,12,23.7,16.7,30c0,0,0,0,0,0c0.9,1.8,1.8,3.5,2.6,5.2c2.1,4.2,4.4,8.4,5.5,13.9
					C645.8,396.1,645.8,404.3,644.4,411.6z"/>
				<path class="st5" d="M641.5,496.3c0.6,3,0.9,6.2,0.4,9.5c-0.4-0.7-0.6-1.5-0.8-2.3c-1.1-6.5-3-12-5.8-16.4
					c-2.4-3.8-5.1-7.1-7.3-11.1c-7-12.2-8.2-28.9-1.3-43.3c2.3-4.8,4.9-9.2,7.2-14.1c3.5-7.7,4.5-15.7,2.5-23.2
					c2.8,5.1,5.6,10.7,8,16.3c-1,5.5-2.9,10.5-5.6,14.5c-2.9,4.4-5.8,8.9-8.5,13.8c-3.6,6.6-4.5,15.7-2.2,24.9
					c1.5,5.8,4,10.1,6.4,14.5C637.3,484.4,640.2,489.3,641.5,496.3z"/>
			</g>
		</g>
		<g class="st7">
			<g>
				<path class="st8" d="M654.8,97.2c-0.8,7.9-2.5,15.4-5.3,22.5c-3,7.6-7.2,12.8-11.1,18.7c-1.4,2.2-1.9,3.8-1.2,6.1
					c-11.1-11.5-18.7-26.8-19.1-36.3c1.4-3.3,3.1-6.4,5.1-9.3c0.8-1.2,1.5-2.3,2.3-3.6c0.5-0.8,0.8-1.5,1.2-2.1
					c1.2-2.3,3.6-3.8,6.2-3.8h14.9C651.9,89.5,655.2,93.1,654.8,97.2z"/>
				<path class="st8" d="M650.5,207.7c-0.8,4.4-2,8.1-3.6,11.5c-4.1-8.8-10.4-18.2-16.2-26.2c0,0,0,0,0,0c-0.2-0.9-0.7-2-1.5-3.5
					c-2.7-5.1-5.4-10.2-8.3-15c-5-8.3-8.3-19.9-8.6-32.4c-0.3-13.1,1.7-24.4,5.8-33.9c0.4,9.5,8,24.7,19.1,36.3
					c0.2,0.6,0.4,1.2,0.7,1.8c1.7,3.7,3.4,7.4,5.3,10.7c3.9,6.9,7.2,14.3,8.2,24.6C652.3,190.6,652,199.2,650.5,207.7z"/>
				<path class="st8" d="M646.9,219.2c-1.1,2.4-2.3,4.6-3.5,6.8c-3.2,5.5-6.2,11.3-9.3,16.9c-0.6,1-0.8,2.2-0.7,3.4
					c-5.7-6.6-11.8-15.2-14.8-24v0c1.5-5.1,3.7-9.7,6.3-13.6c1.8-2.6,3.5-5.8,4.7-9.4c1.1-3.1,1.6-4.5,1.1-6.4
					C636.5,201,642.8,210.4,646.9,219.2z"/>
				<path class="st8" d="M648.7,295.4c0,5.5-0.4,10.6-1.4,15.3c-4.6-9.3-10.6-14.5-14.9-19.5c-0.3-0.7-0.8-1.5-1.2-2.3
					c-2.7-5-5.7-9.5-8.4-14.3c-5.7-9.9-8-22.3-7-36.4c0.4-5.8,1.3-11,2.8-15.8c3,8.8,9.2,17.4,14.8,24c0,0.6,0.1,1.1,0.2,1.7
					c0.3,1.6,0.6,3.4,1.2,4.6c2.2,4.3,4.5,8.2,6.6,12.5C645.6,273.7,648.6,283.3,648.7,295.4z"/>
				<path class="st8" d="M647.3,310.7L647.3,310.7c-1.1,5.5-2.9,10.4-5.5,14.6c-2.5,4.1-5.4,7.6-7.9,11.8
					c-4.4,7.3-4.9,15.4-1.4,24.1c1.1,2.8,2.4,5.5,3.7,8c-4.7-6.3-12.3-17.5-16.7-30c0.7-4.8,2-9.5,3.9-13.9
					c2.5-5.7,5.5-10.9,8.1-16.5c3.8-8.4,3.5-12.4,1-17.7C636.7,296.2,642.7,301.4,647.3,310.7z"/>
				<path class="st8" d="M644.4,411.6c-2.4-5.5-5.3-11.2-8-16.3c0,0,0,0,0-0.1c-0.8-3-2.1-6-4-8.7c-2.3-3.5-4.7-7-6.9-10.9
					c-5.7-10.1-7.9-23.8-6-36.4c4.4,12.6,12,23.7,16.7,30c0,0,0,0,0,0c0.9,1.8,1.8,3.5,2.6,5.2c2.1,4.2,4.4,8.4,5.5,13.9
					C645.8,396.1,645.8,404.3,644.4,411.6z"/>
				<path class="st8" d="M641.5,496.3c0.6,3,0.9,6.2,0.4,9.5c-0.4-0.7-0.6-1.5-0.8-2.3c-1.1-6.5-3-12-5.8-16.4
					c-2.4-3.8-5.1-7.1-7.3-11.1c-7-12.2-8.2-28.9-1.3-43.3c2.3-4.8,4.9-9.2,7.2-14.1c3.5-7.7,4.5-15.7,2.5-23.2
					c2.8,5.1,5.6,10.7,8,16.3c-1,5.5-2.9,10.5-5.6,14.5c-2.9,4.4-5.8,8.9-8.5,13.8c-3.6,6.6-4.5,15.7-2.2,24.9
					c1.5,5.8,4,10.1,6.4,14.5C637.3,484.4,640.2,489.3,641.5,496.3z"/>
			</g>
		</g>
	</g>
	<g class="st1">
		<g>
			<g>
				<path class="st5" d="M697.3,97.2c-0.8,7.9-2.5,15.4-5.3,22.5c-3,7.6-7.2,12.8-11.1,18.7c-1.4,2.2-1.9,3.8-1.2,6.1
					c-11.1-11.5-18.7-26.8-19.1-36.3c1.4-3.3,3.1-6.4,5.1-9.3c0.8-1.2,1.5-2.3,2.3-3.6c0.5-0.8,0.8-1.5,1.2-2.1
					c1.2-2.3,3.6-3.8,6.2-3.8h14.9C694.4,89.5,697.7,93.1,697.3,97.2z"/>
				<path class="st6" d="M693,207.7c-0.8,4.4-2,8.1-3.6,11.5c-4.1-8.8-10.4-18.2-16.2-26.2c0,0,0,0,0,0c-0.2-0.9-0.7-2-1.5-3.5
					c-2.7-5.1-5.4-10.2-8.3-15c-5-8.3-8.3-19.9-8.6-32.4c-0.3-13.1,1.7-24.4,5.8-33.9c0.4,9.5,8,24.7,19.1,36.3
					c0.2,0.6,0.4,1.2,0.7,1.8c1.7,3.7,3.4,7.4,5.3,10.7c3.9,6.9,7.2,14.3,8.2,24.6C694.8,190.6,694.5,199.2,693,207.7z"/>
				<path class="st5" d="M689.4,219.2c-1.1,2.4-2.3,4.6-3.5,6.8c-3.2,5.5-6.2,11.3-9.3,16.9c-0.6,1-0.8,2.2-0.7,3.4
					c-5.7-6.6-11.8-15.2-14.8-24v0c1.5-5.1,3.7-9.7,6.3-13.6c1.8-2.6,3.5-5.8,4.7-9.4c1.1-3.1,1.6-4.5,1.1-6.4
					C679,201,685.3,210.4,689.4,219.2z"/>
				<path class="st6" d="M691.2,295.4c0,5.5-0.4,10.6-1.4,15.3c-4.6-9.3-10.6-14.5-14.9-19.5c-0.3-0.7-0.8-1.5-1.2-2.3
					c-2.7-5-5.7-9.5-8.4-14.3c-5.7-9.9-8-22.3-7-36.4c0.4-5.8,1.3-11,2.8-15.8c3,8.8,9.2,17.4,14.8,24c0,0.6,0.1,1.1,0.2,1.7
					c0.3,1.6,0.6,3.4,1.2,4.6c2.2,4.3,4.5,8.2,6.6,12.5C688.1,273.7,691.1,283.3,691.2,295.4z"/>
				<path class="st5" d="M689.8,310.7L689.8,310.7c-1.1,5.5-2.9,10.4-5.5,14.6c-2.5,4.1-5.4,7.6-7.9,11.8
					c-4.4,7.3-4.9,15.4-1.4,24.1c1.1,2.8,2.4,5.5,3.7,8c-4.7-6.3-12.3-17.5-16.7-30c0.7-4.8,2-9.5,3.9-13.9
					c2.5-5.7,5.5-10.9,8.1-16.5c3.8-8.4,3.5-12.4,1-17.7C679.2,296.2,685.2,301.4,689.8,310.7z"/>
				<path class="st6" d="M686.9,411.6c-2.4-5.5-5.3-11.2-8-16.3c0,0,0,0,0-0.1c-0.8-3-2.1-6-4-8.7c-2.3-3.5-4.7-7-6.9-10.9
					c-5.7-10.1-7.9-23.8-6-36.4c4.4,12.6,12,23.7,16.7,30c0,0,0,0,0,0c0.9,1.8,1.8,3.5,2.6,5.2c2.1,4.2,4.4,8.4,5.5,13.9
					C688.3,396.1,688.4,404.3,686.9,411.6z"/>
				<path class="st5" d="M684,496.3c0.6,3,0.9,6.2,0.4,9.5c-0.4-0.7-0.6-1.5-0.8-2.3c-1.1-6.5-3-12-5.8-16.4
					c-2.4-3.8-5.1-7.1-7.3-11.1c-7-12.2-8.2-28.9-1.3-43.3c2.3-4.8,4.9-9.2,7.2-14.1c3.5-7.7,4.5-15.7,2.5-23.2
					c2.8,5.1,5.6,10.7,8,16.3c-1,5.5-2.9,10.5-5.6,14.5c-2.9,4.4-5.8,8.9-8.5,13.8c-3.6,6.6-4.5,15.7-2.2,24.9
					c1.5,5.8,4,10.1,6.4,14.5C679.8,484.4,682.7,489.3,684,496.3z"/>
			</g>
		</g>
		<g class="st7">
			<g>
				<path class="st8" d="M697.3,97.2c-0.8,7.9-2.5,15.4-5.3,22.5c-3,7.6-7.2,12.8-11.1,18.7c-1.4,2.2-1.9,3.8-1.2,6.1
					c-11.1-11.5-18.7-26.8-19.1-36.3c1.4-3.3,3.1-6.4,5.1-9.3c0.8-1.2,1.5-2.3,2.3-3.6c0.5-0.8,0.8-1.5,1.2-2.1
					c1.2-2.3,3.6-3.8,6.2-3.8h14.9C694.4,89.5,697.7,93.1,697.3,97.2z"/>
				<path class="st8" d="M693,207.7c-0.8,4.4-2,8.1-3.6,11.5c-4.1-8.8-10.4-18.2-16.2-26.2c0,0,0,0,0,0c-0.2-0.9-0.7-2-1.5-3.5
					c-2.7-5.1-5.4-10.2-8.3-15c-5-8.3-8.3-19.9-8.6-32.4c-0.3-13.1,1.7-24.4,5.8-33.9c0.4,9.5,8,24.7,19.1,36.3
					c0.2,0.6,0.4,1.2,0.7,1.8c1.7,3.7,3.4,7.4,5.3,10.7c3.9,6.9,7.2,14.3,8.2,24.6C694.8,190.6,694.5,199.2,693,207.7z"/>
				<path class="st8" d="M689.4,219.2c-1.1,2.4-2.3,4.6-3.5,6.8c-3.2,5.5-6.2,11.3-9.3,16.9c-0.6,1-0.8,2.2-0.7,3.4
					c-5.7-6.6-11.8-15.2-14.8-24v0c1.5-5.1,3.7-9.7,6.3-13.6c1.8-2.6,3.5-5.8,4.7-9.4c1.1-3.1,1.6-4.5,1.1-6.4
					C679,201,685.3,210.4,689.4,219.2z"/>
				<path class="st8" d="M691.2,295.4c0,5.5-0.4,10.6-1.4,15.3c-4.6-9.3-10.6-14.5-14.9-19.5c-0.3-0.7-0.8-1.5-1.2-2.3
					c-2.7-5-5.7-9.5-8.4-14.3c-5.7-9.9-8-22.3-7-36.4c0.4-5.8,1.3-11,2.8-15.8c3,8.8,9.2,17.4,14.8,24c0,0.6,0.1,1.1,0.2,1.7
					c0.3,1.6,0.6,3.4,1.2,4.6c2.2,4.3,4.5,8.2,6.6,12.5C688.1,273.7,691.1,283.3,691.2,295.4z"/>
				<path class="st8" d="M689.8,310.7L689.8,310.7c-1.1,5.5-2.9,10.4-5.5,14.6c-2.5,4.1-5.4,7.6-7.9,11.8
					c-4.4,7.3-4.9,15.4-1.4,24.1c1.1,2.8,2.4,5.5,3.7,8c-4.7-6.3-12.3-17.5-16.7-30c0.7-4.8,2-9.5,3.9-13.9
					c2.5-5.7,5.5-10.9,8.1-16.5c3.8-8.4,3.5-12.4,1-17.7C679.2,296.2,685.2,301.4,689.8,310.7z"/>
				<path class="st8" d="M686.9,411.6c-2.4-5.5-5.3-11.2-8-16.3c0,0,0,0,0-0.1c-0.8-3-2.1-6-4-8.7c-2.3-3.5-4.7-7-6.9-10.9
					c-5.7-10.1-7.9-23.8-6-36.4c4.4,12.6,12,23.7,16.7,30c0,0,0,0,0,0c0.9,1.8,1.8,3.5,2.6,5.2c2.1,4.2,4.4,8.4,5.5,13.9
					C688.3,396.1,688.4,404.3,686.9,411.6z"/>
				<path class="st8" d="M684,496.3c0.6,3,0.9,6.2,0.4,9.5c-0.4-0.7-0.6-1.5-0.8-2.3c-1.1-6.5-3-12-5.8-16.4
					c-2.4-3.8-5.1-7.1-7.3-11.1c-7-12.2-8.2-28.9-1.3-43.3c2.3-4.8,4.9-9.2,7.2-14.1c3.5-7.7,4.5-15.7,2.5-23.2
					c2.8,5.1,5.6,10.7,8,16.3c-1,5.5-2.9,10.5-5.6,14.5c-2.9,4.4-5.8,8.9-8.5,13.8c-3.6,6.6-4.5,15.7-2.2,24.9
					c1.5,5.8,4,10.1,6.4,14.5C679.8,484.4,682.7,489.3,684,496.3z"/>
			</g>
		</g>
	</g>
</g>
<g id="Layer_3">
	<path class="st9" d="M230.6,105.9c-7.2,11.9-8,25.1-2.3,39.4c1.9,4.6,3.9,8.9,6.1,13.1c-7.5-10-19.5-27.6-26.7-47.4
		c12.9-14.7,27.2-28,42.8-39.8c-1.7,5.6-4,10.8-6.9,15.5C239.4,93.5,234.7,99.1,230.6,105.9z"/>
	<path class="st9" d="M247.9,227.5c-3.9-9.1-8.6-18.3-13.1-26.6c0,0,0-0.1,0-0.1c-1.3-4.9-3.4-9.7-6.5-14.2
		c-3.8-5.8-7.7-11.4-11.3-17.8c-8.9-15.9-12.6-36.9-10.2-56.8c0.3-0.3,0.6-0.7,0.9-1c7.2,19.9,19.2,37.4,26.7,47.4c0,0,0,0,0,0
		c1.4,2.9,2.9,5.6,4.3,8.5c3.5,6.9,7.1,13.7,8.9,22.7C250.1,202.2,250.2,215.5,247.9,227.5z"/>
	<path class="st9" d="M243,365.8c0.9,5,1.5,10,0.6,15.4c-0.6-1.1-1-2.4-1.2-3.8c-1.8-10.6-4.9-19.6-9.4-26.7
		c-4-6.1-8.2-11.6-12-18.1c-11.4-19.9-13.4-47.2-2.1-70.6c3.8-7.8,8-15,11.7-23.1c5.7-12.6,7.4-25.7,4.1-37.9
		c4.5,8.3,9.2,17.5,13.1,26.6c-1.7,8.9-4.7,17.1-9.1,23.7c-4.8,7.2-9.5,14.5-13.9,22.5c-5.8,10.8-7.4,25.6-3.6,40.6
		c2.4,9.5,6.5,16.5,10.4,23.7C236.2,346.3,240.9,354.3,243,365.8z"/>
	<path class="st9" d="M288.3,50.3c0-1.1,0-2.1-0.2-3.2c1.6-0.9,3.3-1.7,5-2.6C291.4,46.6,289.8,48.5,288.3,50.3z"/>
	<path class="st9" d="M305.6,96.3c-4.5,7.9-9.3,15.2-13.8,23.3c-0.7,1.3-1.4,2.6-1.9,3.8c-7.1,8.2-16.9,16.8-24.4,31.9
		c-1.6-7.7-2.3-16-2.2-25c0.1-19.8,5-35.4,11.9-49.3c3.5-7,7.3-13.4,10.8-20.4c1-2,1.6-4.8,2-7.5c0.2-0.9,0.3-1.8,0.3-2.7
		c1.6-1.8,3.1-3.7,4.7-5.7c7.7-3.9,15.7-7.5,23.8-10.7c0.1,1,0.2,1.9,0.2,2.9C318.6,60,314.8,80.1,305.6,96.3z"/>
	<path class="st9" d="M265.5,155.3C265.5,155.3,265.5,155.3,265.5,155.3c1.8,9,4.8,17,9,23.9c4.1,6.8,8.8,12.4,12.9,19.2
		c7.2,11.9,8,25.1,2.3,39.4c-1.9,4.6-3.9,8.9-6,13.1c7.7-10.3,20.1-28.5,27.3-49c-1.1-7.9-3.2-15.6-6.4-22.6
		c-4.1-9.4-8.9-17.7-13.2-26.9c-6.2-13.6-5.7-20.3-1.6-28.9C282.8,131.7,273,140.2,265.5,155.3z"/>
	<path class="st9" d="M270.2,320c3.9-9,8.6-18.3,13.1-26.6c0,0,0-0.1,0-0.1c1.4-4.9,3.5-9.7,6.5-14.2c3.8-5.8,7.7-11.4,11.3-17.8
		c9.3-16.6,12.9-38.8,9.9-59.5c-7.2,20.5-19.6,38.7-27.3,49c0,0,0,0,0,0.1c-1.4,2.9-2.9,5.6-4.3,8.5c-3.5,6.9-7.1,13.7-8.9,22.7
		C268,294.7,267.9,308,270.2,320z"/>
	<path class="st9" d="M275,458.3c-0.9,5-1.5,10-0.6,15.4c0.6-1.1,1-2.4,1.2-3.8c1.8-10.6,4.9-19.6,9.5-26.7c4-6.1,8.2-11.6,12-18.1
		c11.4-19.9,13.4-47.2,2.1-70.6c-3.8-7.8-8-15-11.7-23.1c-5.7-12.6-7.4-25.7-4.1-37.9c-4.5,8.3-9.2,17.5-13.1,26.6
		c1.7,8.9,4.7,17.1,9.1,23.7c4.8,7.2,9.5,14.5,13.9,22.5c5.8,10.8,7.4,25.6,3.6,40.6c-2.4,9.5-6.5,16.5-10.4,23.7
		C281.8,438.8,277.1,446.8,275,458.3z"/>
	<path class="st9" d="M382,37.8c0,9-0.7,17.3-2.2,25c-7.4-15.1-17.3-23.7-24.4-31.9c-0.6-1.2-1.2-2.5-1.9-3.8
		c-0.8-1.5-1.6-2.9-2.4-4.3c9.5-2.4,19.1-4.3,29-5.7C381.3,23.5,382,30.4,382,37.8z"/>
	<path class="st9" d="M379.8,62.8C379.8,62.8,379.8,62.8,379.8,62.8c-1.8,9-4.8,17-9,23.9c-4.1,6.8-8.8,12.4-12.9,19.2
		c-7.2,11.9-8,25.1-2.3,39.4c1.9,4.6,3.9,8.9,6,13.1c-7.7-10.3-20.1-28.5-27.3-49c1.1-7.9,3.2-15.6,6.4-22.6
		c4.1-9.4,8.9-17.7,13.2-27c6.2-13.6,5.7-20.3,1.6-28.9C362.5,39.1,372.3,47.7,379.8,62.8z"/>
	<path class="st9" d="M375.1,227.5c-3.9-9.1-8.6-18.3-13.1-26.6c0,0,0-0.1,0-0.1c-1.4-4.9-3.5-9.7-6.5-14.2
		c-3.8-5.8-7.7-11.4-11.3-17.8c-9.3-16.6-12.9-38.8-9.9-59.5c7.2,20.5,19.6,38.7,27.3,49c0,0,0,0,0,0.1c1.4,2.9,2.9,5.6,4.3,8.5
		c3.5,6.9,7.1,13.7,8.9,22.7C377.3,202.2,377.4,215.5,375.1,227.5z"/>
	<path class="st9" d="M370.2,365.8c0.9,5,1.5,10,0.6,15.4c-0.6-1.1-1-2.4-1.2-3.8c-1.8-10.6-4.9-19.6-9.5-26.7
		c-4-6.1-8.2-11.6-12-18.1c-11.4-19.9-13.4-47.2-2.1-70.6c3.8-7.8,8-15,11.7-23.1c5.7-12.6,7.4-25.7,4.1-37.9
		c4.5,8.3,9.2,17.5,13.1,26.6c-1.7,8.9-4.7,17.1-9.1,23.7c-4.8,7.2-9.5,14.5-13.9,22.5c-5.8,10.8-7.4,25.6-3.6,40.6
		c2.4,9.5,6.5,16.5,10.4,23.7C363.5,346.3,368.1,354.3,370.2,365.8z"/>
	<path class="st9" d="M415.5,50.3c0.1-1.9-0.2-3.8-1.1-5.5c-5.1-9.2-10.1-18.6-15.2-27.6c-0.4-0.7-0.8-1.4-1.2-2.1
		c7.6-0.6,15.3-0.9,23-0.9c5.9,0,11.7,0.2,17.5,0.5C433.1,27.8,424,40.5,415.5,50.3z"/>
	<path class="st9" d="M432.8,96.3c-4.5,7.9-9.3,15.2-13.8,23.3c-0.7,1.3-1.4,2.6-1.9,3.8c-7.1,8.2-16.9,16.8-24.4,31.9
		c-1.6-7.7-2.3-16-2.2-25c0.1-19.8,5-35.4,11.9-49.3c3.5-7,7.3-13.4,10.8-20.4c1-2,1.6-4.8,2-7.5c0.2-0.9,0.3-1.8,0.3-2.7
		c8.5-9.9,17.6-22.5,22.9-35.6c0.8,0,1.6,0.1,2.4,0.1c1.8,6.8,2.9,14.1,3.5,22C445.9,60,442,80.1,432.8,96.3z"/>
	<path class="st9" d="M392.7,155.3C392.7,155.3,392.7,155.3,392.7,155.3c1.8,9,4.8,17,9,23.9c4.1,6.8,8.8,12.4,12.9,19.2
		c7.2,11.9,8,25.1,2.3,39.4c-1.9,4.6-3.9,8.9-6,13.1c7.7-10.3,20.1-28.5,27.3-49c-1.1-7.9-3.2-15.6-6.4-22.6
		c-4.1-9.4-8.9-17.7-13.2-26.9c-6.2-13.6-5.7-20.3-1.6-28.9C410,131.7,400.2,140.2,392.7,155.3z"/>
	<path class="st9" d="M397.4,320c3.9-9,8.6-18.3,13.1-26.6c0,0,0-0.1,0-0.1c1.4-4.9,3.5-9.7,6.5-14.2c3.8-5.8,7.7-11.4,11.3-17.8
		c9.3-16.6,12.9-38.8,9.9-59.5c-7.2,20.5-19.6,38.7-27.3,49c0,0,0,0,0,0.1c-1.4,2.9-2.9,5.6-4.3,8.5c-3.5,6.9-7.1,13.7-8.9,22.7
		C395.2,294.7,395.1,308,397.4,320z"/>
	<path class="st9" d="M402.2,458.3c-0.9,5-1.5,10-0.6,15.4c0.6-1.1,1-2.4,1.2-3.8c1.8-10.6,4.9-19.6,9.5-26.7
		c4-6.1,8.2-11.6,12-18.1c11.4-19.9,13.4-47.2,2.1-70.6c-3.8-7.8-8-15-11.7-23.1c-5.7-12.6-7.4-25.7-4.1-37.9
		c-4.5,8.3-9.2,17.5-13.1,26.6c1.7,8.9,4.7,17.1,9.1,23.7c4.8,7.2,9.5,14.5,13.9,22.5c5.8,10.8,7.4,25.6,3.6,40.6
		c-2.4,9.5-6.5,16.5-10.4,23.7C409,438.8,404.4,446.8,402.2,458.3z"/>
	<path class="st9" d="M613.6,145.3c5.7-14.3,4.9-27.5-2.3-39.4c-4.1-6.8-8.8-12.5-12.9-19.2c-2.9-4.7-5.1-9.9-6.9-15.5
		c15.6,11.8,29.9,25.1,42.8,39.8c-7.2,19.9-19.2,37.4-26.7,47.4C609.7,154.2,611.8,149.9,613.6,145.3z"/>
	<path class="st9" d="M625,168.9c-3.6,6.3-7.5,12-11.3,17.8c-3,4.5-5.2,9.3-6.5,14.2c0,0,0,0.1,0,0.1c-4.5,8.3-9.2,17.5-13.1,26.6
		c-2.3-12-2.2-25.3,0.2-37.8c1.8-9,5.5-15.8,8.9-22.7c1.4-2.9,2.9-5.6,4.3-8.5c0,0,0,0,0,0c7.5-10,19.5-27.6,26.7-47.4
		c0.3,0.3,0.6,0.7,0.9,1.1C637.5,131.9,633.9,153,625,168.9z"/>
	<path class="st9" d="M598.9,365.8c-0.9,5-1.5,10-0.6,15.4c0.7-1.1,1-2.4,1.2-3.8c1.8-10.6,4.8-19.6,9.5-26.7
		c4-6.1,8.2-11.6,12-18.1c11.4-19.9,13.4-47.2,2.1-70.6c-3.8-7.8-8-15-11.7-23.1c-5.7-12.6-7.4-25.7-4.1-37.9
		c-4.5,8.3-9.2,17.5-13.1,26.6c1.7,8.9,4.7,17.1,9.1,23.7c4.8,7.2,9.5,14.5,13.8,22.5c5.8,10.8,7.4,25.6,3.6,40.6
		c-2.4,9.5-6.5,16.5-10.4,23.7C605.7,346.3,601,354.3,598.9,365.8z"/>
	<path class="st9" d="M553.6,50.3c-1.6-1.8-3.1-3.7-4.7-5.7c1.7,0.8,3.3,1.7,5,2.6C553.6,48.2,553.6,49.3,553.6,50.3z"/>
	<path class="st9" d="M578.6,130.3c0,8.9-0.7,17.3-2.2,25c-7.5-15.1-17.3-23.6-24.4-31.9c-0.6-1.2-1.2-2.4-1.9-3.8
		c-4.4-8.1-9.2-15.4-13.8-23.3c-9.2-16.2-13.1-36.3-11.4-59.5c0.1-1,0.1-2,0.2-2.9c8.1,3.2,16.1,6.8,23.8,10.7
		c1.6,2,3.1,3.9,4.7,5.7c0,0.9,0.2,1.8,0.3,2.7c0.5,2.6,1,5.5,2,7.5c3.5,7,7.3,13.4,10.8,20.4C573.6,94.9,578.6,110.6,578.6,130.3z"
		/>
	<path class="st9" d="M576.4,155.3C576.4,155.3,576.4,155.3,576.4,155.3c-1.8,9-4.8,17-9,23.9c-4.1,6.8-8.8,12.4-12.9,19.2
		c-7.2,11.9-8,25.1-2.3,39.4c1.8,4.6,3.9,8.9,6,13.1c-7.7-10.3-20.1-28.5-27.3-49c1.2-7.9,3.2-15.6,6.4-22.6
		c4.1-9.4,8.9-17.7,13.2-26.9c6.2-13.6,5.7-20.3,1.6-28.9C559.1,131.7,568.9,140.2,576.4,155.3z"/>
	<path class="st9" d="M571.7,320c-3.9-9-8.6-18.3-13.1-26.6c0,0,0-0.1,0-0.1c-1.3-4.9-3.5-9.7-6.5-14.2c-3.8-5.8-7.7-11.4-11.3-17.8
		c-9.3-16.6-12.9-38.8-9.9-59.5c7.2,20.5,19.6,38.7,27.3,49c0,0,0,0,0,0.1c1.4,2.9,2.9,5.6,4.3,8.5c3.5,6.9,7.2,13.7,8.9,22.7
		C573.9,294.7,574,308,571.7,320z"/>
	<path class="st9" d="M566.9,458.3c0.9,5,1.5,10,0.6,15.4c-0.7-1.1-1-2.4-1.2-3.8c-1.8-10.6-4.8-19.6-9.5-26.7
		c-4-6.1-8.2-11.6-12-18.1c-11.4-19.9-13.4-47.2-2.1-70.6c3.8-7.8,8-15,11.7-23.1c5.7-12.6,7.4-25.7,4.1-37.9
		c4.5,8.3,9.2,17.5,13.1,26.6c-1.7,8.9-4.7,17.1-9.1,23.7c-4.8,7.2-9.5,14.5-13.8,22.5c-5.8,10.8-7.4,25.6-3.6,40.6
		c2.4,9.5,6.5,16.5,10.4,23.7C560.1,438.8,564.7,446.8,566.9,458.3z"/>
	<path class="st9" d="M490.9,22.9c-0.8,1.4-1.6,2.8-2.4,4.3c-0.7,1.3-1.4,2.6-1.9,3.8c-7.1,8.2-17,16.8-24.4,31.9
		c-1.6-7.7-2.3-16-2.2-25c0-7.4,0.8-14.3,2-20.7C471.7,18.5,481.4,20.5,490.9,22.9z"/>
	<path class="st9" d="M462.1,62.8C462.1,62.8,462.1,62.8,462.1,62.8c1.8,9,4.8,17,9,23.9c4.1,6.8,8.8,12.4,12.9,19.2
		c7.2,11.9,8,25.1,2.3,39.4c-1.9,4.6-3.9,8.9-6,13.1c7.7-10.3,20.1-28.5,27.3-49c-1.1-7.9-3.2-15.6-6.4-22.6
		c-4.1-9.4-8.9-17.7-13.2-27c-6.2-13.6-5.7-20.3-1.6-28.9C479.4,39.1,469.6,47.7,462.1,62.8z"/>
	<path class="st9" d="M466.8,227.5c3.9-9.1,8.6-18.3,13.1-26.6c0,0,0-0.1,0-0.1c1.4-4.9,3.5-9.7,6.5-14.2
		c3.8-5.8,7.7-11.4,11.3-17.8c9.3-16.6,12.9-38.8,9.9-59.5c-7.2,20.5-19.6,38.7-27.3,49c0,0,0,0,0,0.1c-1.4,2.9-2.9,5.6-4.3,8.5
		c-3.5,6.9-7.1,13.7-8.9,22.7C464.6,202.2,464.5,215.5,466.8,227.5z"/>
	<path class="st9" d="M471.6,365.8c-0.9,5-1.5,10-0.6,15.4c0.6-1.1,1-2.4,1.2-3.8c1.8-10.6,4.9-19.6,9.5-26.7
		c4-6.1,8.2-11.6,12-18.1c11.4-19.9,13.4-47.2,2.1-70.6c-3.8-7.8-8-15-11.7-23.1c-5.7-12.6-7.4-25.7-4.1-37.9
		c-4.5,8.3-9.2,17.5-13.1,26.6c1.7,8.9,4.7,17.1,9.1,23.7c4.8,7.2,9.5,14.5,13.9,22.5c5.8,10.8,7.4,25.6,3.6,40.6
		c-2.4,9.5-6.5,16.5-10.4,23.7C478.4,346.3,473.8,354.3,471.6,365.8z"/>
</g>
</svg>
